<svg width="124" height="41" viewBox="0 0 124 41" fill="none" xmlns="http://www.w3.org/2000/svg">
<path d="M31.5371 15.3369L27.3008 27H25.5693L30.4473 14.2031H31.5635L31.5371 15.3369ZM35.0879 27L30.8428 15.3369L30.8164 14.2031H31.9326L36.8281 27H35.0879ZM34.8682 22.2627V23.6514H27.6787V22.2627H34.8682ZM38.2871 13.5H39.9219V25.1543L39.7812 27H38.2871V13.5ZM46.3467 22.166V22.3506C46.3467 23.042 46.2646 23.6836 46.1006 24.2754C45.9365 24.8613 45.6963 25.3711 45.3799 25.8047C45.0635 26.2383 44.6768 26.5752 44.2197 26.8154C43.7627 27.0557 43.2383 27.1758 42.6465 27.1758C42.043 27.1758 41.5127 27.0732 41.0557 26.8682C40.6045 26.6572 40.2236 26.3555 39.9131 25.9629C39.6025 25.5703 39.3535 25.0957 39.166 24.5391C38.9844 23.9824 38.8584 23.3555 38.7881 22.6582V21.8496C38.8584 21.1465 38.9844 20.5166 39.166 19.96C39.3535 19.4033 39.6025 18.9287 39.9131 18.5361C40.2236 18.1377 40.6045 17.8359 41.0557 17.6309C41.5068 17.4199 42.0312 17.3145 42.6289 17.3145C43.2266 17.3145 43.7568 17.4316 44.2197 17.666C44.6826 17.8945 45.0693 18.2227 45.3799 18.6504C45.6963 19.0781 45.9365 19.5908 46.1006 20.1885C46.2646 20.7803 46.3467 21.4395 46.3467 22.166ZM44.7119 22.3506V22.166C44.7119 21.6914 44.668 21.2461 44.5801 20.8301C44.4922 20.4082 44.3516 20.0391 44.1582 19.7227C43.9648 19.4004 43.71 19.1484 43.3936 18.9668C43.0771 18.7793 42.6875 18.6855 42.2246 18.6855C41.8145 18.6855 41.457 18.7559 41.1523 18.8965C40.8535 19.0371 40.5986 19.2275 40.3877 19.4678C40.1768 19.7021 40.0039 19.9717 39.8691 20.2764C39.7402 20.5752 39.6436 20.8857 39.5791 21.208V23.3262C39.6729 23.7363 39.8252 24.1318 40.0361 24.5127C40.2529 24.8877 40.54 25.1953 40.8975 25.4355C41.2607 25.6758 41.709 25.7959 42.2422 25.7959C42.6816 25.7959 43.0566 25.708 43.3672 25.5322C43.6836 25.3506 43.9385 25.1016 44.1318 24.7852C44.3311 24.4688 44.4775 24.1025 44.5713 23.6865C44.665 23.2705 44.7119 22.8252 44.7119 22.3506ZM47.9727 22.3506V22.1484C47.9727 21.4629 48.0723 20.8271 48.2715 20.2412C48.4707 19.6494 48.7578 19.1367 49.1328 18.7031C49.5078 18.2637 49.9619 17.9238 50.4951 17.6836C51.0283 17.4375 51.626 17.3145 52.2881 17.3145C52.9561 17.3145 53.5566 17.4375 54.0898 17.6836C54.6289 17.9238 55.0859 18.2637 55.4609 18.7031C55.8418 19.1367 56.1318 19.6494 56.3311 20.2412C56.5303 20.8271 56.6299 21.4629 56.6299 22.1484V22.3506C56.6299 23.0361 56.5303 23.6719 56.3311 24.2578C56.1318 24.8438 55.8418 25.3564 55.4609 25.7959C55.0859 26.2295 54.6318 26.5693 54.0986 26.8154C53.5713 27.0557 52.9736 27.1758 52.3057 27.1758C51.6377 27.1758 51.0371 27.0557 50.5039 26.8154C49.9707 26.5693 49.5137 26.2295 49.1328 25.7959C48.7578 25.3564 48.4707 24.8438 48.2715 24.2578C48.0723 23.6719 47.9727 23.0361 47.9727 22.3506ZM49.5986 22.1484V22.3506C49.5986 22.8252 49.6543 23.2734 49.7656 23.6953C49.877 24.1113 50.0439 24.4805 50.2666 24.8027C50.4951 25.125 50.7793 25.3799 51.1191 25.5674C51.459 25.749 51.8545 25.8398 52.3057 25.8398C52.751 25.8398 53.1406 25.749 53.4746 25.5674C53.8145 25.3799 54.0957 25.125 54.3184 24.8027C54.541 24.4805 54.708 24.1113 54.8193 23.6953C54.9365 23.2734 54.9951 22.8252 54.9951 22.3506V22.1484C54.9951 21.6797 54.9365 21.2373 54.8193 20.8213C54.708 20.3994 54.5381 20.0273 54.3096 19.7051C54.0869 19.377 53.8057 19.1191 53.4658 18.9316C53.1318 18.7441 52.7393 18.6504 52.2881 18.6504C51.8428 18.6504 51.4502 18.7441 51.1104 18.9316C50.7764 19.1191 50.4951 19.377 50.2666 19.7051C50.0439 20.0273 49.877 20.3994 49.7656 20.8213C49.6543 21.2373 49.5986 21.6797 49.5986 22.1484ZM64.4873 24.8027V17.4902H66.1221V27H64.5664L64.4873 24.8027ZM64.7949 22.7988L65.4717 22.7812C65.4717 23.4141 65.4043 24 65.2695 24.5391C65.1406 25.0723 64.9297 25.5352 64.6367 25.9277C64.3438 26.3203 63.96 26.6279 63.4854 26.8506C63.0107 27.0674 62.4336 27.1758 61.7539 27.1758C61.291 27.1758 60.8662 27.1084 60.4795 26.9736C60.0986 26.8389 59.7705 26.6309 59.4951 26.3496C59.2197 26.0684 59.0059 25.7021 58.8535 25.251C58.707 24.7998 58.6338 24.2578 58.6338 23.625V17.4902H60.2598V23.6426C60.2598 24.0703 60.3066 24.4248 60.4004 24.7061C60.5 24.9814 60.6318 25.2012 60.7959 25.3652C60.9658 25.5234 61.1533 25.6348 61.3584 25.6992C61.5693 25.7637 61.7861 25.7959 62.0088 25.7959C62.7002 25.7959 63.248 25.6641 63.6523 25.4004C64.0566 25.1309 64.3467 24.7705 64.5225 24.3193C64.7041 23.8623 64.7949 23.3555 64.7949 22.7988ZM72.582 17.4902V18.7383H67.4404V17.4902H72.582ZM69.1807 15.1787H70.8066V24.6445C70.8066 24.9668 70.8564 25.21 70.9561 25.374C71.0557 25.5381 71.1846 25.6465 71.3428 25.6992C71.501 25.752 71.6709 25.7783 71.8525 25.7783C71.9873 25.7783 72.1279 25.7666 72.2744 25.7432C72.4268 25.7139 72.541 25.6904 72.6172 25.6729L72.626 27C72.4971 27.041 72.3271 27.0791 72.1162 27.1143C71.9111 27.1553 71.6621 27.1758 71.3691 27.1758C70.9707 27.1758 70.6045 27.0967 70.2705 26.9385C69.9365 26.7803 69.6699 26.5166 69.4707 26.1475C69.2773 25.7725 69.1807 25.2686 69.1807 24.6357V15.1787ZM86.5215 14.2031H88.209V22.8604C88.209 23.8213 87.9951 24.6211 87.5674 25.2598C87.1396 25.8984 86.5713 26.3789 85.8623 26.7012C85.1592 27.0176 84.3945 27.1758 83.5684 27.1758C82.7012 27.1758 81.916 27.0176 81.2129 26.7012C80.5156 26.3789 79.9619 25.8984 79.5518 25.2598C79.1475 24.6211 78.9453 23.8213 78.9453 22.8604V14.2031H80.624V22.8604C80.624 23.5283 80.7471 24.0791 80.9932 24.5127C81.2393 24.9463 81.582 25.2686 82.0215 25.4795C82.4668 25.6904 82.9824 25.7959 83.5684 25.7959C84.1602 25.7959 84.6758 25.6904 85.1152 25.4795C85.5605 25.2686 85.9062 24.9463 86.1523 24.5127C86.3984 24.0791 86.5215 23.5283 86.5215 22.8604V14.2031ZM96.1631 24.4775C96.1631 24.2432 96.1104 24.0264 96.0049 23.8271C95.9053 23.6221 95.6973 23.4375 95.3809 23.2734C95.0703 23.1035 94.6016 22.957 93.9746 22.834C93.4473 22.7227 92.9697 22.5908 92.542 22.4385C92.1201 22.2861 91.7598 22.1016 91.4609 21.8848C91.168 21.668 90.9424 21.4131 90.7842 21.1201C90.626 20.8271 90.5469 20.4844 90.5469 20.0918C90.5469 19.7168 90.6289 19.3623 90.793 19.0283C90.9629 18.6943 91.2002 18.3984 91.5049 18.1406C91.8154 17.8828 92.1875 17.6807 92.6211 17.5342C93.0547 17.3877 93.5381 17.3145 94.0713 17.3145C94.833 17.3145 95.4834 17.4492 96.0225 17.7188C96.5615 17.9883 96.9746 18.3486 97.2617 18.7998C97.5488 19.2451 97.6924 19.7402 97.6924 20.2852H96.0664C96.0664 20.0215 95.9873 19.7666 95.8291 19.5205C95.6768 19.2686 95.4512 19.0605 95.1523 18.8965C94.8594 18.7324 94.499 18.6504 94.0713 18.6504C93.6201 18.6504 93.2539 18.7207 92.9727 18.8613C92.6973 18.9961 92.4951 19.1689 92.3662 19.3799C92.2432 19.5908 92.1816 19.8135 92.1816 20.0479C92.1816 20.2236 92.2109 20.3818 92.2695 20.5225C92.334 20.6572 92.4453 20.7832 92.6035 20.9004C92.7617 21.0117 92.9844 21.1172 93.2715 21.2168C93.5586 21.3164 93.9248 21.416 94.3701 21.5156C95.1494 21.6914 95.791 21.9023 96.2949 22.1484C96.7988 22.3945 97.1738 22.6963 97.4199 23.0537C97.666 23.4111 97.7891 23.8447 97.7891 24.3545C97.7891 24.7705 97.7012 25.1514 97.5254 25.4971C97.3555 25.8428 97.1064 26.1416 96.7783 26.3936C96.4561 26.6396 96.0693 26.833 95.6182 26.9736C95.1729 27.1084 94.6719 27.1758 94.1152 27.1758C93.2773 27.1758 92.5684 27.0264 91.9883 26.7275C91.4082 26.4287 90.9688 26.042 90.6699 25.5674C90.3711 25.0928 90.2217 24.5918 90.2217 24.0645H91.8564C91.8799 24.5098 92.0088 24.8643 92.2432 25.1279C92.4775 25.3857 92.7646 25.5703 93.1045 25.6816C93.4443 25.7871 93.7812 25.8398 94.1152 25.8398C94.5605 25.8398 94.9326 25.7812 95.2314 25.6641C95.5361 25.5469 95.7676 25.3857 95.9258 25.1807C96.084 24.9756 96.1631 24.7412 96.1631 24.4775Z" fill="white"/>
<path d="M10 2H114V-2H10V2ZM122 10V31H126V10H122ZM114 39H10V43H114V39ZM2 31V10H-2V31H2ZM10 39C5.58172 39 2 35.4183 2 31H-2C-2 37.6274 3.37258 43 10 43V39ZM122 31C122 35.4183 118.418 39 114 39V43C120.627 43 126 37.6274 126 31H122ZM114 2C118.418 2 122 5.58172 122 10H126C126 3.37258 120.627 -2 114 -2V2ZM10 -2C3.37258 -2 -2 3.37258 -2 10H2C2 5.58172 5.58172 2 10 2V-2Z" fill="white"/>
</svg>
