<svg width="1428" height="87" viewBox="0 0 1428 87" fill="none" xmlns="http://www.w3.org/2000/svg">
<rect x="276" width="202" height="82" fill="#FBD304"/>
<rect x="570" width="215" height="82" fill="#FBD304"/>
<rect x="908" width="196" height="82" fill="#FBD304"/>
<rect x="1196" y="5" width="223" height="82" fill="#FBD304"/>
<rect y="5" width="184" height="77" fill="#FDCB02"/>
<path d="M28.6914 36.8613H32.0664C31.8906 38.4785 31.4277 39.9258 30.6777 41.2031C29.9277 42.4805 28.8672 43.4941 27.4961 44.2441C26.125 44.9824 24.4141 45.3516 22.3633 45.3516C20.8633 45.3516 19.498 45.0703 18.2676 44.5078C17.0488 43.9453 16 43.1484 15.1211 42.1172C14.2422 41.0742 13.5625 39.8262 13.082 38.373C12.6133 36.9082 12.3789 35.2793 12.3789 33.4863V30.9375C12.3789 29.1445 12.6133 27.5215 13.082 26.0684C13.5625 24.6035 14.248 23.3496 15.1387 22.3066C16.041 21.2637 17.125 20.4609 18.3906 19.8984C19.6562 19.3359 21.0801 19.0547 22.6621 19.0547C24.5957 19.0547 26.2305 19.418 27.5664 20.1445C28.9023 20.8711 29.9395 21.8789 30.6777 23.168C31.4277 24.4453 31.8906 25.9277 32.0664 27.6152H28.6914C28.5273 26.4199 28.2227 25.3945 27.7773 24.5391C27.332 23.6719 26.6992 23.0039 25.8789 22.5352C25.0586 22.0664 23.9863 21.832 22.6621 21.832C21.5254 21.832 20.5234 22.0488 19.6562 22.4824C18.8008 22.916 18.0801 23.5312 17.4941 24.3281C16.9199 25.125 16.4863 26.0801 16.1934 27.1934C15.9004 28.3066 15.7539 29.543 15.7539 30.9023V33.4863C15.7539 34.7402 15.8828 35.918 16.1406 37.0195C16.4102 38.1211 16.8145 39.0879 17.3535 39.9199C17.8926 40.752 18.5781 41.4082 19.4102 41.8887C20.2422 42.3574 21.2266 42.5918 22.3633 42.5918C23.8047 42.5918 24.9531 42.3633 25.8086 41.9062C26.6641 41.4492 27.3086 40.793 27.7422 39.9375C28.1875 39.082 28.5039 38.0566 28.6914 36.8613ZM47.4121 41.748V31.957C47.4121 31.207 47.2598 30.5566 46.9551 30.0059C46.6621 29.4434 46.2168 29.0098 45.6191 28.7051C45.0215 28.4004 44.2832 28.248 43.4043 28.248C42.584 28.248 41.8633 28.3887 41.2422 28.6699C40.6328 28.9512 40.1523 29.3203 39.8008 29.7773C39.4609 30.2344 39.291 30.7266 39.291 31.2539H36.0391C36.0391 30.5742 36.2148 29.9004 36.5664 29.2324C36.918 28.5645 37.4219 27.9609 38.0781 27.4219C38.7461 26.8711 39.543 26.4375 40.4688 26.1211C41.4062 25.793 42.4492 25.6289 43.5977 25.6289C44.9805 25.6289 46.1992 25.8633 47.2539 26.332C48.3203 26.8008 49.1523 27.5098 49.75 28.459C50.3594 29.3965 50.6641 30.5742 50.6641 31.9922V40.8516C50.6641 41.4844 50.7168 42.1582 50.8223 42.873C50.9395 43.5879 51.1094 44.2031 51.332 44.7188V45H47.9395C47.7754 44.625 47.6465 44.127 47.5527 43.5059C47.459 42.873 47.4121 42.2871 47.4121 41.748ZM47.9746 33.4688L48.0098 35.7539H44.7227C43.7969 35.7539 42.9707 35.8301 42.2441 35.9824C41.5176 36.123 40.9082 36.3398 40.416 36.6328C39.9238 36.9258 39.5488 37.2949 39.291 37.7402C39.0332 38.1738 38.9043 38.6836 38.9043 39.2695C38.9043 39.8672 39.0391 40.4121 39.3086 40.9043C39.5781 41.3965 39.9824 41.7891 40.5215 42.082C41.0723 42.3633 41.7461 42.5039 42.543 42.5039C43.5391 42.5039 44.418 42.293 45.1797 41.8711C45.9414 41.4492 46.5449 40.9336 46.9902 40.3242C47.4473 39.7148 47.6934 39.123 47.7285 38.5488L49.1172 40.1133C49.0352 40.6055 48.8125 41.1504 48.4492 41.748C48.0859 42.3457 47.5996 42.9199 46.9902 43.4707C46.3926 44.0098 45.6777 44.4609 44.8457 44.8242C44.0254 45.1758 43.0996 45.3516 42.0684 45.3516C40.7793 45.3516 39.6484 45.0996 38.6758 44.5957C37.7148 44.0918 36.9648 43.418 36.4258 42.5742C35.8984 41.7188 35.6348 40.7637 35.6348 39.709C35.6348 38.6895 35.834 37.793 36.2324 37.0195C36.6309 36.2344 37.2051 35.584 37.9551 35.0684C38.7051 34.541 39.6074 34.1426 40.6621 33.873C41.7168 33.6035 42.8945 33.4688 44.1953 33.4688H47.9746ZM63.7422 25.9805V28.4766H53.459V25.9805H63.7422ZM56.9395 21.3574H60.1914V40.2891C60.1914 40.9336 60.291 41.4199 60.4902 41.748C60.6895 42.0762 60.9473 42.293 61.2637 42.3984C61.5801 42.5039 61.9199 42.5566 62.2832 42.5566C62.5527 42.5566 62.834 42.5332 63.127 42.4863C63.4316 42.4277 63.6602 42.3809 63.8125 42.3457L63.8301 45C63.5723 45.082 63.2324 45.1582 62.8105 45.2285C62.4004 45.3105 61.9023 45.3516 61.3164 45.3516C60.5195 45.3516 59.7871 45.1934 59.1191 44.877C58.4512 44.5605 57.918 44.0332 57.5195 43.2949C57.1328 42.5449 56.9395 41.5371 56.9395 40.2715V21.3574ZM75.4492 45.3516C74.125 45.3516 72.9238 45.1289 71.8457 44.6836C70.7793 44.2266 69.8594 43.5879 69.0859 42.7676C68.3242 41.9473 67.7383 40.9746 67.3281 39.8496C66.918 38.7246 66.7129 37.4941 66.7129 36.1582V35.4199C66.7129 33.873 66.9414 32.4961 67.3984 31.2891C67.8555 30.0703 68.4766 29.0391 69.2617 28.1953C70.0469 27.3516 70.9375 26.7129 71.9336 26.2793C72.9297 25.8457 73.9609 25.6289 75.0273 25.6289C76.3867 25.6289 77.5586 25.8633 78.543 26.332C79.5391 26.8008 80.3535 27.457 80.9863 28.3008C81.6191 29.1328 82.0879 30.1172 82.3926 31.2539C82.6973 32.3789 82.8496 33.6094 82.8496 34.9453V36.4043H68.6465V33.75H79.5977V33.5039C79.5508 32.6602 79.375 31.8398 79.0703 31.043C78.7773 30.2461 78.3086 29.5898 77.6641 29.0742C77.0195 28.5586 76.1406 28.3008 75.0273 28.3008C74.2891 28.3008 73.6094 28.459 72.9883 28.7754C72.3672 29.0801 71.834 29.5371 71.3887 30.1465C70.9434 30.7559 70.5977 31.5 70.3516 32.3789C70.1055 33.2578 69.9824 34.2715 69.9824 35.4199V36.1582C69.9824 37.0605 70.1055 37.9102 70.3516 38.707C70.6094 39.4922 70.9785 40.1836 71.459 40.7812C71.9512 41.3789 72.543 41.8477 73.2344 42.1875C73.9375 42.5273 74.7344 42.6973 75.625 42.6973C76.7734 42.6973 77.7461 42.4629 78.543 41.9941C79.3398 41.5254 80.0371 40.8984 80.6348 40.1133L82.6035 41.6777C82.1934 42.2988 81.6719 42.8906 81.0391 43.4531C80.4062 44.0156 79.627 44.4727 78.7012 44.8242C77.7871 45.1758 76.7031 45.3516 75.4492 45.3516ZM98.9688 25.9805H101.922V44.5957C101.922 46.2715 101.582 47.7012 100.902 48.8848C100.223 50.0684 99.2734 50.9648 98.0547 51.5742C96.8477 52.1953 95.4531 52.5059 93.8711 52.5059C93.2148 52.5059 92.4414 52.4004 91.5508 52.1895C90.6719 51.9902 89.8047 51.6445 88.9492 51.1523C88.1055 50.6719 87.3965 50.0215 86.8223 49.2012L88.5273 47.2676C89.3242 48.2285 90.1562 48.8965 91.0234 49.2715C91.9023 49.6465 92.7695 49.834 93.625 49.834C94.6562 49.834 95.5469 49.6406 96.2969 49.2539C97.0469 48.8672 97.627 48.293 98.0371 47.5312C98.459 46.7812 98.6699 45.8555 98.6699 44.7539V30.1641L98.9688 25.9805ZM85.873 35.7012V35.332C85.873 33.8789 86.043 32.5605 86.3828 31.377C86.7344 30.1816 87.2324 29.1562 87.877 28.3008C88.5332 27.4453 89.3242 26.7891 90.25 26.332C91.1758 25.8633 92.2188 25.6289 93.3789 25.6289C94.5742 25.6289 95.6172 25.8398 96.5078 26.2617C97.4102 26.6719 98.1719 27.2754 98.793 28.0723C99.4258 28.8574 99.9238 29.8066 100.287 30.9199C100.65 32.0332 100.902 33.293 101.043 34.6992V36.3164C100.914 37.7109 100.662 38.9648 100.287 40.0781C99.9238 41.1914 99.4258 42.1406 98.793 42.9258C98.1719 43.7109 97.4102 44.3145 96.5078 44.7363C95.6055 45.1465 94.5508 45.3516 93.3438 45.3516C92.207 45.3516 91.1758 45.1113 90.25 44.6309C89.3359 44.1504 88.5508 43.4766 87.8945 42.6094C87.2383 41.7422 86.7344 40.7227 86.3828 39.5508C86.043 38.3672 85.873 37.084 85.873 35.7012ZM89.125 35.332V35.7012C89.125 36.6504 89.2188 37.541 89.4062 38.373C89.6055 39.2051 89.9043 39.9375 90.3027 40.5703C90.7129 41.2031 91.2344 41.7012 91.8672 42.0645C92.5 42.416 93.2559 42.5918 94.1348 42.5918C95.2129 42.5918 96.1035 42.3633 96.8066 41.9062C97.5098 41.4492 98.0664 40.8457 98.4766 40.0957C98.8984 39.3457 99.2266 38.5312 99.4609 37.6523V33.416C99.332 32.7715 99.1328 32.1504 98.8633 31.5527C98.6055 30.9434 98.2656 30.4043 97.8438 29.9355C97.4336 29.4551 96.9238 29.0742 96.3145 28.793C95.7051 28.5117 94.9902 28.3711 94.1699 28.3711C93.2793 28.3711 92.5117 28.5586 91.8672 28.9336C91.2344 29.2969 90.7129 29.8008 90.3027 30.4453C89.9043 31.0781 89.6055 31.8164 89.4062 32.6602C89.2188 33.4922 89.125 34.3828 89.125 35.332ZM106 35.7012V35.2969C106 33.9258 106.199 32.6543 106.598 31.4824C106.996 30.2988 107.57 29.2734 108.32 28.4062C109.07 27.5273 109.979 26.8477 111.045 26.3672C112.111 25.875 113.307 25.6289 114.631 25.6289C115.967 25.6289 117.168 25.875 118.234 26.3672C119.312 26.8477 120.227 27.5273 120.977 28.4062C121.738 29.2734 122.318 30.2988 122.717 31.4824C123.115 32.6543 123.314 33.9258 123.314 35.2969V35.7012C123.314 37.0723 123.115 38.3438 122.717 39.5156C122.318 40.6875 121.738 41.7129 120.977 42.5918C120.227 43.459 119.318 44.1387 118.252 44.6309C117.197 45.1113 116.002 45.3516 114.666 45.3516C113.33 45.3516 112.129 45.1113 111.062 44.6309C109.996 44.1387 109.082 43.459 108.32 42.5918C107.57 41.7129 106.996 40.6875 106.598 39.5156C106.199 38.3438 106 37.0723 106 35.7012ZM109.252 35.2969V35.7012C109.252 36.6504 109.363 37.5469 109.586 38.3906C109.809 39.2227 110.143 39.9609 110.588 40.6055C111.045 41.25 111.613 41.7598 112.293 42.1348C112.973 42.498 113.764 42.6797 114.666 42.6797C115.557 42.6797 116.336 42.498 117.004 42.1348C117.684 41.7598 118.246 41.25 118.691 40.6055C119.137 39.9609 119.471 39.2227 119.693 38.3906C119.928 37.5469 120.045 36.6504 120.045 35.7012V35.2969C120.045 34.3594 119.928 33.4746 119.693 32.6426C119.471 31.7988 119.131 31.0547 118.674 30.4102C118.229 29.7539 117.666 29.2383 116.986 28.8633C116.318 28.4883 115.533 28.3008 114.631 28.3008C113.74 28.3008 112.955 28.4883 112.275 28.8633C111.607 29.2383 111.045 29.7539 110.588 30.4102C110.143 31.0547 109.809 31.7988 109.586 32.6426C109.363 33.4746 109.252 34.3594 109.252 35.2969ZM130.645 28.9688V45H127.393V25.9805H130.557L130.645 28.9688ZM136.586 25.875L136.568 28.8984C136.299 28.8398 136.041 28.8047 135.795 28.793C135.561 28.7695 135.291 28.7578 134.986 28.7578C134.236 28.7578 133.574 28.875 133 29.1094C132.426 29.3438 131.939 29.6719 131.541 30.0938C131.143 30.5156 130.826 31.0195 130.592 31.6055C130.369 32.1797 130.223 32.8125 130.152 33.5039L129.238 34.0312C129.238 32.8828 129.35 31.8047 129.572 30.7969C129.807 29.7891 130.164 28.8984 130.645 28.125C131.125 27.3398 131.734 26.7305 132.473 26.2969C133.223 25.8516 134.113 25.6289 135.145 25.6289C135.379 25.6289 135.648 25.6582 135.953 25.7168C136.258 25.7637 136.469 25.8164 136.586 25.875ZM145.252 43.0312L150.543 25.9805H154.023L146.395 47.9355C146.219 48.4043 145.984 48.9082 145.691 49.4473C145.41 49.998 145.047 50.5195 144.602 51.0117C144.156 51.5039 143.617 51.9023 142.984 52.207C142.363 52.5234 141.619 52.6816 140.752 52.6816C140.494 52.6816 140.166 52.6465 139.768 52.5762C139.369 52.5059 139.088 52.4473 138.924 52.4004L138.906 49.7637C139 49.7754 139.146 49.7871 139.346 49.7988C139.557 49.8223 139.703 49.834 139.785 49.834C140.523 49.834 141.15 49.7344 141.666 49.5352C142.182 49.3477 142.615 49.0254 142.967 48.5684C143.33 48.123 143.641 47.5078 143.898 46.7227L145.252 43.0312ZM141.367 25.9805L146.307 40.7461L147.15 44.1738L144.812 45.3691L137.816 25.9805H141.367ZM167.295 19.2656V45H164.043V23.3262L157.486 25.7168V22.7812L166.785 19.2656H167.295Z" fill="black"/>
<path d="M313.691 47.8613H317.066C316.891 49.4785 316.428 50.9258 315.678 52.2031C314.928 53.4805 313.867 54.4941 312.496 55.2441C311.125 55.9824 309.414 56.3516 307.363 56.3516C305.863 56.3516 304.498 56.0703 303.268 55.5078C302.049 54.9453 301 54.1484 300.121 53.1172C299.242 52.0742 298.562 50.8262 298.082 49.373C297.613 47.9082 297.379 46.2793 297.379 44.4863V41.9375C297.379 40.1445 297.613 38.5215 298.082 37.0684C298.562 35.6035 299.248 34.3496 300.139 33.3066C301.041 32.2637 302.125 31.4609 303.391 30.8984C304.656 30.3359 306.08 30.0547 307.662 30.0547C309.596 30.0547 311.23 30.418 312.566 31.1445C313.902 31.8711 314.939 32.8789 315.678 34.168C316.428 35.4453 316.891 36.9277 317.066 38.6152H313.691C313.527 37.4199 313.223 36.3945 312.777 35.5391C312.332 34.6719 311.699 34.0039 310.879 33.5352C310.059 33.0664 308.986 32.832 307.662 32.832C306.525 32.832 305.523 33.0488 304.656 33.4824C303.801 33.916 303.08 34.5312 302.494 35.3281C301.92 36.125 301.486 37.0801 301.193 38.1934C300.9 39.3066 300.754 40.543 300.754 41.9023V44.4863C300.754 45.7402 300.883 46.918 301.141 48.0195C301.41 49.1211 301.814 50.0879 302.354 50.9199C302.893 51.752 303.578 52.4082 304.41 52.8887C305.242 53.3574 306.227 53.5918 307.363 53.5918C308.805 53.5918 309.953 53.3633 310.809 52.9062C311.664 52.4492 312.309 51.793 312.742 50.9375C313.188 50.082 313.504 49.0566 313.691 47.8613ZM332.412 52.748V42.957C332.412 42.207 332.26 41.5566 331.955 41.0059C331.662 40.4434 331.217 40.0098 330.619 39.7051C330.021 39.4004 329.283 39.248 328.404 39.248C327.584 39.248 326.863 39.3887 326.242 39.6699C325.633 39.9512 325.152 40.3203 324.801 40.7773C324.461 41.2344 324.291 41.7266 324.291 42.2539H321.039C321.039 41.5742 321.215 40.9004 321.566 40.2324C321.918 39.5645 322.422 38.9609 323.078 38.4219C323.746 37.8711 324.543 37.4375 325.469 37.1211C326.406 36.793 327.449 36.6289 328.598 36.6289C329.98 36.6289 331.199 36.8633 332.254 37.332C333.32 37.8008 334.152 38.5098 334.75 39.459C335.359 40.3965 335.664 41.5742 335.664 42.9922V51.8516C335.664 52.4844 335.717 53.1582 335.822 53.873C335.939 54.5879 336.109 55.2031 336.332 55.7188V56H332.939C332.775 55.625 332.646 55.127 332.553 54.5059C332.459 53.873 332.412 53.2871 332.412 52.748ZM332.975 44.4688L333.01 46.7539H329.723C328.797 46.7539 327.971 46.8301 327.244 46.9824C326.518 47.123 325.908 47.3398 325.416 47.6328C324.924 47.9258 324.549 48.2949 324.291 48.7402C324.033 49.1738 323.904 49.6836 323.904 50.2695C323.904 50.8672 324.039 51.4121 324.309 51.9043C324.578 52.3965 324.982 52.7891 325.521 53.082C326.072 53.3633 326.746 53.5039 327.543 53.5039C328.539 53.5039 329.418 53.293 330.18 52.8711C330.941 52.4492 331.545 51.9336 331.99 51.3242C332.447 50.7148 332.693 50.123 332.729 49.5488L334.117 51.1133C334.035 51.6055 333.812 52.1504 333.449 52.748C333.086 53.3457 332.6 53.9199 331.99 54.4707C331.393 55.0098 330.678 55.4609 329.846 55.8242C329.025 56.1758 328.1 56.3516 327.068 56.3516C325.779 56.3516 324.648 56.0996 323.676 55.5957C322.715 55.0918 321.965 54.418 321.426 53.5742C320.898 52.7188 320.635 51.7637 320.635 50.709C320.635 49.6895 320.834 48.793 321.232 48.0195C321.631 47.2344 322.205 46.584 322.955 46.0684C323.705 45.541 324.607 45.1426 325.662 44.873C326.717 44.6035 327.895 44.4688 329.195 44.4688H332.975ZM348.742 36.9805V39.4766H338.459V36.9805H348.742ZM341.939 32.3574H345.191V51.2891C345.191 51.9336 345.291 52.4199 345.49 52.748C345.689 53.0762 345.947 53.293 346.264 53.3984C346.58 53.5039 346.92 53.5566 347.283 53.5566C347.553 53.5566 347.834 53.5332 348.127 53.4863C348.432 53.4277 348.66 53.3809 348.812 53.3457L348.83 56C348.572 56.082 348.232 56.1582 347.811 56.2285C347.4 56.3105 346.902 56.3516 346.316 56.3516C345.52 56.3516 344.787 56.1934 344.119 55.877C343.451 55.5605 342.918 55.0332 342.52 54.2949C342.133 53.5449 341.939 52.5371 341.939 51.2715V32.3574ZM360.449 56.3516C359.125 56.3516 357.924 56.1289 356.846 55.6836C355.779 55.2266 354.859 54.5879 354.086 53.7676C353.324 52.9473 352.738 51.9746 352.328 50.8496C351.918 49.7246 351.713 48.4941 351.713 47.1582V46.4199C351.713 44.873 351.941 43.4961 352.398 42.2891C352.855 41.0703 353.477 40.0391 354.262 39.1953C355.047 38.3516 355.938 37.7129 356.934 37.2793C357.93 36.8457 358.961 36.6289 360.027 36.6289C361.387 36.6289 362.559 36.8633 363.543 37.332C364.539 37.8008 365.354 38.457 365.986 39.3008C366.619 40.1328 367.088 41.1172 367.393 42.2539C367.697 43.3789 367.85 44.6094 367.85 45.9453V47.4043H353.646V44.75H364.598V44.5039C364.551 43.6602 364.375 42.8398 364.07 42.043C363.777 41.2461 363.309 40.5898 362.664 40.0742C362.02 39.5586 361.141 39.3008 360.027 39.3008C359.289 39.3008 358.609 39.459 357.988 39.7754C357.367 40.0801 356.834 40.5371 356.389 41.1465C355.943 41.7559 355.598 42.5 355.352 43.3789C355.105 44.2578 354.982 45.2715 354.982 46.4199V47.1582C354.982 48.0605 355.105 48.9102 355.352 49.707C355.609 50.4922 355.979 51.1836 356.459 51.7812C356.951 52.3789 357.543 52.8477 358.234 53.1875C358.938 53.5273 359.734 53.6973 360.625 53.6973C361.773 53.6973 362.746 53.4629 363.543 52.9941C364.34 52.5254 365.037 51.8984 365.635 51.1133L367.604 52.6777C367.193 53.2988 366.672 53.8906 366.039 54.4531C365.406 55.0156 364.627 55.4727 363.701 55.8242C362.787 56.1758 361.703 56.3516 360.449 56.3516ZM383.969 36.9805H386.922V55.5957C386.922 57.2715 386.582 58.7012 385.902 59.8848C385.223 61.0684 384.273 61.9648 383.055 62.5742C381.848 63.1953 380.453 63.5059 378.871 63.5059C378.215 63.5059 377.441 63.4004 376.551 63.1895C375.672 62.9902 374.805 62.6445 373.949 62.1523C373.105 61.6719 372.396 61.0215 371.822 60.2012L373.527 58.2676C374.324 59.2285 375.156 59.8965 376.023 60.2715C376.902 60.6465 377.77 60.834 378.625 60.834C379.656 60.834 380.547 60.6406 381.297 60.2539C382.047 59.8672 382.627 59.293 383.037 58.5312C383.459 57.7812 383.67 56.8555 383.67 55.7539V41.1641L383.969 36.9805ZM370.873 46.7012V46.332C370.873 44.8789 371.043 43.5605 371.383 42.377C371.734 41.1816 372.232 40.1562 372.877 39.3008C373.533 38.4453 374.324 37.7891 375.25 37.332C376.176 36.8633 377.219 36.6289 378.379 36.6289C379.574 36.6289 380.617 36.8398 381.508 37.2617C382.41 37.6719 383.172 38.2754 383.793 39.0723C384.426 39.8574 384.924 40.8066 385.287 41.9199C385.65 43.0332 385.902 44.293 386.043 45.6992V47.3164C385.914 48.7109 385.662 49.9648 385.287 51.0781C384.924 52.1914 384.426 53.1406 383.793 53.9258C383.172 54.7109 382.41 55.3145 381.508 55.7363C380.605 56.1465 379.551 56.3516 378.344 56.3516C377.207 56.3516 376.176 56.1113 375.25 55.6309C374.336 55.1504 373.551 54.4766 372.895 53.6094C372.238 52.7422 371.734 51.7227 371.383 50.5508C371.043 49.3672 370.873 48.084 370.873 46.7012ZM374.125 46.332V46.7012C374.125 47.6504 374.219 48.541 374.406 49.373C374.605 50.2051 374.904 50.9375 375.303 51.5703C375.713 52.2031 376.234 52.7012 376.867 53.0645C377.5 53.416 378.256 53.5918 379.135 53.5918C380.213 53.5918 381.104 53.3633 381.807 52.9062C382.51 52.4492 383.066 51.8457 383.477 51.0957C383.898 50.3457 384.227 49.5312 384.461 48.6523V44.416C384.332 43.7715 384.133 43.1504 383.863 42.5527C383.605 41.9434 383.266 41.4043 382.844 40.9355C382.434 40.4551 381.924 40.0742 381.314 39.793C380.705 39.5117 379.99 39.3711 379.17 39.3711C378.279 39.3711 377.512 39.5586 376.867 39.9336C376.234 40.2969 375.713 40.8008 375.303 41.4453C374.904 42.0781 374.605 42.8164 374.406 43.6602C374.219 44.4922 374.125 45.3828 374.125 46.332ZM391 46.7012V46.2969C391 44.9258 391.199 43.6543 391.598 42.4824C391.996 41.2988 392.57 40.2734 393.32 39.4062C394.07 38.5273 394.979 37.8477 396.045 37.3672C397.111 36.875 398.307 36.6289 399.631 36.6289C400.967 36.6289 402.168 36.875 403.234 37.3672C404.312 37.8477 405.227 38.5273 405.977 39.4062C406.738 40.2734 407.318 41.2988 407.717 42.4824C408.115 43.6543 408.314 44.9258 408.314 46.2969V46.7012C408.314 48.0723 408.115 49.3438 407.717 50.5156C407.318 51.6875 406.738 52.7129 405.977 53.5918C405.227 54.459 404.318 55.1387 403.252 55.6309C402.197 56.1113 401.002 56.3516 399.666 56.3516C398.33 56.3516 397.129 56.1113 396.062 55.6309C394.996 55.1387 394.082 54.459 393.32 53.5918C392.57 52.7129 391.996 51.6875 391.598 50.5156C391.199 49.3438 391 48.0723 391 46.7012ZM394.252 46.2969V46.7012C394.252 47.6504 394.363 48.5469 394.586 49.3906C394.809 50.2227 395.143 50.9609 395.588 51.6055C396.045 52.25 396.613 52.7598 397.293 53.1348C397.973 53.498 398.764 53.6797 399.666 53.6797C400.557 53.6797 401.336 53.498 402.004 53.1348C402.684 52.7598 403.246 52.25 403.691 51.6055C404.137 50.9609 404.471 50.2227 404.693 49.3906C404.928 48.5469 405.045 47.6504 405.045 46.7012V46.2969C405.045 45.3594 404.928 44.4746 404.693 43.6426C404.471 42.7988 404.131 42.0547 403.674 41.4102C403.229 40.7539 402.666 40.2383 401.986 39.8633C401.318 39.4883 400.533 39.3008 399.631 39.3008C398.74 39.3008 397.955 39.4883 397.275 39.8633C396.607 40.2383 396.045 40.7539 395.588 41.4102C395.143 42.0547 394.809 42.7988 394.586 43.6426C394.363 44.4746 394.252 45.3594 394.252 46.2969ZM415.645 39.9688V56H412.393V36.9805H415.557L415.645 39.9688ZM421.586 36.875L421.568 39.8984C421.299 39.8398 421.041 39.8047 420.795 39.793C420.561 39.7695 420.291 39.7578 419.986 39.7578C419.236 39.7578 418.574 39.875 418 40.1094C417.426 40.3438 416.939 40.6719 416.541 41.0938C416.143 41.5156 415.826 42.0195 415.592 42.6055C415.369 43.1797 415.223 43.8125 415.152 44.5039L414.238 45.0312C414.238 43.8828 414.35 42.8047 414.572 41.7969C414.807 40.7891 415.164 39.8984 415.645 39.125C416.125 38.3398 416.734 37.7305 417.473 37.2969C418.223 36.8516 419.113 36.6289 420.145 36.6289C420.379 36.6289 420.648 36.6582 420.953 36.7168C421.258 36.7637 421.469 36.8164 421.586 36.875ZM430.252 54.0312L435.543 36.9805H439.023L431.395 58.9355C431.219 59.4043 430.984 59.9082 430.691 60.4473C430.41 60.998 430.047 61.5195 429.602 62.0117C429.156 62.5039 428.617 62.9023 427.984 63.207C427.363 63.5234 426.619 63.6816 425.752 63.6816C425.494 63.6816 425.166 63.6465 424.768 63.5762C424.369 63.5059 424.088 63.4473 423.924 63.4004L423.906 60.7637C424 60.7754 424.146 60.7871 424.346 60.7988C424.557 60.8223 424.703 60.834 424.785 60.834C425.523 60.834 426.15 60.7344 426.666 60.5352C427.182 60.3477 427.615 60.0254 427.967 59.5684C428.33 59.123 428.641 58.5078 428.898 57.7227L430.252 54.0312ZM426.367 36.9805L431.307 51.7461L432.15 55.1738L429.812 56.3691L422.816 36.9805H426.367ZM458.377 53.3281V56H441.625V53.6621L450.01 44.3281C451.041 43.1797 451.838 42.207 452.4 41.4102C452.975 40.6016 453.373 39.8809 453.596 39.248C453.83 38.6035 453.947 37.9473 453.947 37.2793C453.947 36.4355 453.771 35.6738 453.42 34.9941C453.08 34.3027 452.576 33.752 451.908 33.3418C451.24 32.9316 450.432 32.7266 449.482 32.7266C448.346 32.7266 447.396 32.9492 446.635 33.3945C445.885 33.8281 445.322 34.4375 444.947 35.2227C444.572 36.0078 444.385 36.9102 444.385 37.9297H441.133C441.133 36.4883 441.449 35.1699 442.082 33.9746C442.715 32.7793 443.652 31.8301 444.895 31.127C446.137 30.4121 447.666 30.0547 449.482 30.0547C451.1 30.0547 452.482 30.3418 453.631 30.916C454.779 31.4785 455.658 32.2754 456.268 33.3066C456.889 34.3262 457.199 35.5215 457.199 36.8926C457.199 37.6426 457.07 38.4043 456.812 39.1777C456.566 39.9395 456.221 40.7012 455.775 41.4629C455.342 42.2246 454.832 42.9746 454.246 43.7129C453.672 44.4512 453.057 45.1777 452.4 45.8926L445.545 53.3281H458.377Z" fill="black"/>
<path d="M598.691 38.8613H602.066C601.891 40.4785 601.428 41.9258 600.678 43.2031C599.928 44.4805 598.867 45.4941 597.496 46.2441C596.125 46.9824 594.414 47.3516 592.363 47.3516C590.863 47.3516 589.498 47.0703 588.268 46.5078C587.049 45.9453 586 45.1484 585.121 44.1172C584.242 43.0742 583.562 41.8262 583.082 40.373C582.613 38.9082 582.379 37.2793 582.379 35.4863V32.9375C582.379 31.1445 582.613 29.5215 583.082 28.0684C583.562 26.6035 584.248 25.3496 585.139 24.3066C586.041 23.2637 587.125 22.4609 588.391 21.8984C589.656 21.3359 591.08 21.0547 592.662 21.0547C594.596 21.0547 596.23 21.418 597.566 22.1445C598.902 22.8711 599.939 23.8789 600.678 25.168C601.428 26.4453 601.891 27.9277 602.066 29.6152H598.691C598.527 28.4199 598.223 27.3945 597.777 26.5391C597.332 25.6719 596.699 25.0039 595.879 24.5352C595.059 24.0664 593.986 23.832 592.662 23.832C591.525 23.832 590.523 24.0488 589.656 24.4824C588.801 24.916 588.08 25.5312 587.494 26.3281C586.92 27.125 586.486 28.0801 586.193 29.1934C585.9 30.3066 585.754 31.543 585.754 32.9023V35.4863C585.754 36.7402 585.883 37.918 586.141 39.0195C586.41 40.1211 586.814 41.0879 587.354 41.9199C587.893 42.752 588.578 43.4082 589.41 43.8887C590.242 44.3574 591.227 44.5918 592.363 44.5918C593.805 44.5918 594.953 44.3633 595.809 43.9062C596.664 43.4492 597.309 42.793 597.742 41.9375C598.188 41.082 598.504 40.0566 598.691 38.8613ZM617.412 43.748V33.957C617.412 33.207 617.26 32.5566 616.955 32.0059C616.662 31.4434 616.217 31.0098 615.619 30.7051C615.021 30.4004 614.283 30.248 613.404 30.248C612.584 30.248 611.863 30.3887 611.242 30.6699C610.633 30.9512 610.152 31.3203 609.801 31.7773C609.461 32.2344 609.291 32.7266 609.291 33.2539H606.039C606.039 32.5742 606.215 31.9004 606.566 31.2324C606.918 30.5645 607.422 29.9609 608.078 29.4219C608.746 28.8711 609.543 28.4375 610.469 28.1211C611.406 27.793 612.449 27.6289 613.598 27.6289C614.98 27.6289 616.199 27.8633 617.254 28.332C618.32 28.8008 619.152 29.5098 619.75 30.459C620.359 31.3965 620.664 32.5742 620.664 33.9922V42.8516C620.664 43.4844 620.717 44.1582 620.822 44.873C620.939 45.5879 621.109 46.2031 621.332 46.7188V47H617.939C617.775 46.625 617.646 46.127 617.553 45.5059C617.459 44.873 617.412 44.2871 617.412 43.748ZM617.975 35.4688L618.01 37.7539H614.723C613.797 37.7539 612.971 37.8301 612.244 37.9824C611.518 38.123 610.908 38.3398 610.416 38.6328C609.924 38.9258 609.549 39.2949 609.291 39.7402C609.033 40.1738 608.904 40.6836 608.904 41.2695C608.904 41.8672 609.039 42.4121 609.309 42.9043C609.578 43.3965 609.982 43.7891 610.521 44.082C611.072 44.3633 611.746 44.5039 612.543 44.5039C613.539 44.5039 614.418 44.293 615.18 43.8711C615.941 43.4492 616.545 42.9336 616.99 42.3242C617.447 41.7148 617.693 41.123 617.729 40.5488L619.117 42.1133C619.035 42.6055 618.812 43.1504 618.449 43.748C618.086 44.3457 617.6 44.9199 616.99 45.4707C616.393 46.0098 615.678 46.4609 614.846 46.8242C614.025 47.1758 613.1 47.3516 612.068 47.3516C610.779 47.3516 609.648 47.0996 608.676 46.5957C607.715 46.0918 606.965 45.418 606.426 44.5742C605.898 43.7188 605.635 42.7637 605.635 41.709C605.635 40.6895 605.834 39.793 606.232 39.0195C606.631 38.2344 607.205 37.584 607.955 37.0684C608.705 36.541 609.607 36.1426 610.662 35.873C611.717 35.6035 612.895 35.4688 614.195 35.4688H617.975ZM633.742 27.9805V30.4766H623.459V27.9805H633.742ZM626.939 23.3574H630.191V42.2891C630.191 42.9336 630.291 43.4199 630.49 43.748C630.689 44.0762 630.947 44.293 631.264 44.3984C631.58 44.5039 631.92 44.5566 632.283 44.5566C632.553 44.5566 632.834 44.5332 633.127 44.4863C633.432 44.4277 633.66 44.3809 633.812 44.3457L633.83 47C633.572 47.082 633.232 47.1582 632.811 47.2285C632.4 47.3105 631.902 47.3516 631.316 47.3516C630.52 47.3516 629.787 47.1934 629.119 46.877C628.451 46.5605 627.918 46.0332 627.52 45.2949C627.133 44.5449 626.939 43.5371 626.939 42.2715V23.3574ZM645.449 47.3516C644.125 47.3516 642.924 47.1289 641.846 46.6836C640.779 46.2266 639.859 45.5879 639.086 44.7676C638.324 43.9473 637.738 42.9746 637.328 41.8496C636.918 40.7246 636.713 39.4941 636.713 38.1582V37.4199C636.713 35.873 636.941 34.4961 637.398 33.2891C637.855 32.0703 638.477 31.0391 639.262 30.1953C640.047 29.3516 640.938 28.7129 641.934 28.2793C642.93 27.8457 643.961 27.6289 645.027 27.6289C646.387 27.6289 647.559 27.8633 648.543 28.332C649.539 28.8008 650.354 29.457 650.986 30.3008C651.619 31.1328 652.088 32.1172 652.393 33.2539C652.697 34.3789 652.85 35.6094 652.85 36.9453V38.4043H638.646V35.75H649.598V35.5039C649.551 34.6602 649.375 33.8398 649.07 33.043C648.777 32.2461 648.309 31.5898 647.664 31.0742C647.02 30.5586 646.141 30.3008 645.027 30.3008C644.289 30.3008 643.609 30.459 642.988 30.7754C642.367 31.0801 641.834 31.5371 641.389 32.1465C640.943 32.7559 640.598 33.5 640.352 34.3789C640.105 35.2578 639.982 36.2715 639.982 37.4199V38.1582C639.982 39.0605 640.105 39.9102 640.352 40.707C640.609 41.4922 640.979 42.1836 641.459 42.7812C641.951 43.3789 642.543 43.8477 643.234 44.1875C643.938 44.5273 644.734 44.6973 645.625 44.6973C646.773 44.6973 647.746 44.4629 648.543 43.9941C649.34 43.5254 650.037 42.8984 650.635 42.1133L652.604 43.6777C652.193 44.2988 651.672 44.8906 651.039 45.4531C650.406 46.0156 649.627 46.4727 648.701 46.8242C647.787 47.1758 646.703 47.3516 645.449 47.3516ZM668.969 27.9805H671.922V46.5957C671.922 48.2715 671.582 49.7012 670.902 50.8848C670.223 52.0684 669.273 52.9648 668.055 53.5742C666.848 54.1953 665.453 54.5059 663.871 54.5059C663.215 54.5059 662.441 54.4004 661.551 54.1895C660.672 53.9902 659.805 53.6445 658.949 53.1523C658.105 52.6719 657.396 52.0215 656.822 51.2012L658.527 49.2676C659.324 50.2285 660.156 50.8965 661.023 51.2715C661.902 51.6465 662.77 51.834 663.625 51.834C664.656 51.834 665.547 51.6406 666.297 51.2539C667.047 50.8672 667.627 50.293 668.037 49.5312C668.459 48.7812 668.67 47.8555 668.67 46.7539V32.1641L668.969 27.9805ZM655.873 37.7012V37.332C655.873 35.8789 656.043 34.5605 656.383 33.377C656.734 32.1816 657.232 31.1562 657.877 30.3008C658.533 29.4453 659.324 28.7891 660.25 28.332C661.176 27.8633 662.219 27.6289 663.379 27.6289C664.574 27.6289 665.617 27.8398 666.508 28.2617C667.41 28.6719 668.172 29.2754 668.793 30.0723C669.426 30.8574 669.924 31.8066 670.287 32.9199C670.65 34.0332 670.902 35.293 671.043 36.6992V38.3164C670.914 39.7109 670.662 40.9648 670.287 42.0781C669.924 43.1914 669.426 44.1406 668.793 44.9258C668.172 45.7109 667.41 46.3145 666.508 46.7363C665.605 47.1465 664.551 47.3516 663.344 47.3516C662.207 47.3516 661.176 47.1113 660.25 46.6309C659.336 46.1504 658.551 45.4766 657.895 44.6094C657.238 43.7422 656.734 42.7227 656.383 41.5508C656.043 40.3672 655.873 39.084 655.873 37.7012ZM659.125 37.332V37.7012C659.125 38.6504 659.219 39.541 659.406 40.373C659.605 41.2051 659.904 41.9375 660.303 42.5703C660.713 43.2031 661.234 43.7012 661.867 44.0645C662.5 44.416 663.256 44.5918 664.135 44.5918C665.213 44.5918 666.104 44.3633 666.807 43.9062C667.51 43.4492 668.066 42.8457 668.477 42.0957C668.898 41.3457 669.227 40.5312 669.461 39.6523V35.416C669.332 34.7715 669.133 34.1504 668.863 33.5527C668.605 32.9434 668.266 32.4043 667.844 31.9355C667.434 31.4551 666.924 31.0742 666.314 30.793C665.705 30.5117 664.99 30.3711 664.17 30.3711C663.279 30.3711 662.512 30.5586 661.867 30.9336C661.234 31.2969 660.713 31.8008 660.303 32.4453C659.904 33.0781 659.605 33.8164 659.406 34.6602C659.219 35.4922 659.125 36.3828 659.125 37.332ZM676 37.7012V37.2969C676 35.9258 676.199 34.6543 676.598 33.4824C676.996 32.2988 677.57 31.2734 678.32 30.4062C679.07 29.5273 679.979 28.8477 681.045 28.3672C682.111 27.875 683.307 27.6289 684.631 27.6289C685.967 27.6289 687.168 27.875 688.234 28.3672C689.312 28.8477 690.227 29.5273 690.977 30.4062C691.738 31.2734 692.318 32.2988 692.717 33.4824C693.115 34.6543 693.314 35.9258 693.314 37.2969V37.7012C693.314 39.0723 693.115 40.3438 692.717 41.5156C692.318 42.6875 691.738 43.7129 690.977 44.5918C690.227 45.459 689.318 46.1387 688.252 46.6309C687.197 47.1113 686.002 47.3516 684.666 47.3516C683.33 47.3516 682.129 47.1113 681.062 46.6309C679.996 46.1387 679.082 45.459 678.32 44.5918C677.57 43.7129 676.996 42.6875 676.598 41.5156C676.199 40.3438 676 39.0723 676 37.7012ZM679.252 37.2969V37.7012C679.252 38.6504 679.363 39.5469 679.586 40.3906C679.809 41.2227 680.143 41.9609 680.588 42.6055C681.045 43.25 681.613 43.7598 682.293 44.1348C682.973 44.498 683.764 44.6797 684.666 44.6797C685.557 44.6797 686.336 44.498 687.004 44.1348C687.684 43.7598 688.246 43.25 688.691 42.6055C689.137 41.9609 689.471 41.2227 689.693 40.3906C689.928 39.5469 690.045 38.6504 690.045 37.7012V37.2969C690.045 36.3594 689.928 35.4746 689.693 34.6426C689.471 33.7988 689.131 33.0547 688.674 32.4102C688.229 31.7539 687.666 31.2383 686.986 30.8633C686.318 30.4883 685.533 30.3008 684.631 30.3008C683.74 30.3008 682.955 30.4883 682.275 30.8633C681.607 31.2383 681.045 31.7539 680.588 32.4102C680.143 33.0547 679.809 33.7988 679.586 34.6426C679.363 35.4746 679.252 36.3594 679.252 37.2969ZM700.645 30.9688V47H697.393V27.9805H700.557L700.645 30.9688ZM706.586 27.875L706.568 30.8984C706.299 30.8398 706.041 30.8047 705.795 30.793C705.561 30.7695 705.291 30.7578 704.986 30.7578C704.236 30.7578 703.574 30.875 703 31.1094C702.426 31.3438 701.939 31.6719 701.541 32.0938C701.143 32.5156 700.826 33.0195 700.592 33.6055C700.369 34.1797 700.223 34.8125 700.152 35.5039L699.238 36.0312C699.238 34.8828 699.35 33.8047 699.572 32.7969C699.807 31.7891 700.164 30.8984 700.645 30.125C701.125 29.3398 701.734 28.7305 702.473 28.2969C703.223 27.8516 704.113 27.6289 705.145 27.6289C705.379 27.6289 705.648 27.6582 705.953 27.7168C706.258 27.7637 706.469 27.8164 706.586 27.875ZM715.252 45.0312L720.543 27.9805H724.023L716.395 49.9355C716.219 50.4043 715.984 50.9082 715.691 51.4473C715.41 51.998 715.047 52.5195 714.602 53.0117C714.156 53.5039 713.617 53.9023 712.984 54.207C712.363 54.5234 711.619 54.6816 710.752 54.6816C710.494 54.6816 710.166 54.6465 709.768 54.5762C709.369 54.5059 709.088 54.4473 708.924 54.4004L708.906 51.7637C709 51.7754 709.146 51.7871 709.346 51.7988C709.557 51.8223 709.703 51.834 709.785 51.834C710.523 51.834 711.15 51.7344 711.666 51.5352C712.182 51.3477 712.615 51.0254 712.967 50.5684C713.33 50.123 713.641 49.5078 713.898 48.7227L715.252 45.0312ZM711.367 27.9805L716.307 42.7461L717.15 46.1738L714.812 47.3691L707.816 27.9805H711.367ZM731.354 32.6035H733.674C734.811 32.6035 735.748 32.416 736.486 32.041C737.236 31.6543 737.793 31.1328 738.156 30.4766C738.531 29.8086 738.719 29.0586 738.719 28.2266C738.719 27.2422 738.555 26.416 738.227 25.748C737.898 25.0801 737.406 24.5762 736.75 24.2363C736.094 23.8965 735.262 23.7266 734.254 23.7266C733.34 23.7266 732.531 23.9082 731.828 24.2715C731.137 24.623 730.592 25.127 730.193 25.7832C729.807 26.4395 729.613 27.2129 729.613 28.1035H726.361C726.361 26.8027 726.689 25.6191 727.346 24.5527C728.002 23.4863 728.922 22.6367 730.105 22.0039C731.301 21.3711 732.684 21.0547 734.254 21.0547C735.801 21.0547 737.154 21.3301 738.314 21.8809C739.475 22.4199 740.377 23.2285 741.021 24.3066C741.666 25.373 741.988 26.7031 741.988 28.2969C741.988 28.9414 741.836 29.6328 741.531 30.3711C741.238 31.0977 740.775 31.7773 740.143 32.4102C739.521 33.043 738.713 33.5645 737.717 33.9746C736.721 34.373 735.525 34.5723 734.131 34.5723H731.354V32.6035ZM731.354 35.2754V33.3242H734.131C735.76 33.3242 737.107 33.5176 738.174 33.9043C739.24 34.291 740.078 34.8066 740.688 35.4512C741.309 36.0957 741.742 36.8047 741.988 37.5781C742.246 38.3398 742.375 39.1016 742.375 39.8633C742.375 41.0586 742.17 42.1191 741.76 43.0449C741.361 43.9707 740.793 44.7559 740.055 45.4004C739.328 46.0449 738.473 46.5312 737.488 46.8594C736.504 47.1875 735.432 47.3516 734.271 47.3516C733.158 47.3516 732.109 47.1934 731.125 46.877C730.152 46.5605 729.291 46.1035 728.541 45.5059C727.791 44.8965 727.205 44.1523 726.783 43.2734C726.361 42.3828 726.15 41.3691 726.15 40.2324H729.402C729.402 41.123 729.596 41.9023 729.982 42.5703C730.381 43.2383 730.943 43.7598 731.67 44.1348C732.408 44.498 733.275 44.6797 734.271 44.6797C735.268 44.6797 736.123 44.5098 736.838 44.1699C737.564 43.8184 738.121 43.291 738.508 42.5879C738.906 41.8848 739.105 41 739.105 39.9336C739.105 38.8672 738.883 37.9941 738.438 37.3145C737.992 36.623 737.359 36.1133 736.539 35.7852C735.73 35.4453 734.775 35.2754 733.674 35.2754H731.354Z" fill="black"/>
<path d="M942.691 42.8613H946.066C945.891 44.4785 945.428 45.9258 944.678 47.2031C943.928 48.4805 942.867 49.4941 941.496 50.2441C940.125 50.9824 938.414 51.3516 936.363 51.3516C934.863 51.3516 933.498 51.0703 932.268 50.5078C931.049 49.9453 930 49.1484 929.121 48.1172C928.242 47.0742 927.562 45.8262 927.082 44.373C926.613 42.9082 926.379 41.2793 926.379 39.4863V36.9375C926.379 35.1445 926.613 33.5215 927.082 32.0684C927.562 30.6035 928.248 29.3496 929.139 28.3066C930.041 27.2637 931.125 26.4609 932.391 25.8984C933.656 25.3359 935.08 25.0547 936.662 25.0547C938.596 25.0547 940.23 25.418 941.566 26.1445C942.902 26.8711 943.939 27.8789 944.678 29.168C945.428 30.4453 945.891 31.9277 946.066 33.6152H942.691C942.527 32.4199 942.223 31.3945 941.777 30.5391C941.332 29.6719 940.699 29.0039 939.879 28.5352C939.059 28.0664 937.986 27.832 936.662 27.832C935.525 27.832 934.523 28.0488 933.656 28.4824C932.801 28.916 932.08 29.5312 931.494 30.3281C930.92 31.125 930.486 32.0801 930.193 33.1934C929.9 34.3066 929.754 35.543 929.754 36.9023V39.4863C929.754 40.7402 929.883 41.918 930.141 43.0195C930.41 44.1211 930.814 45.0879 931.354 45.9199C931.893 46.752 932.578 47.4082 933.41 47.8887C934.242 48.3574 935.227 48.5918 936.363 48.5918C937.805 48.5918 938.953 48.3633 939.809 47.9062C940.664 47.4492 941.309 46.793 941.742 45.9375C942.188 45.082 942.504 44.0566 942.691 42.8613ZM961.412 47.748V37.957C961.412 37.207 961.26 36.5566 960.955 36.0059C960.662 35.4434 960.217 35.0098 959.619 34.7051C959.021 34.4004 958.283 34.248 957.404 34.248C956.584 34.248 955.863 34.3887 955.242 34.6699C954.633 34.9512 954.152 35.3203 953.801 35.7773C953.461 36.2344 953.291 36.7266 953.291 37.2539H950.039C950.039 36.5742 950.215 35.9004 950.566 35.2324C950.918 34.5645 951.422 33.9609 952.078 33.4219C952.746 32.8711 953.543 32.4375 954.469 32.1211C955.406 31.793 956.449 31.6289 957.598 31.6289C958.98 31.6289 960.199 31.8633 961.254 32.332C962.32 32.8008 963.152 33.5098 963.75 34.459C964.359 35.3965 964.664 36.5742 964.664 37.9922V46.8516C964.664 47.4844 964.717 48.1582 964.822 48.873C964.939 49.5879 965.109 50.2031 965.332 50.7188V51H961.939C961.775 50.625 961.646 50.127 961.553 49.5059C961.459 48.873 961.412 48.2871 961.412 47.748ZM961.975 39.4688L962.01 41.7539H958.723C957.797 41.7539 956.971 41.8301 956.244 41.9824C955.518 42.123 954.908 42.3398 954.416 42.6328C953.924 42.9258 953.549 43.2949 953.291 43.7402C953.033 44.1738 952.904 44.6836 952.904 45.2695C952.904 45.8672 953.039 46.4121 953.309 46.9043C953.578 47.3965 953.982 47.7891 954.521 48.082C955.072 48.3633 955.746 48.5039 956.543 48.5039C957.539 48.5039 958.418 48.293 959.18 47.8711C959.941 47.4492 960.545 46.9336 960.99 46.3242C961.447 45.7148 961.693 45.123 961.729 44.5488L963.117 46.1133C963.035 46.6055 962.812 47.1504 962.449 47.748C962.086 48.3457 961.6 48.9199 960.99 49.4707C960.393 50.0098 959.678 50.4609 958.846 50.8242C958.025 51.1758 957.1 51.3516 956.068 51.3516C954.779 51.3516 953.648 51.0996 952.676 50.5957C951.715 50.0918 950.965 49.418 950.426 48.5742C949.898 47.7188 949.635 46.7637 949.635 45.709C949.635 44.6895 949.834 43.793 950.232 43.0195C950.631 42.2344 951.205 41.584 951.955 41.0684C952.705 40.541 953.607 40.1426 954.662 39.873C955.717 39.6035 956.895 39.4688 958.195 39.4688H961.975ZM977.742 31.9805V34.4766H967.459V31.9805H977.742ZM970.939 27.3574H974.191V46.2891C974.191 46.9336 974.291 47.4199 974.49 47.748C974.689 48.0762 974.947 48.293 975.264 48.3984C975.58 48.5039 975.92 48.5566 976.283 48.5566C976.553 48.5566 976.834 48.5332 977.127 48.4863C977.432 48.4277 977.66 48.3809 977.812 48.3457L977.83 51C977.572 51.082 977.232 51.1582 976.811 51.2285C976.4 51.3105 975.902 51.3516 975.316 51.3516C974.52 51.3516 973.787 51.1934 973.119 50.877C972.451 50.5605 971.918 50.0332 971.52 49.2949C971.133 48.5449 970.939 47.5371 970.939 46.2715V27.3574ZM989.449 51.3516C988.125 51.3516 986.924 51.1289 985.846 50.6836C984.779 50.2266 983.859 49.5879 983.086 48.7676C982.324 47.9473 981.738 46.9746 981.328 45.8496C980.918 44.7246 980.713 43.4941 980.713 42.1582V41.4199C980.713 39.873 980.941 38.4961 981.398 37.2891C981.855 36.0703 982.477 35.0391 983.262 34.1953C984.047 33.3516 984.938 32.7129 985.934 32.2793C986.93 31.8457 987.961 31.6289 989.027 31.6289C990.387 31.6289 991.559 31.8633 992.543 32.332C993.539 32.8008 994.354 33.457 994.986 34.3008C995.619 35.1328 996.088 36.1172 996.393 37.2539C996.697 38.3789 996.85 39.6094 996.85 40.9453V42.4043H982.646V39.75H993.598V39.5039C993.551 38.6602 993.375 37.8398 993.07 37.043C992.777 36.2461 992.309 35.5898 991.664 35.0742C991.02 34.5586 990.141 34.3008 989.027 34.3008C988.289 34.3008 987.609 34.459 986.988 34.7754C986.367 35.0801 985.834 35.5371 985.389 36.1465C984.943 36.7559 984.598 37.5 984.352 38.3789C984.105 39.2578 983.982 40.2715 983.982 41.4199V42.1582C983.982 43.0605 984.105 43.9102 984.352 44.707C984.609 45.4922 984.979 46.1836 985.459 46.7812C985.951 47.3789 986.543 47.8477 987.234 48.1875C987.938 48.5273 988.734 48.6973 989.625 48.6973C990.773 48.6973 991.746 48.4629 992.543 47.9941C993.34 47.5254 994.037 46.8984 994.635 46.1133L996.604 47.6777C996.193 48.2988 995.672 48.8906 995.039 49.4531C994.406 50.0156 993.627 50.4727 992.701 50.8242C991.787 51.1758 990.703 51.3516 989.449 51.3516ZM1012.97 31.9805H1015.92V50.5957C1015.92 52.2715 1015.58 53.7012 1014.9 54.8848C1014.22 56.0684 1013.27 56.9648 1012.05 57.5742C1010.85 58.1953 1009.45 58.5059 1007.87 58.5059C1007.21 58.5059 1006.44 58.4004 1005.55 58.1895C1004.67 57.9902 1003.8 57.6445 1002.95 57.1523C1002.11 56.6719 1001.4 56.0215 1000.82 55.2012L1002.53 53.2676C1003.32 54.2285 1004.16 54.8965 1005.02 55.2715C1005.9 55.6465 1006.77 55.834 1007.62 55.834C1008.66 55.834 1009.55 55.6406 1010.3 55.2539C1011.05 54.8672 1011.63 54.293 1012.04 53.5312C1012.46 52.7812 1012.67 51.8555 1012.67 50.7539V36.1641L1012.97 31.9805ZM999.873 41.7012V41.332C999.873 39.8789 1000.04 38.5605 1000.38 37.377C1000.73 36.1816 1001.23 35.1562 1001.88 34.3008C1002.53 33.4453 1003.32 32.7891 1004.25 32.332C1005.18 31.8633 1006.22 31.6289 1007.38 31.6289C1008.57 31.6289 1009.62 31.8398 1010.51 32.2617C1011.41 32.6719 1012.17 33.2754 1012.79 34.0723C1013.43 34.8574 1013.92 35.8066 1014.29 36.9199C1014.65 38.0332 1014.9 39.293 1015.04 40.6992V42.3164C1014.91 43.7109 1014.66 44.9648 1014.29 46.0781C1013.92 47.1914 1013.43 48.1406 1012.79 48.9258C1012.17 49.7109 1011.41 50.3145 1010.51 50.7363C1009.61 51.1465 1008.55 51.3516 1007.34 51.3516C1006.21 51.3516 1005.18 51.1113 1004.25 50.6309C1003.34 50.1504 1002.55 49.4766 1001.89 48.6094C1001.24 47.7422 1000.73 46.7227 1000.38 45.5508C1000.04 44.3672 999.873 43.084 999.873 41.7012ZM1003.12 41.332V41.7012C1003.12 42.6504 1003.22 43.541 1003.41 44.373C1003.61 45.2051 1003.9 45.9375 1004.3 46.5703C1004.71 47.2031 1005.23 47.7012 1005.87 48.0645C1006.5 48.416 1007.26 48.5918 1008.13 48.5918C1009.21 48.5918 1010.1 48.3633 1010.81 47.9062C1011.51 47.4492 1012.07 46.8457 1012.48 46.0957C1012.9 45.3457 1013.23 44.5312 1013.46 43.6523V39.416C1013.33 38.7715 1013.13 38.1504 1012.86 37.5527C1012.61 36.9434 1012.27 36.4043 1011.84 35.9355C1011.43 35.4551 1010.92 35.0742 1010.31 34.793C1009.71 34.5117 1008.99 34.3711 1008.17 34.3711C1007.28 34.3711 1006.51 34.5586 1005.87 34.9336C1005.23 35.2969 1004.71 35.8008 1004.3 36.4453C1003.9 37.0781 1003.61 37.8164 1003.41 38.6602C1003.22 39.4922 1003.12 40.3828 1003.12 41.332ZM1020 41.7012V41.2969C1020 39.9258 1020.2 38.6543 1020.6 37.4824C1021 36.2988 1021.57 35.2734 1022.32 34.4062C1023.07 33.5273 1023.98 32.8477 1025.04 32.3672C1026.11 31.875 1027.31 31.6289 1028.63 31.6289C1029.97 31.6289 1031.17 31.875 1032.23 32.3672C1033.31 32.8477 1034.23 33.5273 1034.98 34.4062C1035.74 35.2734 1036.32 36.2988 1036.72 37.4824C1037.12 38.6543 1037.31 39.9258 1037.31 41.2969V41.7012C1037.31 43.0723 1037.12 44.3438 1036.72 45.5156C1036.32 46.6875 1035.74 47.7129 1034.98 48.5918C1034.23 49.459 1033.32 50.1387 1032.25 50.6309C1031.2 51.1113 1030 51.3516 1028.67 51.3516C1027.33 51.3516 1026.13 51.1113 1025.06 50.6309C1024 50.1387 1023.08 49.459 1022.32 48.5918C1021.57 47.7129 1021 46.6875 1020.6 45.5156C1020.2 44.3438 1020 43.0723 1020 41.7012ZM1023.25 41.2969V41.7012C1023.25 42.6504 1023.36 43.5469 1023.59 44.3906C1023.81 45.2227 1024.14 45.9609 1024.59 46.6055C1025.04 47.25 1025.61 47.7598 1026.29 48.1348C1026.97 48.498 1027.76 48.6797 1028.67 48.6797C1029.56 48.6797 1030.34 48.498 1031 48.1348C1031.68 47.7598 1032.25 47.25 1032.69 46.6055C1033.14 45.9609 1033.47 45.2227 1033.69 44.3906C1033.93 43.5469 1034.04 42.6504 1034.04 41.7012V41.2969C1034.04 40.3594 1033.93 39.4746 1033.69 38.6426C1033.47 37.7988 1033.13 37.0547 1032.67 36.4102C1032.23 35.7539 1031.67 35.2383 1030.99 34.8633C1030.32 34.4883 1029.53 34.3008 1028.63 34.3008C1027.74 34.3008 1026.96 34.4883 1026.28 34.8633C1025.61 35.2383 1025.04 35.7539 1024.59 36.4102C1024.14 37.0547 1023.81 37.7988 1023.59 38.6426C1023.36 39.4746 1023.25 40.3594 1023.25 41.2969ZM1044.64 34.9688V51H1041.39V31.9805H1044.56L1044.64 34.9688ZM1050.59 31.875L1050.57 34.8984C1050.3 34.8398 1050.04 34.8047 1049.79 34.793C1049.56 34.7695 1049.29 34.7578 1048.99 34.7578C1048.24 34.7578 1047.57 34.875 1047 35.1094C1046.43 35.3438 1045.94 35.6719 1045.54 36.0938C1045.14 36.5156 1044.83 37.0195 1044.59 37.6055C1044.37 38.1797 1044.22 38.8125 1044.15 39.5039L1043.24 40.0312C1043.24 38.8828 1043.35 37.8047 1043.57 36.7969C1043.81 35.7891 1044.16 34.8984 1044.64 34.125C1045.12 33.3398 1045.73 32.7305 1046.47 32.2969C1047.22 31.8516 1048.11 31.6289 1049.14 31.6289C1049.38 31.6289 1049.65 31.6582 1049.95 31.7168C1050.26 31.7637 1050.47 31.8164 1050.59 31.875ZM1059.25 49.0312L1064.54 31.9805H1068.02L1060.39 53.9355C1060.22 54.4043 1059.98 54.9082 1059.69 55.4473C1059.41 55.998 1059.05 56.5195 1058.6 57.0117C1058.16 57.5039 1057.62 57.9023 1056.98 58.207C1056.36 58.5234 1055.62 58.6816 1054.75 58.6816C1054.49 58.6816 1054.17 58.6465 1053.77 58.5762C1053.37 58.5059 1053.09 58.4473 1052.92 58.4004L1052.91 55.7637C1053 55.7754 1053.15 55.7871 1053.35 55.7988C1053.56 55.8223 1053.7 55.834 1053.79 55.834C1054.52 55.834 1055.15 55.7344 1055.67 55.5352C1056.18 55.3477 1056.62 55.0254 1056.97 54.5684C1057.33 54.123 1057.64 53.5078 1057.9 52.7227L1059.25 49.0312ZM1055.37 31.9805L1060.31 46.7461L1061.15 50.1738L1058.81 51.3691L1051.82 31.9805H1055.37ZM1087.9 42.3867V45.0586H1069.41V43.1426L1080.87 25.4062H1083.53L1080.68 30.5391L1073.1 42.3867H1087.9ZM1084.34 25.4062V51H1081.08V25.4062H1084.34Z" fill="black"/>
<path d="M1243.69 48.8613H1247.07C1246.89 50.4785 1246.43 51.9258 1245.68 53.2031C1244.93 54.4805 1243.87 55.4941 1242.5 56.2441C1241.12 56.9824 1239.41 57.3516 1237.36 57.3516C1235.86 57.3516 1234.5 57.0703 1233.27 56.5078C1232.05 55.9453 1231 55.1484 1230.12 54.1172C1229.24 53.0742 1228.56 51.8262 1228.08 50.373C1227.61 48.9082 1227.38 47.2793 1227.38 45.4863V42.9375C1227.38 41.1445 1227.61 39.5215 1228.08 38.0684C1228.56 36.6035 1229.25 35.3496 1230.14 34.3066C1231.04 33.2637 1232.12 32.4609 1233.39 31.8984C1234.66 31.3359 1236.08 31.0547 1237.66 31.0547C1239.6 31.0547 1241.23 31.418 1242.57 32.1445C1243.9 32.8711 1244.94 33.8789 1245.68 35.168C1246.43 36.4453 1246.89 37.9277 1247.07 39.6152H1243.69C1243.53 38.4199 1243.22 37.3945 1242.78 36.5391C1242.33 35.6719 1241.7 35.0039 1240.88 34.5352C1240.06 34.0664 1238.99 33.832 1237.66 33.832C1236.53 33.832 1235.52 34.0488 1234.66 34.4824C1233.8 34.916 1233.08 35.5312 1232.49 36.3281C1231.92 37.125 1231.49 38.0801 1231.19 39.1934C1230.9 40.3066 1230.75 41.543 1230.75 42.9023V45.4863C1230.75 46.7402 1230.88 47.918 1231.14 49.0195C1231.41 50.1211 1231.81 51.0879 1232.35 51.9199C1232.89 52.752 1233.58 53.4082 1234.41 53.8887C1235.24 54.3574 1236.23 54.5918 1237.36 54.5918C1238.8 54.5918 1239.95 54.3633 1240.81 53.9062C1241.66 53.4492 1242.31 52.793 1242.74 51.9375C1243.19 51.082 1243.5 50.0566 1243.69 48.8613ZM1262.41 53.748V43.957C1262.41 43.207 1262.26 42.5566 1261.96 42.0059C1261.66 41.4434 1261.22 41.0098 1260.62 40.7051C1260.02 40.4004 1259.28 40.248 1258.4 40.248C1257.58 40.248 1256.86 40.3887 1256.24 40.6699C1255.63 40.9512 1255.15 41.3203 1254.8 41.7773C1254.46 42.2344 1254.29 42.7266 1254.29 43.2539H1251.04C1251.04 42.5742 1251.21 41.9004 1251.57 41.2324C1251.92 40.5645 1252.42 39.9609 1253.08 39.4219C1253.75 38.8711 1254.54 38.4375 1255.47 38.1211C1256.41 37.793 1257.45 37.6289 1258.6 37.6289C1259.98 37.6289 1261.2 37.8633 1262.25 38.332C1263.32 38.8008 1264.15 39.5098 1264.75 40.459C1265.36 41.3965 1265.66 42.5742 1265.66 43.9922V52.8516C1265.66 53.4844 1265.72 54.1582 1265.82 54.873C1265.94 55.5879 1266.11 56.2031 1266.33 56.7188V57H1262.94C1262.78 56.625 1262.65 56.127 1262.55 55.5059C1262.46 54.873 1262.41 54.2871 1262.41 53.748ZM1262.97 45.4688L1263.01 47.7539H1259.72C1258.8 47.7539 1257.97 47.8301 1257.24 47.9824C1256.52 48.123 1255.91 48.3398 1255.42 48.6328C1254.92 48.9258 1254.55 49.2949 1254.29 49.7402C1254.03 50.1738 1253.9 50.6836 1253.9 51.2695C1253.9 51.8672 1254.04 52.4121 1254.31 52.9043C1254.58 53.3965 1254.98 53.7891 1255.52 54.082C1256.07 54.3633 1256.75 54.5039 1257.54 54.5039C1258.54 54.5039 1259.42 54.293 1260.18 53.8711C1260.94 53.4492 1261.54 52.9336 1261.99 52.3242C1262.45 51.7148 1262.69 51.123 1262.73 50.5488L1264.12 52.1133C1264.04 52.6055 1263.81 53.1504 1263.45 53.748C1263.09 54.3457 1262.6 54.9199 1261.99 55.4707C1261.39 56.0098 1260.68 56.4609 1259.85 56.8242C1259.03 57.1758 1258.1 57.3516 1257.07 57.3516C1255.78 57.3516 1254.65 57.0996 1253.68 56.5957C1252.71 56.0918 1251.96 55.418 1251.43 54.5742C1250.9 53.7188 1250.63 52.7637 1250.63 51.709C1250.63 50.6895 1250.83 49.793 1251.23 49.0195C1251.63 48.2344 1252.21 47.584 1252.96 47.0684C1253.71 46.541 1254.61 46.1426 1255.66 45.873C1256.72 45.6035 1257.89 45.4688 1259.2 45.4688H1262.97ZM1278.74 37.9805V40.4766H1268.46V37.9805H1278.74ZM1271.94 33.3574H1275.19V52.2891C1275.19 52.9336 1275.29 53.4199 1275.49 53.748C1275.69 54.0762 1275.95 54.293 1276.26 54.3984C1276.58 54.5039 1276.92 54.5566 1277.28 54.5566C1277.55 54.5566 1277.83 54.5332 1278.13 54.4863C1278.43 54.4277 1278.66 54.3809 1278.81 54.3457L1278.83 57C1278.57 57.082 1278.23 57.1582 1277.81 57.2285C1277.4 57.3105 1276.9 57.3516 1276.32 57.3516C1275.52 57.3516 1274.79 57.1934 1274.12 56.877C1273.45 56.5605 1272.92 56.0332 1272.52 55.2949C1272.13 54.5449 1271.94 53.5371 1271.94 52.2715V33.3574ZM1290.45 57.3516C1289.12 57.3516 1287.92 57.1289 1286.85 56.6836C1285.78 56.2266 1284.86 55.5879 1284.09 54.7676C1283.32 53.9473 1282.74 52.9746 1282.33 51.8496C1281.92 50.7246 1281.71 49.4941 1281.71 48.1582V47.4199C1281.71 45.873 1281.94 44.4961 1282.4 43.2891C1282.86 42.0703 1283.48 41.0391 1284.26 40.1953C1285.05 39.3516 1285.94 38.7129 1286.93 38.2793C1287.93 37.8457 1288.96 37.6289 1290.03 37.6289C1291.39 37.6289 1292.56 37.8633 1293.54 38.332C1294.54 38.8008 1295.35 39.457 1295.99 40.3008C1296.62 41.1328 1297.09 42.1172 1297.39 43.2539C1297.7 44.3789 1297.85 45.6094 1297.85 46.9453V48.4043H1283.65V45.75H1294.6V45.5039C1294.55 44.6602 1294.38 43.8398 1294.07 43.043C1293.78 42.2461 1293.31 41.5898 1292.66 41.0742C1292.02 40.5586 1291.14 40.3008 1290.03 40.3008C1289.29 40.3008 1288.61 40.459 1287.99 40.7754C1287.37 41.0801 1286.83 41.5371 1286.39 42.1465C1285.94 42.7559 1285.6 43.5 1285.35 44.3789C1285.11 45.2578 1284.98 46.2715 1284.98 47.4199V48.1582C1284.98 49.0605 1285.11 49.9102 1285.35 50.707C1285.61 51.4922 1285.98 52.1836 1286.46 52.7812C1286.95 53.3789 1287.54 53.8477 1288.23 54.1875C1288.94 54.5273 1289.73 54.6973 1290.62 54.6973C1291.77 54.6973 1292.75 54.4629 1293.54 53.9941C1294.34 53.5254 1295.04 52.8984 1295.63 52.1133L1297.6 53.6777C1297.19 54.2988 1296.67 54.8906 1296.04 55.4531C1295.41 56.0156 1294.63 56.4727 1293.7 56.8242C1292.79 57.1758 1291.7 57.3516 1290.45 57.3516ZM1313.97 37.9805H1316.92V56.5957C1316.92 58.2715 1316.58 59.7012 1315.9 60.8848C1315.22 62.0684 1314.27 62.9648 1313.05 63.5742C1311.85 64.1953 1310.45 64.5059 1308.87 64.5059C1308.21 64.5059 1307.44 64.4004 1306.55 64.1895C1305.67 63.9902 1304.8 63.6445 1303.95 63.1523C1303.11 62.6719 1302.4 62.0215 1301.82 61.2012L1303.53 59.2676C1304.32 60.2285 1305.16 60.8965 1306.02 61.2715C1306.9 61.6465 1307.77 61.834 1308.62 61.834C1309.66 61.834 1310.55 61.6406 1311.3 61.2539C1312.05 60.8672 1312.63 60.293 1313.04 59.5312C1313.46 58.7812 1313.67 57.8555 1313.67 56.7539V42.1641L1313.97 37.9805ZM1300.87 47.7012V47.332C1300.87 45.8789 1301.04 44.5605 1301.38 43.377C1301.73 42.1816 1302.23 41.1562 1302.88 40.3008C1303.53 39.4453 1304.32 38.7891 1305.25 38.332C1306.18 37.8633 1307.22 37.6289 1308.38 37.6289C1309.57 37.6289 1310.62 37.8398 1311.51 38.2617C1312.41 38.6719 1313.17 39.2754 1313.79 40.0723C1314.43 40.8574 1314.92 41.8066 1315.29 42.9199C1315.65 44.0332 1315.9 45.293 1316.04 46.6992V48.3164C1315.91 49.7109 1315.66 50.9648 1315.29 52.0781C1314.92 53.1914 1314.43 54.1406 1313.79 54.9258C1313.17 55.7109 1312.41 56.3145 1311.51 56.7363C1310.61 57.1465 1309.55 57.3516 1308.34 57.3516C1307.21 57.3516 1306.18 57.1113 1305.25 56.6309C1304.34 56.1504 1303.55 55.4766 1302.89 54.6094C1302.24 53.7422 1301.73 52.7227 1301.38 51.5508C1301.04 50.3672 1300.87 49.084 1300.87 47.7012ZM1304.12 47.332V47.7012C1304.12 48.6504 1304.22 49.541 1304.41 50.373C1304.61 51.2051 1304.9 51.9375 1305.3 52.5703C1305.71 53.2031 1306.23 53.7012 1306.87 54.0645C1307.5 54.416 1308.26 54.5918 1309.13 54.5918C1310.21 54.5918 1311.1 54.3633 1311.81 53.9062C1312.51 53.4492 1313.07 52.8457 1313.48 52.0957C1313.9 51.3457 1314.23 50.5312 1314.46 49.6523V45.416C1314.33 44.7715 1314.13 44.1504 1313.86 43.5527C1313.61 42.9434 1313.27 42.4043 1312.84 41.9355C1312.43 41.4551 1311.92 41.0742 1311.31 40.793C1310.71 40.5117 1309.99 40.3711 1309.17 40.3711C1308.28 40.3711 1307.51 40.5586 1306.87 40.9336C1306.23 41.2969 1305.71 41.8008 1305.3 42.4453C1304.9 43.0781 1304.61 43.8164 1304.41 44.6602C1304.22 45.4922 1304.12 46.3828 1304.12 47.332ZM1321 47.7012V47.2969C1321 45.9258 1321.2 44.6543 1321.6 43.4824C1322 42.2988 1322.57 41.2734 1323.32 40.4062C1324.07 39.5273 1324.98 38.8477 1326.04 38.3672C1327.11 37.875 1328.31 37.6289 1329.63 37.6289C1330.97 37.6289 1332.17 37.875 1333.23 38.3672C1334.31 38.8477 1335.23 39.5273 1335.98 40.4062C1336.74 41.2734 1337.32 42.2988 1337.72 43.4824C1338.12 44.6543 1338.31 45.9258 1338.31 47.2969V47.7012C1338.31 49.0723 1338.12 50.3438 1337.72 51.5156C1337.32 52.6875 1336.74 53.7129 1335.98 54.5918C1335.23 55.459 1334.32 56.1387 1333.25 56.6309C1332.2 57.1113 1331 57.3516 1329.67 57.3516C1328.33 57.3516 1327.13 57.1113 1326.06 56.6309C1325 56.1387 1324.08 55.459 1323.32 54.5918C1322.57 53.7129 1322 52.6875 1321.6 51.5156C1321.2 50.3438 1321 49.0723 1321 47.7012ZM1324.25 47.2969V47.7012C1324.25 48.6504 1324.36 49.5469 1324.59 50.3906C1324.81 51.2227 1325.14 51.9609 1325.59 52.6055C1326.04 53.25 1326.61 53.7598 1327.29 54.1348C1327.97 54.498 1328.76 54.6797 1329.67 54.6797C1330.56 54.6797 1331.34 54.498 1332 54.1348C1332.68 53.7598 1333.25 53.25 1333.69 52.6055C1334.14 51.9609 1334.47 51.2227 1334.69 50.3906C1334.93 49.5469 1335.04 48.6504 1335.04 47.7012V47.2969C1335.04 46.3594 1334.93 45.4746 1334.69 44.6426C1334.47 43.7988 1334.13 43.0547 1333.67 42.4102C1333.23 41.7539 1332.67 41.2383 1331.99 40.8633C1331.32 40.4883 1330.53 40.3008 1329.63 40.3008C1328.74 40.3008 1327.96 40.4883 1327.28 40.8633C1326.61 41.2383 1326.04 41.7539 1325.59 42.4102C1325.14 43.0547 1324.81 43.7988 1324.59 44.6426C1324.36 45.4746 1324.25 46.3594 1324.25 47.2969ZM1345.64 40.9688V57H1342.39V37.9805H1345.56L1345.64 40.9688ZM1351.59 37.875L1351.57 40.8984C1351.3 40.8398 1351.04 40.8047 1350.79 40.793C1350.56 40.7695 1350.29 40.7578 1349.99 40.7578C1349.24 40.7578 1348.57 40.875 1348 41.1094C1347.43 41.3438 1346.94 41.6719 1346.54 42.0938C1346.14 42.5156 1345.83 43.0195 1345.59 43.6055C1345.37 44.1797 1345.22 44.8125 1345.15 45.5039L1344.24 46.0312C1344.24 44.8828 1344.35 43.8047 1344.57 42.7969C1344.81 41.7891 1345.16 40.8984 1345.64 40.125C1346.12 39.3398 1346.73 38.7305 1347.47 38.2969C1348.22 37.8516 1349.11 37.6289 1350.14 37.6289C1350.38 37.6289 1350.65 37.6582 1350.95 37.7168C1351.26 37.7637 1351.47 37.8164 1351.59 37.875ZM1360.25 55.0312L1365.54 37.9805H1369.02L1361.39 59.9355C1361.22 60.4043 1360.98 60.9082 1360.69 61.4473C1360.41 61.998 1360.05 62.5195 1359.6 63.0117C1359.16 63.5039 1358.62 63.9023 1357.98 64.207C1357.36 64.5234 1356.62 64.6816 1355.75 64.6816C1355.49 64.6816 1355.17 64.6465 1354.77 64.5762C1354.37 64.5059 1354.09 64.4473 1353.92 64.4004L1353.91 61.7637C1354 61.7754 1354.15 61.7871 1354.35 61.7988C1354.56 61.8223 1354.7 61.834 1354.79 61.834C1355.52 61.834 1356.15 61.7344 1356.67 61.5352C1357.18 61.3477 1357.62 61.0254 1357.97 60.5684C1358.33 60.123 1358.64 59.5078 1358.9 58.7227L1360.25 55.0312ZM1356.37 37.9805L1361.31 52.7461L1362.15 56.1738L1359.81 57.3691L1352.82 37.9805H1356.37ZM1375.72 44.8184L1373.12 44.1504L1374.4 31.4062H1387.53V34.4121H1377.16L1376.39 41.373C1376.86 41.1035 1377.45 40.8516 1378.16 40.6172C1378.89 40.3828 1379.72 40.2656 1380.66 40.2656C1381.84 40.2656 1382.9 40.4707 1383.84 40.8809C1384.78 41.2793 1385.58 41.8535 1386.23 42.6035C1386.9 43.3535 1387.41 44.2559 1387.76 45.3105C1388.11 46.3652 1388.29 47.543 1388.29 48.8438C1388.29 50.0742 1388.12 51.2051 1387.78 52.2363C1387.45 53.2676 1386.95 54.1699 1386.29 54.9434C1385.62 55.7051 1384.77 56.2969 1383.75 56.7188C1382.75 57.1406 1381.56 57.3516 1380.19 57.3516C1379.15 57.3516 1378.18 57.2109 1377.25 56.9297C1376.34 56.6367 1375.52 56.1973 1374.79 55.6113C1374.07 55.0137 1373.49 54.2754 1373.03 53.3965C1372.59 52.5059 1372.3 51.4629 1372.19 50.2676H1375.28C1375.42 51.2285 1375.7 52.0371 1376.12 52.6934C1376.55 53.3496 1377.1 53.8477 1377.78 54.1875C1378.47 54.5156 1379.27 54.6797 1380.19 54.6797C1380.96 54.6797 1381.64 54.5449 1382.24 54.2754C1382.84 54.0059 1383.34 53.6191 1383.75 53.1152C1384.16 52.6113 1384.47 52.002 1384.69 51.2871C1384.91 50.5723 1385.02 49.7695 1385.02 48.8789C1385.02 48.0703 1384.91 47.3203 1384.69 46.6289C1384.46 45.9375 1384.13 45.334 1383.68 44.8184C1383.25 44.3027 1382.72 43.9043 1382.08 43.623C1381.45 43.3301 1380.72 43.1836 1379.9 43.1836C1378.81 43.1836 1377.99 43.3301 1377.43 43.623C1376.88 43.916 1376.31 44.3145 1375.72 44.8184Z" fill="black"/>
</svg>
