<svg width="148" height="67" viewBox="0 0 148 67" fill="none" xmlns="http://www.w3.org/2000/svg">
<path d="M21.418 13.9043C21.418 16.7988 20.8613 19.2188 19.748 21.1641C18.6465 23.0977 17.0469 24.5566 14.9492 25.541C12.8516 26.5137 10.3262 27 7.37305 27H0.0957031V1.30078H8.16406C10.8594 1.30078 13.1973 1.78125 15.1777 2.74219C17.1582 3.69141 18.6934 5.10352 19.7832 6.97852C20.873 8.8418 21.418 11.1504 21.418 13.9043ZM15.7578 14.0449C15.7578 12.1465 15.4766 10.5879 14.9141 9.36914C14.3633 8.13867 13.543 7.23047 12.4531 6.64453C11.375 6.05859 10.0391 5.76562 8.44531 5.76562H5.54492V22.5H7.88281C10.543 22.5 12.5176 21.791 13.8066 20.373C15.1074 18.9551 15.7578 16.8457 15.7578 14.0449ZM41.5449 27H26.7441V1.30078H41.5449V5.76562H32.1934V11.4082H40.8945V15.873H32.1934V22.5H41.5449V27ZM62.0938 19.8633C62.0938 21.3867 61.7246 22.7109 60.9863 23.8359C60.248 24.9609 59.1699 25.8281 57.752 26.4375C56.3457 27.0469 54.6348 27.3516 52.6191 27.3516C51.7285 27.3516 50.8555 27.293 50 27.1758C49.1562 27.0586 48.3418 26.8887 47.5566 26.666C46.7832 26.4316 46.0449 26.1445 45.3418 25.8047V20.7422C46.5605 21.2812 47.8262 21.7676 49.1387 22.2012C50.4512 22.6348 51.752 22.8516 53.041 22.8516C53.9316 22.8516 54.6465 22.7344 55.1855 22.5C55.7363 22.2656 56.1348 21.9434 56.3809 21.5332C56.627 21.123 56.75 20.6543 56.75 20.127C56.75 19.4824 56.5332 18.9316 56.0996 18.4746C55.666 18.0176 55.0684 17.5898 54.3066 17.1914C53.5566 16.793 52.707 16.3652 51.7578 15.9082C51.1602 15.627 50.5098 15.2871 49.8066 14.8887C49.1035 14.4785 48.4355 13.9805 47.8027 13.3945C47.1699 12.8086 46.6484 12.0996 46.2383 11.2676C45.8398 10.4238 45.6406 9.41602 45.6406 8.24414C45.6406 6.70898 45.9922 5.39648 46.6953 4.30664C47.3984 3.2168 48.4004 2.38477 49.7012 1.81055C51.0137 1.22461 52.5605 0.931641 54.3418 0.931641C55.6777 0.931641 56.9492 1.08984 58.1562 1.40625C59.375 1.71094 60.6465 2.15625 61.9707 2.74219L60.2129 6.97852C59.0293 6.49805 57.9688 6.12891 57.0312 5.87109C56.0938 5.60156 55.1387 5.4668 54.166 5.4668C53.4863 5.4668 52.9062 5.57812 52.4258 5.80078C51.9453 6.01172 51.582 6.31641 51.3359 6.71484C51.0898 7.10156 50.9668 7.55273 50.9668 8.06836C50.9668 8.67773 51.1426 9.19336 51.4941 9.61523C51.8574 10.0254 52.3965 10.4238 53.1113 10.8105C53.8379 11.1973 54.7402 11.6484 55.8184 12.1641C57.1309 12.7852 58.25 13.4355 59.1758 14.1152C60.1133 14.7832 60.834 15.5742 61.3379 16.4883C61.8418 17.3906 62.0938 18.5156 62.0938 19.8633ZM81.9219 19.8633C81.9219 21.3867 81.5527 22.7109 80.8145 23.8359C80.0762 24.9609 78.998 25.8281 77.5801 26.4375C76.1738 27.0469 74.4629 27.3516 72.4473 27.3516C71.5566 27.3516 70.6836 27.293 69.8281 27.1758C68.9844 27.0586 68.1699 26.8887 67.3848 26.666C66.6113 26.4316 65.873 26.1445 65.1699 25.8047V20.7422C66.3887 21.2812 67.6543 21.7676 68.9668 22.2012C70.2793 22.6348 71.5801 22.8516 72.8691 22.8516C73.7598 22.8516 74.4746 22.7344 75.0137 22.5C75.5645 22.2656 75.9629 21.9434 76.209 21.5332C76.4551 21.123 76.5781 20.6543 76.5781 20.127C76.5781 19.4824 76.3613 18.9316 75.9277 18.4746C75.4941 18.0176 74.8965 17.5898 74.1348 17.1914C73.3848 16.793 72.5352 16.3652 71.5859 15.9082C70.9883 15.627 70.3379 15.2871 69.6348 14.8887C68.9316 14.4785 68.2637 13.9805 67.6309 13.3945C66.998 12.8086 66.4766 12.0996 66.0664 11.2676C65.668 10.4238 65.4688 9.41602 65.4688 8.24414C65.4688 6.70898 65.8203 5.39648 66.5234 4.30664C67.2266 3.2168 68.2285 2.38477 69.5293 1.81055C70.8418 1.22461 72.3887 0.931641 74.1699 0.931641C75.5059 0.931641 76.7773 1.08984 77.9844 1.40625C79.2031 1.71094 80.4746 2.15625 81.7988 2.74219L80.041 6.97852C78.8574 6.49805 77.7969 6.12891 76.8594 5.87109C75.9219 5.60156 74.9668 5.4668 73.9941 5.4668C73.3145 5.4668 72.7344 5.57812 72.2539 5.80078C71.7734 6.01172 71.4102 6.31641 71.1641 6.71484C70.918 7.10156 70.7949 7.55273 70.7949 8.06836C70.7949 8.67773 70.9707 9.19336 71.3223 9.61523C71.6855 10.0254 72.2246 10.4238 72.9395 10.8105C73.666 11.1973 74.5684 11.6484 75.6465 12.1641C76.959 12.7852 78.0781 13.4355 79.0039 14.1152C79.9414 14.7832 80.6621 15.5742 81.166 16.4883C81.6699 17.3906 81.9219 18.5156 81.9219 19.8633ZM101.381 27H86.5801V1.30078H101.381V5.76562H92.0293V11.4082H100.73V15.873H92.0293V22.5H101.381V27ZM114.248 1.30078C116.58 1.30078 118.502 1.58203 120.014 2.14453C121.537 2.70703 122.668 3.55664 123.406 4.69336C124.145 5.83008 124.514 7.26562 124.514 9C124.514 10.1719 124.291 11.1973 123.846 12.0762C123.4 12.9551 122.814 13.6992 122.088 14.3086C121.361 14.918 120.576 15.416 119.732 15.8027L127.291 27H121.244L115.109 17.1387H112.209V27H106.76V1.30078H114.248ZM113.861 5.76562H112.209V12.709H113.967C115.771 12.709 117.061 12.4102 117.834 11.8125C118.619 11.2031 119.012 10.3125 119.012 9.14062C119.012 7.92188 118.59 7.05469 117.746 6.53906C116.914 6.02344 115.619 5.76562 113.861 5.76562ZM140.439 27H134.99V5.83594H128.012V1.30078H147.418V5.83594H140.439V27ZM44.0059 41.3008H52.0039C55.4258 41.3008 58.0156 41.7812 59.7734 42.7422C61.5312 43.7031 62.4102 45.3906 62.4102 47.8047C62.4102 48.7773 62.252 49.6562 61.9355 50.4414C61.6309 51.2266 61.1855 51.8711 60.5996 52.375C60.0137 52.8789 59.2988 53.207 58.4551 53.3594V53.5352C59.3105 53.7109 60.084 54.0156 60.7754 54.4492C61.4668 54.8711 62.0176 55.4922 62.4277 56.3125C62.8496 57.1211 63.0605 58.1992 63.0605 59.5469C63.0605 61.1055 62.6797 62.4414 61.918 63.5547C61.1562 64.668 60.0664 65.5234 58.6484 66.1211C57.2422 66.707 55.5664 67 53.6211 67H44.0059V41.3008ZM49.4551 51.4785H52.6191C54.2012 51.4785 55.2969 51.2324 55.9062 50.7402C56.5156 50.2363 56.8203 49.498 56.8203 48.5254C56.8203 47.541 56.457 46.8379 55.7305 46.416C55.0156 45.9824 53.8789 45.7656 52.3203 45.7656H49.4551V51.4785ZM49.4551 55.8027V62.5H53.0059C54.6465 62.5 55.7891 62.1836 56.4336 61.5508C57.0781 60.918 57.4004 60.0684 57.4004 59.002C57.4004 58.3691 57.2598 57.8125 56.9785 57.332C56.6973 56.8516 56.2227 56.4766 55.5547 56.207C54.8984 55.9375 53.9902 55.8027 52.8301 55.8027H49.4551ZM83.9258 67L82.0625 60.8828H72.6934L70.8301 67H64.959L74.0293 41.1953H80.6914L89.7969 67H83.9258ZM80.7617 56.3125L78.8984 50.3359C78.7812 49.9375 78.623 49.4277 78.4238 48.8066C78.2363 48.1738 78.043 47.5352 77.8438 46.8906C77.6562 46.2344 77.5039 45.666 77.3867 45.1855C77.2695 45.666 77.1055 46.2637 76.8945 46.9785C76.6953 47.6816 76.502 48.3496 76.3145 48.9824C76.127 49.6152 75.9922 50.0664 75.9102 50.3359L74.0645 56.3125H80.7617ZM100.537 41.3008C102.869 41.3008 104.791 41.582 106.303 42.1445C107.826 42.707 108.957 43.5566 109.695 44.6934C110.434 45.8301 110.803 47.2656 110.803 49C110.803 50.1719 110.58 51.1973 110.135 52.0762C109.689 52.9551 109.104 53.6992 108.377 54.3086C107.65 54.918 106.865 55.416 106.021 55.8027L113.58 67H107.533L101.398 57.1387H98.498V67H93.0488V41.3008H100.537ZM100.15 45.7656H98.498V52.709H100.256C102.061 52.709 103.35 52.4102 104.123 51.8125C104.908 51.2031 105.301 50.3125 105.301 49.1406C105.301 47.9219 104.879 47.0547 104.035 46.5391C103.203 46.0234 101.908 45.7656 100.15 45.7656Z" fill="white"/>
</svg>
