<svg width="296" height="312" viewBox="0 0 296 312" fill="none" xmlns="http://www.w3.org/2000/svg">
<g filter="url(#filter0_dd_145_8318)">
<rect x="4" width="288" height="304" rx="4" fill="#F7F7FA"/>
<path d="M259.41 23.41L264 18.83L268.59 23.41L270 22L264 16L258 22L259.41 23.41Z" fill="#4A4B57"/>
<path d="M17.2784 26H24.642V24.4886H19.0341V20.9261H24.1932V19.4205H19.0341V15.875H24.5739V14.3636H17.2784V26ZM28.4756 17.2727H26.6119L29.2938 21.6364L26.5779 26H28.4415L30.4017 22.7386L32.3676 26H34.2256L31.4813 21.6364L34.2029 17.2727H32.3449L30.4017 20.6705L28.4756 17.2727ZM36.2992 29.2727H37.998V24.642H38.1003C38.4071 25.1989 39.0321 26.1705 40.623 26.1705C42.7367 26.1705 44.2708 24.4773 44.2708 21.6534C44.2708 18.8239 42.7139 17.1591 40.606 17.1591C38.9867 17.1591 38.4014 18.1477 38.1003 18.6875H37.9583V17.2727H36.2992V29.2727ZM37.9639 21.6364C37.9639 19.8125 38.7594 18.6023 40.2424 18.6023C41.7821 18.6023 42.5549 19.9034 42.5549 21.6364C42.5549 23.3864 41.7594 24.7216 40.2424 24.7216C38.7821 24.7216 37.9639 23.4716 37.9639 21.6364ZM49.0659 26.1932C50.5091 26.1932 51.3216 25.4602 51.6455 24.8068H51.7137V26H53.3728V20.2045C53.3728 17.6648 51.3728 17.1591 49.9864 17.1591C48.4069 17.1591 46.9523 17.7955 46.3841 19.3864L47.9807 19.75C48.2307 19.1307 48.8671 18.5341 50.0091 18.5341C51.1057 18.5341 51.6682 19.108 51.6682 20.0966V20.1364C51.6682 20.7557 51.0319 20.7443 49.4637 20.9261C47.8103 21.1193 46.1171 21.5511 46.1171 23.5341C46.1171 25.25 47.4069 26.1932 49.0659 26.1932ZM49.4353 24.8295C48.475 24.8295 47.7819 24.3977 47.7819 23.5568C47.7819 22.6477 48.5887 22.3239 49.5716 22.1932C50.1228 22.1193 51.4296 21.9716 51.6739 21.7273V22.8523C51.6739 23.8864 50.85 24.8295 49.4353 24.8295ZM57.6864 20.8182C57.6864 19.4261 58.5387 18.6307 59.7205 18.6307C60.8739 18.6307 61.5728 19.3864 61.5728 20.6534V26H63.2716V20.4489C63.2716 18.2898 62.0841 17.1591 60.3 17.1591C58.9875 17.1591 58.1296 17.767 57.7262 18.6932H57.6182V17.2727H55.9875V26H57.6864V20.8182ZM69.1691 26.1705C70.76 26.1705 71.385 25.1989 71.6918 24.642H71.8339V26H73.493V14.3636H71.7941V18.6875H71.6918C71.385 18.1477 70.8055 17.1591 69.1805 17.1591C67.0725 17.1591 65.5214 18.8239 65.5214 21.6534C65.5214 24.4773 67.0498 26.1705 69.1691 26.1705ZM69.5441 24.7216C68.027 24.7216 67.2373 23.3864 67.2373 21.6364C67.2373 19.9034 68.01 18.6023 69.5441 18.6023C71.027 18.6023 71.8225 19.8125 71.8225 21.6364C71.8225 23.4716 71.01 24.7216 69.5441 24.7216ZM80.031 26.1761C81.9344 26.1761 83.281 25.2386 83.6674 23.8182L82.0594 23.5284C81.7526 24.3523 81.014 24.7727 80.0481 24.7727C78.5935 24.7727 77.6163 23.8295 77.5708 22.1477H83.7754V21.5455C83.7754 18.392 81.889 17.1591 79.9117 17.1591C77.4799 17.1591 75.8776 19.0114 75.8776 21.6932C75.8776 24.4034 77.4572 26.1761 80.031 26.1761ZM77.5765 20.875C77.6447 19.6364 78.5424 18.5625 79.9231 18.5625C81.2413 18.5625 82.1049 19.5398 82.1106 20.875H77.5765ZM89.2793 26.1705C90.8702 26.1705 91.4952 25.1989 91.8021 24.642H91.9441V26H93.6032V14.3636H91.9043V18.6875H91.8021C91.4952 18.1477 90.9157 17.1591 89.2907 17.1591C87.1827 17.1591 85.6316 18.8239 85.6316 21.6534C85.6316 24.4773 87.16 26.1705 89.2793 26.1705ZM89.6543 24.7216C88.1373 24.7216 87.3475 23.3864 87.3475 21.6364C87.3475 19.9034 88.1202 18.6023 89.6543 18.6023C91.1373 18.6023 91.9327 19.8125 91.9327 21.6364C91.9327 23.4716 91.1202 24.7216 89.6543 24.7216ZM101.103 26H102.858V20.9261H107.802V19.4205H102.858V15.875H108.319V14.3636H101.103V26ZM110.693 26H112.392V17.2727H110.693V26ZM111.551 15.9261C112.136 15.9261 112.625 15.4716 112.625 14.9148C112.625 14.358 112.136 13.8977 111.551 13.8977C110.96 13.8977 110.477 14.358 110.477 14.9148C110.477 15.4716 110.96 15.9261 111.551 15.9261ZM116.729 14.3636H115.03V26H116.729V14.3636ZM123.44 17.2727H121.65V15.1818H119.951V17.2727H118.673V18.6364H119.951V23.7898C119.946 25.375 121.156 26.142 122.497 26.1136C123.036 26.108 123.4 26.0057 123.599 25.9318L123.292 24.5284C123.179 24.5511 122.968 24.6023 122.696 24.6023C122.144 24.6023 121.65 24.4205 121.65 23.4375V18.6364H123.44V17.2727ZM129.339 26.1761C131.242 26.1761 132.589 25.2386 132.975 23.8182L131.367 23.5284C131.06 24.3523 130.322 24.7727 129.356 24.7727C127.901 24.7727 126.924 23.8295 126.879 22.1477H133.083V21.5455C133.083 18.392 131.197 17.1591 129.219 17.1591C126.788 17.1591 125.185 19.0114 125.185 21.6932C125.185 24.4034 126.765 26.1761 129.339 26.1761ZM126.884 20.875C126.952 19.6364 127.85 18.5625 129.231 18.5625C130.549 18.5625 131.413 19.5398 131.418 20.875H126.884ZM135.32 26H137.019V20.6705C137.019 19.5284 137.9 18.7045 139.104 18.7045C139.456 18.7045 139.854 18.767 139.991 18.8068V17.1818C139.82 17.1591 139.485 17.142 139.269 17.142C138.246 17.142 137.371 17.7216 137.053 18.6591H136.962V17.2727H135.32V26ZM148.352 19.4034C148 18.0455 146.938 17.1591 145.051 17.1591C143.08 17.1591 141.682 18.1989 141.682 19.7443C141.682 20.983 142.432 21.8068 144.068 22.1705L145.546 22.4943C146.387 22.6818 146.779 23.0568 146.779 23.6023C146.779 24.2784 146.057 24.8068 144.943 24.8068C143.926 24.8068 143.273 24.3693 143.068 23.5114L141.426 23.7614C141.71 25.3068 142.994 26.1761 144.955 26.1761C147.063 26.1761 148.523 25.0568 148.523 23.4773C148.523 22.2443 147.739 21.483 146.137 21.1136L144.75 20.7955C143.79 20.5682 143.375 20.2443 143.381 19.6534C143.375 18.983 144.102 18.5057 145.068 18.5057C146.125 18.5057 146.614 19.0909 146.813 19.6761L148.352 19.4034Z" fill="#19191D"/>
<path fill-rule="evenodd" clip-rule="evenodd" d="M39 59V73H25V59H39ZM39 57H25C23.9 57 23 57.9 23 59V73C23 74.1 23.9 75 25 75H39C40.1 75 41 74.1 41 73V59C41 57.9 40.1 57 39 57Z" fill="#4A4B57"/>
<path d="M61.4091 72H62.8182V67.4545H65.3636C65.4659 67.4545 65.5625 67.4545 65.6591 67.4489L68.1136 72H69.75L67.1193 67.1932C68.6023 66.6875 69.2955 65.4773 69.2955 63.9318C69.2955 61.875 68.0682 60.3636 65.3409 60.3636H61.4091V72ZM62.8182 66.1818V61.6136H65.2955C67.1818 61.6136 67.9091 62.5341 67.9091 63.9318C67.9091 65.3295 67.1818 66.1818 65.3182 66.1818H62.8182ZM75.467 72.1818C77.2397 72.1818 78.5352 71.2955 78.9443 69.9773L77.6488 69.6136C77.3079 70.5227 76.5181 70.9773 75.467 70.9773C73.8931 70.9773 72.8079 69.9602 72.7454 68.0909H79.0806V67.5227C79.0806 64.2727 77.1488 63.1591 75.3306 63.1591C72.967 63.1591 71.3988 65.0227 71.3988 67.7045C71.3988 70.3864 72.9443 72.1818 75.467 72.1818ZM72.7454 66.9318C72.8363 65.5739 73.7965 64.3636 75.3306 64.3636C76.7852 64.3636 77.717 65.4545 77.717 66.9318H72.7454ZM85.1059 72.1818C87.0377 72.1818 88.3104 71 88.5377 69.4545H87.1968C86.9468 70.4091 86.1513 70.9773 85.1059 70.9773C83.5149 70.9773 82.4922 69.6591 82.4922 67.6364C82.4922 65.6591 83.5377 64.3636 85.1059 64.3636C86.2877 64.3636 86.9922 65.0909 87.1968 65.8864H88.5377C88.3104 64.25 86.924 63.1591 85.0831 63.1591C82.7195 63.1591 81.1513 65.0227 81.1513 67.6818C81.1513 70.2955 82.6513 72.1818 85.1059 72.1818ZM94.4834 72.1818C96.847 72.1818 98.4379 70.3864 98.4379 67.6818C98.4379 64.9545 96.847 63.1591 94.4834 63.1591C92.1197 63.1591 90.5288 64.9545 90.5288 67.6818C90.5288 70.3864 92.1197 72.1818 94.4834 72.1818ZM94.4834 70.9773C92.6879 70.9773 91.8697 69.4318 91.8697 67.6818C91.8697 65.9318 92.6879 64.3636 94.4834 64.3636C96.2788 64.3636 97.097 65.9318 97.097 67.6818C97.097 69.4318 96.2788 70.9773 94.4834 70.9773ZM100.925 72H102.266V66.5455C102.266 65.267 103.197 64.3636 104.243 64.3636C105.26 64.3636 105.97 65.0284 105.97 66.0227V72H107.334V66.3182C107.334 65.1932 108.038 64.3636 109.266 64.3636C110.22 64.3636 111.038 64.8693 111.038 66.1591V72H112.379V66.1591C112.379 64.108 111.277 63.1591 109.72 63.1591C108.47 63.1591 107.555 63.733 107.107 64.6364H107.016C106.584 63.7045 105.822 63.1591 104.675 63.1591C103.538 63.1591 102.697 63.7045 102.334 64.6364H102.22V63.2727H100.925V72ZM115.271 72H116.612V66.5455C116.612 65.267 117.544 64.3636 118.589 64.3636C119.606 64.3636 120.316 65.0284 120.316 66.0227V72H121.68V66.3182C121.68 65.1932 122.385 64.3636 123.612 64.3636C124.566 64.3636 125.385 64.8693 125.385 66.1591V72H126.726V66.1591C126.726 64.108 125.623 63.1591 124.066 63.1591C122.816 63.1591 121.902 63.733 121.453 64.6364H121.362C120.93 63.7045 120.169 63.1591 119.021 63.1591C117.885 63.1591 117.044 63.7045 116.68 64.6364H116.566V63.2727H115.271V72ZM133.276 72.1818C135.049 72.1818 136.345 71.2955 136.754 69.9773L135.458 69.6136C135.117 70.5227 134.327 70.9773 133.276 70.9773C131.702 70.9773 130.617 69.9602 130.555 68.0909H136.89V67.5227C136.89 64.2727 134.958 63.1591 133.14 63.1591C130.776 63.1591 129.208 65.0227 129.208 67.7045C129.208 70.3864 130.754 72.1818 133.276 72.1818ZM130.555 66.9318C130.646 65.5739 131.606 64.3636 133.14 64.3636C134.595 64.3636 135.526 65.4545 135.526 66.9318H130.555ZM140.711 66.75C140.711 65.2273 141.654 64.3636 142.938 64.3636C144.182 64.3636 144.938 65.1761 144.938 66.5455V72H146.279V66.4545C146.279 64.2273 145.091 63.1591 143.324 63.1591C142.006 63.1591 141.188 63.75 140.779 64.6364H140.665V63.2727H139.37V72H140.711V66.75ZM152.465 72.1818C154.146 72.1818 154.715 71.1364 155.01 70.6591H155.169V72H156.465V60.3636H155.124V64.6591H155.01C154.715 64.2045 154.192 63.1591 152.487 63.1591C150.283 63.1591 148.76 64.9091 148.76 67.6591C148.76 70.4318 150.283 72.1818 152.465 72.1818ZM152.646 70.9773C150.965 70.9773 150.101 69.5 150.101 67.6364C150.101 65.7955 150.942 64.3636 152.646 64.3636C154.283 64.3636 155.146 65.6818 155.146 67.6364C155.146 69.6136 154.26 70.9773 152.646 70.9773ZM163.206 72.1818C164.978 72.1818 166.274 71.2955 166.683 69.9773L165.388 69.6136C165.047 70.5227 164.257 70.9773 163.206 70.9773C161.632 70.9773 160.547 69.9602 160.484 68.0909H166.819V67.5227C166.819 64.2727 164.888 63.1591 163.069 63.1591C160.706 63.1591 159.138 65.0227 159.138 67.7045C159.138 70.3864 160.683 72.1818 163.206 72.1818ZM160.484 66.9318C160.575 65.5739 161.535 64.3636 163.069 64.3636C164.524 64.3636 165.456 65.4545 165.456 66.9318H160.484ZM172.595 72.1818C174.276 72.1818 174.845 71.1364 175.14 70.6591H175.299V72H176.595V60.3636H175.254V64.6591H175.14C174.845 64.2045 174.322 63.1591 172.617 63.1591C170.413 63.1591 168.89 64.9091 168.89 67.6591C168.89 70.4318 170.413 72.1818 172.595 72.1818ZM172.776 70.9773C171.095 70.9773 170.231 69.5 170.231 67.6364C170.231 65.7955 171.072 64.3636 172.776 64.3636C174.413 64.3636 175.276 65.6818 175.276 67.6364C175.276 69.6136 174.39 70.9773 172.776 70.9773Z" fill="#19191D"/>
<path fill-rule="evenodd" clip-rule="evenodd" d="M39 101V115H25V101H39ZM39 99H25C23.9 99 23 99.9 23 101V115C23 116.1 23.9 117 25 117H39C40.1 117 41 116.1 41 115V101C41 99.9 40.1 99 39 99Z" fill="#4A4B57"/>
<path d="M61.4091 114H62.8182V109.455H65.3636C65.4659 109.455 65.5625 109.455 65.6591 109.449L68.1136 114H69.75L67.1193 109.193C68.6023 108.688 69.2955 107.477 69.2955 105.932C69.2955 103.875 68.0682 102.364 65.3409 102.364H61.4091V114ZM62.8182 108.182V103.614H65.2955C67.1818 103.614 67.9091 104.534 67.9091 105.932C67.9091 107.33 67.1818 108.182 65.3182 108.182H62.8182ZM75.467 114.182C77.2397 114.182 78.5352 113.295 78.9443 111.977L77.6488 111.614C77.3079 112.523 76.5181 112.977 75.467 112.977C73.8931 112.977 72.8079 111.96 72.7454 110.091H79.0806V109.523C79.0806 106.273 77.1488 105.159 75.3306 105.159C72.967 105.159 71.3988 107.023 71.3988 109.705C71.3988 112.386 72.9443 114.182 75.467 114.182ZM72.7454 108.932C72.8363 107.574 73.7965 106.364 75.3306 106.364C76.7852 106.364 77.717 107.455 77.717 108.932H72.7454ZM85.1059 114.182C87.0377 114.182 88.3104 113 88.5377 111.455H87.1968C86.9468 112.409 86.1513 112.977 85.1059 112.977C83.5149 112.977 82.4922 111.659 82.4922 109.636C82.4922 107.659 83.5377 106.364 85.1059 106.364C86.2877 106.364 86.9922 107.091 87.1968 107.886H88.5377C88.3104 106.25 86.924 105.159 85.0831 105.159C82.7195 105.159 81.1513 107.023 81.1513 109.682C81.1513 112.295 82.6513 114.182 85.1059 114.182ZM94.597 114.182C96.3697 114.182 97.6652 113.295 98.0743 111.977L96.7788 111.614C96.4379 112.523 95.6481 112.977 94.597 112.977C93.0231 112.977 91.9379 111.96 91.8754 110.091H98.2106V109.523C98.2106 106.273 96.2788 105.159 94.4606 105.159C92.097 105.159 90.5288 107.023 90.5288 109.705C90.5288 112.386 92.0743 114.182 94.597 114.182ZM91.8754 108.932C91.9663 107.574 92.9265 106.364 94.4606 106.364C95.9152 106.364 96.847 107.455 96.847 108.932H91.8754ZM102.031 108.75C102.031 107.227 102.974 106.364 104.259 106.364C105.503 106.364 106.259 107.176 106.259 108.545V114H107.599V108.455C107.599 106.227 106.412 105.159 104.645 105.159C103.327 105.159 102.509 105.75 102.099 106.636H101.986V105.273H100.69V114H102.031V108.75ZM114.285 105.273H112.422V103.182H111.081V105.273H109.763V106.409H111.081V111.864C111.081 113.386 112.308 114.114 113.444 114.114C113.944 114.114 114.263 114.023 114.444 113.955L114.172 112.75C114.058 112.773 113.876 112.818 113.581 112.818C112.99 112.818 112.422 112.636 112.422 111.5V106.409H114.285V105.273ZM118.271 102.364H116.93V114H118.271V102.364ZM122.03 117.25C123.241 117.25 124.098 116.608 124.598 115.273L128.314 105.295L126.848 105.273L124.439 112.227H124.348L121.939 105.273H120.485L123.712 114.045L123.462 114.727C122.985 116.034 122.371 116.159 121.394 115.909L121.053 117.091C121.189 117.159 121.576 117.25 122.03 117.25ZM136.128 114L137.298 110.705H142.003L143.173 114H144.65L140.378 102.364H138.923L134.65 114H136.128ZM137.741 109.455L139.605 104.205H139.696L141.559 109.455H137.741ZM150.016 114.182C151.698 114.182 152.266 113.136 152.562 112.659H152.721V114H154.016V102.364H152.676V106.659H152.562C152.266 106.205 151.744 105.159 150.039 105.159C147.835 105.159 146.312 106.909 146.312 109.659C146.312 112.432 147.835 114.182 150.016 114.182ZM150.198 112.977C148.516 112.977 147.653 111.5 147.653 109.636C147.653 107.795 148.494 106.364 150.198 106.364C151.835 106.364 152.698 107.682 152.698 109.636C152.698 111.614 151.812 112.977 150.198 112.977ZM160.394 114.182C162.076 114.182 162.644 113.136 162.939 112.659H163.099V114H164.394V102.364H163.053V106.659H162.939C162.644 106.205 162.121 105.159 160.417 105.159C158.212 105.159 156.689 106.909 156.689 109.659C156.689 112.432 158.212 114.182 160.394 114.182ZM160.576 112.977C158.894 112.977 158.03 111.5 158.03 109.636C158.03 107.795 158.871 106.364 160.576 106.364C162.212 106.364 163.076 107.682 163.076 109.636C163.076 111.614 162.189 112.977 160.576 112.977ZM171.135 114.182C172.908 114.182 174.203 113.295 174.612 111.977L173.317 111.614C172.976 112.523 172.186 112.977 171.135 112.977C169.561 112.977 168.476 111.96 168.414 110.091H174.749V109.523C174.749 106.273 172.817 105.159 170.999 105.159C168.635 105.159 167.067 107.023 167.067 109.705C167.067 112.386 168.612 114.182 171.135 114.182ZM168.414 108.932C168.504 107.574 169.465 106.364 170.999 106.364C172.453 106.364 173.385 107.455 173.385 108.932H168.414ZM180.524 114.182C182.206 114.182 182.774 113.136 183.069 112.659H183.229V114H184.524V102.364H183.183V106.659H183.069C182.774 106.205 182.251 105.159 180.547 105.159C178.342 105.159 176.819 106.909 176.819 109.659C176.819 112.432 178.342 114.182 180.524 114.182ZM180.706 112.977C179.024 112.977 178.16 111.5 178.16 109.636C178.16 107.795 179.001 106.364 180.706 106.364C182.342 106.364 183.206 107.682 183.206 109.636C183.206 111.614 182.319 112.977 180.706 112.977Z" fill="#19191D"/>
<path fill-rule="evenodd" clip-rule="evenodd" d="M39 143V157H25V143H39ZM39 141H25C23.9 141 23 141.9 23 143V157C23 158.1 23.9 159 25 159H39C40.1 159 41 158.1 41 157V143C41 141.9 40.1 141 39 141Z" fill="#4A4B57"/>
<path d="M61.4091 156H68.5227V154.75H62.8182V150.795H68.0682V149.545H62.8182V145.614H68.4318V144.364H61.4091V156ZM72.2298 147.273H70.6843L73.457 151.636L70.6843 156H72.2298L74.3207 152.614L76.4116 156H77.957L75.1389 151.636L77.957 147.273H76.4116L74.3207 150.841L72.2298 147.273ZM80.3104 159.273H81.6513V154.659H81.7649C82.0604 155.136 82.6286 156.182 84.3104 156.182C86.4922 156.182 88.0149 154.432 88.0149 151.659C88.0149 148.909 86.4922 147.159 84.2877 147.159C82.5831 147.159 82.0604 148.205 81.7649 148.659H81.6059V147.273H80.3104V159.273ZM81.6286 151.636C81.6286 149.682 82.4922 148.364 84.1286 148.364C85.8331 148.364 86.674 149.795 86.674 151.636C86.674 153.5 85.8104 154.977 84.1286 154.977C82.5149 154.977 81.6286 153.614 81.6286 151.636ZM90.5004 156H91.8413V147.273H90.5004V156ZM91.1822 145.818C91.7049 145.818 92.1368 145.409 92.1368 144.909C92.1368 144.409 91.7049 144 91.1822 144C90.6595 144 90.2277 144.409 90.2277 144.909C90.2277 145.409 90.6595 145.818 91.1822 145.818ZM94.7373 156H96.0782V150.477C96.0782 149.295 97.01 148.432 98.2827 148.432C98.6407 148.432 99.01 148.5 99.1009 148.523V147.159C98.9475 147.148 98.5952 147.136 98.3964 147.136C97.3509 147.136 96.4418 147.727 96.1236 148.591H96.0327V147.273H94.7373V156ZM101.13 156H102.471V147.273H101.13V156ZM101.812 145.818C102.335 145.818 102.767 145.409 102.767 144.909C102.767 144.409 102.335 144 101.812 144C101.289 144 100.858 144.409 100.858 144.909C100.858 145.409 101.289 145.818 101.812 145.818ZM106.708 150.75C106.708 149.227 107.651 148.364 108.935 148.364C110.18 148.364 110.935 149.176 110.935 150.545V156H112.276V150.455C112.276 148.227 111.089 147.159 109.322 147.159C108.004 147.159 107.185 147.75 106.776 148.636H106.663V147.273H105.367V156H106.708V150.75ZM118.689 159.455C120.78 159.455 122.462 158.5 122.462 156.25V147.273H121.167V148.659H121.03C120.735 148.205 120.189 147.159 118.485 147.159C116.28 147.159 114.758 148.909 114.758 151.591C114.758 154.318 116.348 155.864 118.462 155.864C120.167 155.864 120.712 154.864 121.008 154.386H121.121V156.159C121.121 157.614 120.098 158.273 118.689 158.273C117.104 158.273 116.547 157.438 116.189 156.955L115.121 157.705C115.667 158.619 116.741 159.455 118.689 159.455ZM118.644 154.659C116.962 154.659 116.098 153.386 116.098 151.568C116.098 149.795 116.939 148.364 118.644 148.364C120.28 148.364 121.144 149.682 121.144 151.568C121.144 153.5 120.258 154.659 118.644 154.659ZM136.842 147.273H138.206C138.143 145.517 136.524 144.205 134.274 144.205C132.047 144.205 130.297 145.5 130.297 147.455C130.297 149.023 131.433 149.955 133.251 150.477L134.683 150.886C135.91 151.227 137.001 151.659 137.001 152.818C137.001 154.091 135.774 154.932 134.16 154.932C132.774 154.932 131.547 154.318 131.433 153H129.978C130.115 154.909 131.66 156.205 134.16 156.205C136.842 156.205 138.365 154.727 138.365 152.841C138.365 150.659 136.297 149.955 135.092 149.636L133.91 149.318C133.047 149.091 131.66 148.636 131.66 147.386C131.66 146.273 132.683 145.455 134.228 145.455C135.638 145.455 136.706 146.125 136.842 147.273ZM144.485 156.182C146.849 156.182 148.44 154.386 148.44 151.682C148.44 148.955 146.849 147.159 144.485 147.159C142.122 147.159 140.531 148.955 140.531 151.682C140.531 154.386 142.122 156.182 144.485 156.182ZM144.485 154.977C142.69 154.977 141.872 153.432 141.872 151.682C141.872 149.932 142.69 148.364 144.485 148.364C146.281 148.364 147.099 149.932 147.099 151.682C147.099 153.432 146.281 154.977 144.485 154.977ZM154.472 156.182C156.836 156.182 158.427 154.386 158.427 151.682C158.427 148.955 156.836 147.159 154.472 147.159C152.108 147.159 150.518 148.955 150.518 151.682C150.518 154.386 152.108 156.182 154.472 156.182ZM154.472 154.977C152.677 154.977 151.858 153.432 151.858 151.682C151.858 149.932 152.677 148.364 154.472 148.364C156.268 148.364 157.086 149.932 157.086 151.682C157.086 153.432 156.268 154.977 154.472 154.977ZM162.254 150.75C162.254 149.227 163.198 148.364 164.482 148.364C165.726 148.364 166.482 149.176 166.482 150.545V156H167.823V150.455C167.823 148.227 166.635 147.159 164.868 147.159C163.55 147.159 162.732 147.75 162.323 148.636H162.209V147.273H160.914V156H162.254V150.75Z" fill="#19191D"/>
<path fill-rule="evenodd" clip-rule="evenodd" d="M39 185V199H25V185H39ZM39 183H25C23.9 183 23 183.9 23 185V199C23 200.1 23.9 201 25 201H39C40.1 201 41 200.1 41 199V185C41 183.9 40.1 183 39 183Z" fill="#4A4B57"/>
<path d="M61.4091 186.364V198H62.7273V189.159H62.8409L66.4773 198H67.75L71.3864 189.159H71.5V198H72.8182V186.364H71.1364L67.1818 196.023H67.0455L63.0909 186.364H61.4091ZM79.4471 198.182C81.8107 198.182 83.4016 196.386 83.4016 193.682C83.4016 190.955 81.8107 189.159 79.4471 189.159C77.0835 189.159 75.4926 190.955 75.4926 193.682C75.4926 196.386 77.0835 198.182 79.4471 198.182ZM79.4471 196.977C77.6516 196.977 76.8335 195.432 76.8335 193.682C76.8335 191.932 77.6516 190.364 79.4471 190.364C81.2426 190.364 82.0607 191.932 82.0607 193.682C82.0607 195.432 81.2426 196.977 79.4471 196.977ZM92.0703 191.227C91.6499 189.989 90.7067 189.159 88.9794 189.159C87.1385 189.159 85.7749 190.205 85.7749 191.682C85.7749 192.886 86.4908 193.693 88.0931 194.068L89.5476 194.409C90.4283 194.614 90.8431 195.034 90.8431 195.636C90.8431 196.386 90.0476 197 88.7976 197C87.701 197 87.0135 196.528 86.7749 195.591L85.5022 195.909C85.8147 197.392 87.0362 198.182 88.8203 198.182C90.8487 198.182 92.2294 197.074 92.2294 195.568C92.2294 194.352 91.4681 193.585 89.9112 193.205L88.6158 192.886C87.5817 192.631 87.1158 192.284 87.1158 191.614C87.1158 190.864 87.9112 190.318 88.9794 190.318C90.1499 190.318 90.6328 190.966 90.8658 191.568L92.0703 191.227ZM98.4834 189.273H96.6197V187.182H95.2788V189.273H93.9606V190.409H95.2788V195.864C95.2788 197.386 96.5061 198.114 97.6424 198.114C98.1424 198.114 98.4606 198.023 98.6424 197.955L98.3697 196.75C98.2561 196.773 98.0743 196.818 97.7788 196.818C97.1879 196.818 96.6197 196.636 96.6197 195.5V190.409H98.4834V189.273ZM106.062 198H107.471V193.455H110.017C110.119 193.455 110.216 193.455 110.312 193.449L112.767 198H114.403L111.772 193.193C113.255 192.688 113.949 191.477 113.949 189.932C113.949 187.875 112.721 186.364 109.994 186.364H106.062V198ZM107.471 192.182V187.614H109.949C111.835 187.614 112.562 188.534 112.562 189.932C112.562 191.33 111.835 192.182 109.971 192.182H107.471ZM119.123 198.205C120.646 198.205 121.441 197.386 121.714 196.818H121.782V198H123.123V192.25C123.123 189.477 121.009 189.159 119.896 189.159C118.577 189.159 117.077 189.614 116.396 191.205L117.668 191.659C117.964 191.023 118.663 190.341 119.941 190.341C121.174 190.341 121.782 190.994 121.782 192.114V192.159C121.782 192.807 121.123 192.75 119.532 192.955C117.913 193.165 116.146 193.523 116.146 195.523C116.146 197.227 117.464 198.205 119.123 198.205ZM119.327 197C118.259 197 117.487 196.523 117.487 195.591C117.487 194.568 118.418 194.25 119.464 194.114C120.032 194.045 121.555 193.886 121.782 193.614V194.841C121.782 195.932 120.918 197 119.327 197ZM129.806 189.273H127.942V187.182H126.601V189.273H125.283V190.409H126.601V195.864C126.601 197.386 127.829 198.114 128.965 198.114C129.465 198.114 129.783 198.023 129.965 197.955L129.692 196.75C129.579 196.773 129.397 196.818 129.101 196.818C128.51 196.818 127.942 196.636 127.942 195.5V190.409H129.806V189.273ZM135.828 198.182C137.601 198.182 138.896 197.295 139.306 195.977L138.01 195.614C137.669 196.523 136.879 196.977 135.828 196.977C134.254 196.977 133.169 195.96 133.107 194.091H139.442V193.523C139.442 190.273 137.51 189.159 135.692 189.159C133.328 189.159 131.76 191.023 131.76 193.705C131.76 196.386 133.306 198.182 135.828 198.182ZM133.107 192.932C133.198 191.574 134.158 190.364 135.692 190.364C137.146 190.364 138.078 191.455 138.078 192.932H133.107ZM145.217 198.182C146.899 198.182 147.467 197.136 147.763 196.659H147.922V198H149.217V186.364H147.876V190.659H147.763C147.467 190.205 146.944 189.159 145.24 189.159C143.035 189.159 141.513 190.909 141.513 193.659C141.513 196.432 143.035 198.182 145.217 198.182ZM145.399 196.977C143.717 196.977 142.853 195.5 142.853 193.636C142.853 191.795 143.694 190.364 145.399 190.364C147.035 190.364 147.899 191.682 147.899 193.636C147.899 195.614 147.013 196.977 145.399 196.977Z" fill="#19191D"/>
<path fill-rule="evenodd" clip-rule="evenodd" d="M39 227V241H25V227H39ZM39 225H25C23.9 225 23 225.9 23 227V241C23 242.1 23.9 243 25 243H39C40.1 243 41 242.1 41 241V227C41 225.9 40.1 225 39 225Z" fill="#4A4B57"/>
<path d="M61.4091 240H62.8182V235.75H65.3636C68.0739 235.75 69.2955 234.102 69.2955 232.045C69.2955 229.989 68.0739 228.364 65.3409 228.364H61.4091V240ZM62.8182 234.5V229.614H65.2955C67.1875 229.614 67.9091 230.648 67.9091 232.045C67.9091 233.443 67.1875 234.5 65.3182 234.5H62.8182ZM71.8235 240H73.1644V234.477C73.1644 233.295 74.0962 232.432 75.369 232.432C75.7269 232.432 76.0962 232.5 76.1872 232.523V231.159C76.0337 231.148 75.6815 231.136 75.4826 231.136C74.4372 231.136 73.5281 231.727 73.2099 232.591H73.119V231.273H71.8235V240ZM78.2166 240H79.5576V231.273H78.2166V240ZM78.8985 229.818C79.4212 229.818 79.853 229.409 79.853 228.909C79.853 228.409 79.4212 228 78.8985 228C78.3757 228 77.9439 228.409 77.9439 228.909C77.9439 229.409 78.3757 229.818 78.8985 229.818ZM85.999 240.182C87.9308 240.182 89.2035 239 89.4308 237.455H88.0899C87.8399 238.409 87.0444 238.977 85.999 238.977C84.4081 238.977 83.3853 237.659 83.3853 235.636C83.3853 233.659 84.4308 232.364 85.999 232.364C87.1808 232.364 87.8853 233.091 88.0899 233.886H89.4308C89.2035 232.25 87.8172 231.159 85.9762 231.159C83.6126 231.159 82.0444 233.023 82.0444 235.682C82.0444 238.295 83.5444 240.182 85.999 240.182ZM95.4901 240.182C97.2628 240.182 98.5583 239.295 98.9674 237.977L97.6719 237.614C97.331 238.523 96.5413 238.977 95.4901 238.977C93.9163 238.977 92.831 237.96 92.7685 236.091H99.1038V235.523C99.1038 232.273 97.1719 231.159 95.3538 231.159C92.9901 231.159 91.4219 233.023 91.4219 235.705C91.4219 238.386 92.9674 240.182 95.4901 240.182ZM92.7685 234.932C92.8594 233.574 93.8197 232.364 95.3538 232.364C96.8083 232.364 97.7401 233.455 97.7401 234.932H92.7685ZM102.561 240.091C103.123 240.091 103.584 239.631 103.584 239.068C103.584 238.506 103.123 238.045 102.561 238.045C101.998 238.045 101.538 238.506 101.538 239.068C101.538 239.631 101.998 240.091 102.561 240.091ZM102.561 233.614C103.123 233.614 103.584 233.153 103.584 232.591C103.584 232.028 103.123 231.568 102.561 231.568C101.998 231.568 101.538 232.028 101.538 232.591C101.538 233.153 101.998 233.614 102.561 233.614ZM111.552 240H118.37V238.75H112.961V228.364H111.552V240ZM124.355 240.182C126.719 240.182 128.31 238.386 128.31 235.682C128.31 232.955 126.719 231.159 124.355 231.159C121.992 231.159 120.401 232.955 120.401 235.682C120.401 238.386 121.992 240.182 124.355 240.182ZM124.355 238.977C122.56 238.977 121.742 237.432 121.742 235.682C121.742 233.932 122.56 232.364 124.355 232.364C126.151 232.364 126.969 233.932 126.969 235.682C126.969 237.432 126.151 238.977 124.355 238.977ZM132.477 240H133.795L135.704 233.295H135.841L137.75 240H139.068L141.727 231.273H140.318L138.432 237.932H138.341L136.5 231.273H135.068L133.204 237.955H133.113L131.227 231.273H129.818L132.477 240ZM156.255 239.273L161.346 234.182L156.255 229.091L155.38 229.966L158.982 233.557H149.652V234.807H158.982L155.38 238.409L156.255 239.273ZM169.707 240H171.116V234.795H177.321V240H178.73V228.364H177.321V233.545H171.116V228.364H169.707V240ZM181.809 240H183.15V231.273H181.809V240ZM182.491 229.818C183.014 229.818 183.446 229.409 183.446 228.909C183.446 228.409 183.014 228 182.491 228C181.968 228 181.536 228.409 181.536 228.909C181.536 229.409 181.968 229.818 182.491 229.818ZM189.569 243.455C191.66 243.455 193.341 242.5 193.341 240.25V231.273H192.046V232.659H191.91C191.614 232.205 191.069 231.159 189.364 231.159C187.16 231.159 185.637 232.909 185.637 235.591C185.637 238.318 187.228 239.864 189.341 239.864C191.046 239.864 191.591 238.864 191.887 238.386H192.001V240.159C192.001 241.614 190.978 242.273 189.569 242.273C187.984 242.273 187.427 241.438 187.069 240.955L186.001 241.705C186.546 242.619 187.62 243.455 189.569 243.455ZM189.523 238.659C187.841 238.659 186.978 237.386 186.978 235.568C186.978 233.795 187.819 232.364 189.523 232.364C191.16 232.364 192.023 233.682 192.023 235.568C192.023 237.5 191.137 238.659 189.523 238.659ZM197.577 234.75C197.577 233.227 198.549 232.364 199.872 232.364C201.134 232.364 201.895 233.159 201.895 234.545V240H203.236V234.455C203.236 232.21 202.043 231.159 200.259 231.159C198.884 231.159 198.1 231.733 197.691 232.636H197.577V228.364H196.236V240H197.577V234.75Z" fill="#19191D"/>
<path fill-rule="evenodd" clip-rule="evenodd" d="M39 269V283H25V269H39ZM39 267H25C23.9 267 23 267.9 23 269V283C23 284.1 23.9 285 25 285H39C40.1 285 41 284.1 41 283V269C41 267.9 40.1 267 39 267Z" fill="#4A4B57"/>
<path d="M61.4091 282H62.8182V277.75H65.3636C68.0739 277.75 69.2955 276.102 69.2955 274.045C69.2955 271.989 68.0739 270.364 65.3409 270.364H61.4091V282ZM62.8182 276.5V271.614H65.2955C67.1875 271.614 67.9091 272.648 67.9091 274.045C67.9091 275.443 67.1875 276.5 65.3182 276.5H62.8182ZM71.8235 282H73.1644V276.477C73.1644 275.295 74.0962 274.432 75.369 274.432C75.7269 274.432 76.0962 274.5 76.1872 274.523V273.159C76.0337 273.148 75.6815 273.136 75.4826 273.136C74.4372 273.136 73.5281 273.727 73.2099 274.591H73.119V273.273H71.8235V282ZM78.2166 282H79.5576V273.273H78.2166V282ZM78.8985 271.818C79.4212 271.818 79.853 271.409 79.853 270.909C79.853 270.409 79.4212 270 78.8985 270C78.3757 270 77.9439 270.409 77.9439 270.909C77.9439 271.409 78.3757 271.818 78.8985 271.818ZM85.999 282.182C87.9308 282.182 89.2035 281 89.4308 279.455H88.0899C87.8399 280.409 87.0444 280.977 85.999 280.977C84.4081 280.977 83.3853 279.659 83.3853 277.636C83.3853 275.659 84.4308 274.364 85.999 274.364C87.1808 274.364 87.8853 275.091 88.0899 275.886H89.4308C89.2035 274.25 87.8172 273.159 85.9762 273.159C83.6126 273.159 82.0444 275.023 82.0444 277.682C82.0444 280.295 83.5444 282.182 85.999 282.182ZM95.4901 282.182C97.2628 282.182 98.5583 281.295 98.9674 279.977L97.6719 279.614C97.331 280.523 96.5413 280.977 95.4901 280.977C93.9163 280.977 92.831 279.96 92.7685 278.091H99.1038V277.523C99.1038 274.273 97.1719 273.159 95.3538 273.159C92.9901 273.159 91.4219 275.023 91.4219 277.705C91.4219 280.386 92.9674 282.182 95.4901 282.182ZM92.7685 276.932C92.8594 275.574 93.8197 274.364 95.3538 274.364C96.8083 274.364 97.7401 275.455 97.7401 276.932H92.7685ZM102.561 282.091C103.123 282.091 103.584 281.631 103.584 281.068C103.584 280.506 103.123 280.045 102.561 280.045C101.998 280.045 101.538 280.506 101.538 281.068C101.538 281.631 101.998 282.091 102.561 282.091ZM102.561 275.614C103.123 275.614 103.584 275.153 103.584 274.591C103.584 274.028 103.123 273.568 102.561 273.568C101.998 273.568 101.538 274.028 101.538 274.591C101.538 275.153 101.998 275.614 102.561 275.614ZM111.552 282H112.961V276.795H119.165V282H120.574V270.364H119.165V275.545H112.961V270.364H111.552V282ZM123.654 282H124.994V273.273H123.654V282ZM124.335 271.818C124.858 271.818 125.29 271.409 125.29 270.909C125.29 270.409 124.858 270 124.335 270C123.813 270 123.381 270.409 123.381 270.909C123.381 271.409 123.813 271.818 124.335 271.818ZM131.413 285.455C133.504 285.455 135.186 284.5 135.186 282.25V273.273H133.89V274.659H133.754C133.459 274.205 132.913 273.159 131.209 273.159C129.004 273.159 127.481 274.909 127.481 277.591C127.481 280.318 129.072 281.864 131.186 281.864C132.89 281.864 133.436 280.864 133.731 280.386H133.845V282.159C133.845 283.614 132.822 284.273 131.413 284.273C129.828 284.273 129.271 283.438 128.913 282.955L127.845 283.705C128.39 284.619 129.464 285.455 131.413 285.455ZM131.368 280.659C129.686 280.659 128.822 279.386 128.822 277.568C128.822 275.795 129.663 274.364 131.368 274.364C133.004 274.364 133.868 275.682 133.868 277.568C133.868 279.5 132.981 280.659 131.368 280.659ZM139.421 276.75C139.421 275.227 140.393 274.364 141.717 274.364C142.978 274.364 143.739 275.159 143.739 276.545V282H145.08V276.455C145.08 274.21 143.887 273.159 142.103 273.159C140.728 273.159 139.944 273.733 139.535 274.636H139.421V270.364H138.08V282H139.421V276.75ZM160.289 281.273L165.379 276.182L160.289 271.091L159.414 271.966L163.016 275.557H153.686V276.807H163.016L159.414 280.409L160.289 281.273ZM173.741 282H180.559V280.75H175.15V270.364H173.741V282ZM186.545 282.182C188.908 282.182 190.499 280.386 190.499 277.682C190.499 274.955 188.908 273.159 186.545 273.159C184.181 273.159 182.59 274.955 182.59 277.682C182.59 280.386 184.181 282.182 186.545 282.182ZM186.545 280.977C184.749 280.977 183.931 279.432 183.931 277.682C183.931 275.932 184.749 274.364 186.545 274.364C188.34 274.364 189.158 275.932 189.158 277.682C189.158 279.432 188.34 280.977 186.545 280.977ZM194.666 282H195.985L197.894 275.295H198.03L199.939 282H201.257L203.916 273.273H202.507L200.621 279.932H200.53L198.689 273.273H197.257L195.394 279.955H195.303L193.416 273.273H192.007L194.666 282Z" fill="#19191D"/>
</g>
<defs>
<filter id="filter0_dd_145_8318" x="0" y="0" width="296" height="312" filterUnits="userSpaceOnUse" color-interpolation-filters="sRGB">
<feFlood flood-opacity="0" result="BackgroundImageFix"/>
<feColorMatrix in="SourceAlpha" type="matrix" values="0 0 0 0 0 0 0 0 0 0 0 0 0 0 0 0 0 0 127 0" result="hardAlpha"/>
<feOffset dy="4"/>
<feGaussianBlur stdDeviation="2"/>
<feComposite in2="hardAlpha" operator="out"/>
<feColorMatrix type="matrix" values="0 0 0 0 0 0 0 0 0 0 0 0 0 0 0 0 0 0 0.25 0"/>
<feBlend mode="normal" in2="BackgroundImageFix" result="effect1_dropShadow_145_8318"/>
<feColorMatrix in="SourceAlpha" type="matrix" values="0 0 0 0 0 0 0 0 0 0 0 0 0 0 0 0 0 0 127 0" result="hardAlpha"/>
<feOffset dy="4"/>
<feGaussianBlur stdDeviation="2"/>
<feComposite in2="hardAlpha" operator="out"/>
<feColorMatrix type="matrix" values="0 0 0 0 0 0 0 0 0 0 0 0 0 0 0 0 0 0 0.25 0"/>
<feBlend mode="normal" in2="effect1_dropShadow_145_8318" result="effect2_dropShadow_145_8318"/>
<feBlend mode="normal" in="SourceGraphic" in2="effect2_dropShadow_145_8318" result="shape"/>
</filter>
</defs>
</svg>
