<svg width="1440" height="373" viewBox="0 0 1440 373" fill="none" xmlns="http://www.w3.org/2000/svg">
<rect width="1440" height="372.756" fill="white"/>
<path d="M795.988 137.177V127.929L791.876 135.113H791.172L787.044 127.929V137.177H785.924V125.817H787.076L791.508 133.593L795.972 125.817H797.108V137.177H795.988ZM800.211 139.737C800.361 139.747 800.505 139.753 800.643 139.753C800.782 139.763 800.883 139.758 800.947 139.737C801.075 139.715 801.198 139.641 801.315 139.513C801.433 139.385 801.571 139.139 801.731 138.777C801.891 138.414 802.115 137.881 802.403 137.177L798.771 128.841H799.923L802.979 136.057L805.795 128.841H806.883L802.563 139.593C802.489 139.795 802.377 139.982 802.227 140.153C802.078 140.334 801.891 140.473 801.667 140.569C801.454 140.675 801.187 140.734 800.867 140.745C800.771 140.755 800.67 140.755 800.563 140.745C800.467 140.745 800.35 140.734 800.211 140.713V139.737ZM815.288 125.817H816.232L820.952 137.177H819.768L818.296 133.625H813.192L811.736 137.177H810.536L815.288 125.817ZM818.04 132.745L815.752 127.129L813.432 132.745H818.04ZM825.738 137.337C825.13 137.337 824.57 137.225 824.058 137.001C823.557 136.766 823.114 136.446 822.73 136.041C822.357 135.635 822.063 135.171 821.85 134.649C821.647 134.126 821.546 133.571 821.546 132.985C821.546 132.195 821.722 131.475 822.074 130.825C822.426 130.174 822.917 129.657 823.546 129.273C824.175 128.889 824.901 128.697 825.722 128.697C826.501 128.697 827.189 128.878 827.786 129.241C828.383 129.593 828.826 130.073 829.114 130.681L828.058 131.017C827.823 130.59 827.493 130.259 827.066 130.025C826.65 129.779 826.186 129.657 825.674 129.657C825.119 129.657 824.613 129.801 824.154 130.089C823.695 130.377 823.327 130.771 823.05 131.273C822.783 131.774 822.65 132.345 822.65 132.985C822.65 133.614 822.789 134.185 823.066 134.697C823.343 135.209 823.711 135.619 824.17 135.929C824.629 136.227 825.135 136.377 825.69 136.377C826.053 136.377 826.399 136.313 826.73 136.185C827.071 136.057 827.365 135.886 827.61 135.673C827.866 135.449 828.037 135.209 828.122 134.953L829.194 135.273C829.045 135.667 828.794 136.025 828.442 136.345C828.101 136.654 827.695 136.899 827.226 137.081C826.767 137.251 826.271 137.337 825.738 137.337ZM834.441 137.337C833.833 137.337 833.273 137.225 832.761 137.001C832.26 136.766 831.817 136.446 831.433 136.041C831.06 135.635 830.766 135.171 830.553 134.649C830.35 134.126 830.249 133.571 830.249 132.985C830.249 132.195 830.425 131.475 830.777 130.825C831.129 130.174 831.62 129.657 832.249 129.273C832.878 128.889 833.604 128.697 834.425 128.697C835.204 128.697 835.892 128.878 836.489 129.241C837.086 129.593 837.529 130.073 837.817 130.681L836.761 131.017C836.526 130.59 836.196 130.259 835.769 130.025C835.353 129.779 834.889 129.657 834.377 129.657C833.822 129.657 833.316 129.801 832.857 130.089C832.398 130.377 832.03 130.771 831.753 131.273C831.486 131.774 831.353 132.345 831.353 132.985C831.353 133.614 831.492 134.185 831.769 134.697C832.046 135.209 832.414 135.619 832.873 135.929C833.332 136.227 833.838 136.377 834.393 136.377C834.756 136.377 835.102 136.313 835.433 136.185C835.774 136.057 836.068 135.886 836.313 135.673C836.569 135.449 836.74 135.209 836.825 134.953L837.897 135.273C837.748 135.667 837.497 136.025 837.145 136.345C836.804 136.654 836.398 136.899 835.929 137.081C835.47 137.251 834.974 137.337 834.441 137.337ZM843.08 137.337C842.483 137.337 841.928 137.225 841.416 137.001C840.915 136.766 840.477 136.451 840.104 136.057C839.741 135.651 839.459 135.193 839.256 134.681C839.053 134.158 838.952 133.609 838.952 133.033C838.952 132.435 839.053 131.881 839.256 131.369C839.459 130.846 839.747 130.387 840.12 129.993C840.493 129.587 840.931 129.273 841.432 129.049C841.944 128.814 842.499 128.697 843.096 128.697C843.693 128.697 844.243 128.814 844.744 129.049C845.245 129.273 845.683 129.587 846.056 129.993C846.429 130.387 846.717 130.846 846.92 131.369C847.123 131.881 847.224 132.435 847.224 133.033C847.224 133.609 847.123 134.158 846.92 134.681C846.717 135.193 846.429 135.651 846.056 136.057C845.693 136.451 845.256 136.766 844.744 137.001C844.243 137.225 843.688 137.337 843.08 137.337ZM840.056 133.049C840.056 133.667 840.189 134.233 840.456 134.745C840.733 135.246 841.101 135.646 841.56 135.945C842.019 136.233 842.525 136.377 843.08 136.377C843.635 136.377 844.141 136.227 844.6 135.929C845.059 135.63 845.427 135.225 845.704 134.713C845.981 134.19 846.12 133.625 846.12 133.017C846.12 132.398 845.981 131.833 845.704 131.321C845.427 130.809 845.059 130.403 844.6 130.105C844.141 129.806 843.635 129.657 843.08 129.657C842.525 129.657 842.019 129.811 841.56 130.121C841.112 130.43 840.749 130.841 840.472 131.353C840.195 131.854 840.056 132.419 840.056 133.049ZM848.964 133.737V128.841H850.052V133.545C850.052 134.494 850.212 135.203 850.532 135.673C850.862 136.142 851.348 136.377 851.988 136.377C852.414 136.377 852.825 136.286 853.22 136.105C853.625 135.913 853.982 135.646 854.292 135.305C854.601 134.953 854.836 134.547 854.996 134.089V128.841H856.084V135.865C856.084 136.014 856.116 136.126 856.18 136.201C856.244 136.265 856.34 136.302 856.468 136.313V137.177C856.34 137.187 856.238 137.193 856.164 137.193C856.089 137.203 856.02 137.209 855.956 137.209C855.742 137.187 855.556 137.102 855.396 136.953C855.246 136.803 855.166 136.622 855.156 136.409L855.124 135.289C854.761 135.929 854.265 136.43 853.636 136.793C853.017 137.155 852.345 137.337 851.62 137.337C850.745 137.337 850.084 137.033 849.636 136.425C849.188 135.817 848.964 134.921 848.964 133.737ZM865.552 137.177H864.464V132.521C864.464 131.539 864.32 130.825 864.032 130.377C863.744 129.918 863.29 129.689 862.672 129.689C862.245 129.689 861.824 129.795 861.408 130.009C860.992 130.211 860.624 130.494 860.304 130.857C859.994 131.209 859.77 131.614 859.632 132.073V137.177H858.544V128.841H859.536V130.729C859.76 130.323 860.053 129.971 860.416 129.673C860.778 129.363 861.189 129.123 861.648 128.953C862.106 128.782 862.581 128.697 863.072 128.697C863.53 128.697 863.92 128.782 864.24 128.953C864.56 129.123 864.816 129.369 865.008 129.689C865.2 129.998 865.338 130.377 865.424 130.825C865.509 131.262 865.552 131.753 865.552 132.297V137.177ZM871.794 136.777C871.708 136.809 871.575 136.867 871.394 136.953C871.212 137.038 870.994 137.113 870.738 137.177C870.482 137.241 870.204 137.273 869.906 137.273C869.596 137.273 869.303 137.214 869.026 137.097C868.759 136.979 868.546 136.803 868.386 136.569C868.226 136.323 868.146 136.025 868.146 135.673V129.705H866.994V128.841H868.146V126.025H869.234V128.841H871.154V129.705H869.234V135.369C869.255 135.667 869.362 135.891 869.554 136.041C869.756 136.19 869.986 136.265 870.242 136.265C870.54 136.265 870.812 136.217 871.058 136.121C871.303 136.014 871.452 135.939 871.506 135.897L871.794 136.777Z" fill="#8A8FB9"/>
<path d="M785.924 168.305V156.945H789.78C790.985 156.945 791.988 157.201 792.788 157.713C793.599 158.214 794.207 158.897 794.612 159.761C795.017 160.614 795.22 161.563 795.22 162.609C795.22 163.761 794.996 164.763 794.548 165.617C794.111 166.47 793.481 167.131 792.66 167.601C791.849 168.07 790.889 168.305 789.78 168.305H785.924ZM794.1 162.609C794.1 161.702 793.929 160.897 793.588 160.193C793.257 159.489 792.772 158.939 792.132 158.545C791.492 158.139 790.708 157.937 789.78 157.937H787.044V167.313H789.78C790.719 167.313 791.508 167.105 792.148 166.689C792.788 166.273 793.273 165.713 793.604 165.009C793.935 164.294 794.1 163.494 794.1 162.609ZM797.138 168.305V159.969H798.226V168.305H797.138ZM797.138 158.225V156.625H798.226V158.225H797.138ZM803.358 168.465C802.675 168.465 802.041 168.353 801.454 168.129C800.867 167.905 800.361 167.563 799.934 167.105L800.382 166.337C800.851 166.774 801.321 167.094 801.79 167.297C802.27 167.489 802.777 167.585 803.31 167.585C803.961 167.585 804.489 167.457 804.894 167.201C805.299 166.934 805.502 166.555 805.502 166.065C805.502 165.734 805.401 165.483 805.198 165.313C805.006 165.131 804.723 164.987 804.35 164.881C803.987 164.763 803.55 164.641 803.038 164.513C802.462 164.353 801.977 164.187 801.582 164.017C801.198 163.835 800.905 163.611 800.702 163.345C800.51 163.067 800.414 162.71 800.414 162.273C800.414 161.729 800.547 161.281 800.814 160.929C801.091 160.566 801.465 160.294 801.934 160.113C802.414 159.921 802.947 159.825 803.534 159.825C804.174 159.825 804.739 159.926 805.23 160.129C805.721 160.331 806.121 160.614 806.43 160.977L805.902 161.713C805.603 161.371 805.246 161.121 804.83 160.961C804.425 160.79 803.971 160.705 803.47 160.705C803.129 160.705 802.803 160.753 802.494 160.849C802.185 160.934 801.929 161.083 801.726 161.297C801.534 161.499 801.438 161.782 801.438 162.145C801.438 162.443 801.513 162.678 801.662 162.849C801.811 163.009 802.035 163.147 802.334 163.265C802.633 163.371 803.001 163.489 803.438 163.617C804.067 163.787 804.617 163.963 805.086 164.145C805.555 164.315 805.918 164.539 806.174 164.817C806.43 165.094 806.558 165.483 806.558 165.985C806.558 166.763 806.265 167.371 805.678 167.809C805.091 168.246 804.318 168.465 803.358 168.465ZM811.972 168.465C811.364 168.465 810.804 168.353 810.292 168.129C809.791 167.894 809.348 167.574 808.964 167.169C808.591 166.763 808.298 166.299 808.084 165.777C807.882 165.254 807.78 164.699 807.78 164.113C807.78 163.323 807.956 162.603 808.308 161.953C808.66 161.302 809.151 160.785 809.78 160.401C810.41 160.017 811.135 159.825 811.956 159.825C812.735 159.825 813.423 160.006 814.02 160.369C814.618 160.721 815.06 161.201 815.348 161.809L814.292 162.145C814.058 161.718 813.727 161.387 813.3 161.153C812.884 160.907 812.42 160.785 811.908 160.785C811.354 160.785 810.847 160.929 810.388 161.217C809.93 161.505 809.562 161.899 809.284 162.401C809.018 162.902 808.884 163.473 808.884 164.113C808.884 164.742 809.023 165.313 809.3 165.825C809.578 166.337 809.946 166.747 810.404 167.057C810.863 167.355 811.37 167.505 811.924 167.505C812.287 167.505 812.634 167.441 812.964 167.313C813.306 167.185 813.599 167.014 813.844 166.801C814.1 166.577 814.271 166.337 814.356 166.081L815.428 166.401C815.279 166.795 815.028 167.153 814.676 167.473C814.335 167.782 813.93 168.027 813.46 168.209C813.002 168.379 812.506 168.465 811.972 168.465ZM820.611 168.465C820.014 168.465 819.459 168.353 818.947 168.129C818.446 167.894 818.009 167.579 817.635 167.185C817.273 166.779 816.99 166.321 816.787 165.809C816.585 165.286 816.483 164.737 816.483 164.161C816.483 163.563 816.585 163.009 816.787 162.497C816.99 161.974 817.278 161.515 817.651 161.121C818.025 160.715 818.462 160.401 818.963 160.177C819.475 159.942 820.03 159.825 820.627 159.825C821.225 159.825 821.774 159.942 822.275 160.177C822.777 160.401 823.214 160.715 823.587 161.121C823.961 161.515 824.249 161.974 824.451 162.497C824.654 163.009 824.755 163.563 824.755 164.161C824.755 164.737 824.654 165.286 824.451 165.809C824.249 166.321 823.961 166.779 823.587 167.185C823.225 167.579 822.787 167.894 822.275 168.129C821.774 168.353 821.219 168.465 820.611 168.465ZM817.587 164.177C817.587 164.795 817.721 165.361 817.987 165.873C818.265 166.374 818.633 166.774 819.091 167.073C819.55 167.361 820.057 167.505 820.611 167.505C821.166 167.505 821.673 167.355 822.131 167.057C822.59 166.758 822.958 166.353 823.235 165.841C823.513 165.318 823.651 164.753 823.651 164.145C823.651 163.526 823.513 162.961 823.235 162.449C822.958 161.937 822.59 161.531 822.131 161.233C821.673 160.934 821.166 160.785 820.611 160.785C820.057 160.785 819.55 160.939 819.091 161.249C818.643 161.558 818.281 161.969 818.003 162.481C817.726 162.982 817.587 163.547 817.587 164.177ZM826.495 164.865V159.969H827.583V164.673C827.583 165.622 827.743 166.331 828.063 166.801C828.394 167.27 828.879 167.505 829.519 167.505C829.946 167.505 830.356 167.414 830.751 167.233C831.156 167.041 831.514 166.774 831.823 166.433C832.132 166.081 832.367 165.675 832.527 165.217V159.969H833.615V166.993C833.615 167.142 833.647 167.254 833.711 167.329C833.775 167.393 833.871 167.43 833.999 167.441V168.305C833.871 168.315 833.77 168.321 833.695 168.321C833.62 168.331 833.551 168.337 833.487 168.337C833.274 168.315 833.087 168.23 832.927 168.081C832.778 167.931 832.698 167.75 832.687 167.537L832.655 166.417C832.292 167.057 831.796 167.558 831.167 167.921C830.548 168.283 829.876 168.465 829.151 168.465C828.276 168.465 827.615 168.161 827.167 167.553C826.719 166.945 826.495 166.049 826.495 164.865ZM843.083 168.305H841.995V163.649C841.995 162.667 841.851 161.953 841.563 161.505C841.275 161.046 840.822 160.817 840.203 160.817C839.776 160.817 839.355 160.923 838.939 161.137C838.523 161.339 838.155 161.622 837.835 161.985C837.526 162.337 837.302 162.742 837.163 163.201V168.305H836.075V159.969H837.067V161.857C837.291 161.451 837.584 161.099 837.947 160.801C838.31 160.491 838.72 160.251 839.179 160.081C839.638 159.91 840.112 159.825 840.603 159.825C841.062 159.825 841.451 159.91 841.771 160.081C842.091 160.251 842.347 160.497 842.539 160.817C842.731 161.126 842.87 161.505 842.955 161.953C843.04 162.39 843.083 162.881 843.083 163.425V168.305ZM849.325 167.905C849.24 167.937 849.106 167.995 848.925 168.081C848.744 168.166 848.525 168.241 848.269 168.305C848.013 168.369 847.736 168.401 847.437 168.401C847.128 168.401 846.834 168.342 846.557 168.225C846.29 168.107 846.077 167.931 845.917 167.697C845.757 167.451 845.677 167.153 845.677 166.801V160.833H844.525V159.969H845.677V157.153H846.765V159.969H848.685V160.833H846.765V166.497C846.786 166.795 846.893 167.019 847.085 167.169C847.288 167.318 847.517 167.393 847.773 167.393C848.072 167.393 848.344 167.345 848.589 167.249C848.834 167.142 848.984 167.067 849.037 167.025L849.325 167.905Z" fill="#8A8FB9"/>
<path d="M785.924 199.432V188.072H790.724C791.215 188.072 791.663 188.173 792.068 188.376C792.473 188.579 792.825 188.856 793.124 189.208C793.433 189.549 793.668 189.933 793.828 190.36C793.999 190.776 794.084 191.203 794.084 191.64C794.084 192.184 793.977 192.696 793.764 193.176C793.561 193.656 793.268 194.061 792.884 194.392C792.511 194.723 792.068 194.941 791.556 195.048L794.34 199.432H793.076L790.404 195.24H787.044V199.432H785.924ZM787.044 194.248H790.756C791.204 194.248 791.593 194.125 791.924 193.88C792.255 193.635 792.511 193.315 792.692 192.92C792.873 192.515 792.964 192.088 792.964 191.64C792.964 191.181 792.857 190.76 792.644 190.376C792.441 189.981 792.164 189.667 791.812 189.432C791.471 189.187 791.087 189.064 790.66 189.064H787.044V194.248ZM799.503 199.592C798.906 199.592 798.351 199.48 797.839 199.256C797.327 199.021 796.884 198.707 796.511 198.312C796.138 197.907 795.844 197.443 795.631 196.92C795.428 196.397 795.327 195.837 795.327 195.24C795.327 194.461 795.503 193.747 795.855 193.096C796.218 192.445 796.714 191.928 797.343 191.544C797.972 191.149 798.687 190.952 799.487 190.952C800.308 190.952 801.023 191.149 801.631 191.544C802.25 191.939 802.735 192.461 803.087 193.112C803.439 193.752 803.615 194.456 803.615 195.224C803.615 195.309 803.615 195.395 803.615 195.48C803.615 195.555 803.61 195.613 803.599 195.656H796.463C796.516 196.253 796.682 196.787 796.959 197.256C797.247 197.715 797.615 198.083 798.063 198.36C798.522 198.627 799.018 198.76 799.551 198.76C800.095 198.76 800.607 198.621 801.087 198.344C801.578 198.067 801.919 197.704 802.111 197.256L803.055 197.512C802.884 197.907 802.623 198.264 802.271 198.584C801.919 198.904 801.503 199.155 801.023 199.336C800.554 199.507 800.047 199.592 799.503 199.592ZM796.431 194.872H802.591C802.548 194.264 802.383 193.731 802.095 193.272C801.818 192.813 801.45 192.456 800.991 192.2C800.543 191.933 800.047 191.8 799.503 191.8C798.959 191.8 798.463 191.933 798.015 192.2C797.567 192.456 797.199 192.819 796.911 193.288C796.634 193.747 796.474 194.275 796.431 194.872ZM809.216 199.032C809.13 199.064 808.997 199.123 808.816 199.208C808.634 199.293 808.416 199.368 808.16 199.432C807.904 199.496 807.626 199.528 807.328 199.528C807.018 199.528 806.725 199.469 806.448 199.352C806.181 199.235 805.968 199.059 805.808 198.824C805.648 198.579 805.568 198.28 805.568 197.928V191.96H804.416V191.096H805.568V188.28H806.656V191.096H808.576V191.96H806.656V197.624C806.677 197.923 806.784 198.147 806.976 198.296C807.178 198.445 807.408 198.52 807.664 198.52C807.962 198.52 808.234 198.472 808.48 198.376C808.725 198.269 808.874 198.195 808.928 198.152L809.216 199.032ZM810.495 195.992V191.096H811.583V195.8C811.583 196.749 811.743 197.459 812.063 197.928C812.394 198.397 812.879 198.632 813.519 198.632C813.946 198.632 814.356 198.541 814.751 198.36C815.156 198.168 815.514 197.901 815.823 197.56C816.132 197.208 816.367 196.803 816.527 196.344V191.096H817.615V198.12C817.615 198.269 817.647 198.381 817.711 198.456C817.775 198.52 817.871 198.557 817.999 198.568V199.432C817.871 199.443 817.77 199.448 817.695 199.448C817.62 199.459 817.551 199.464 817.487 199.464C817.274 199.443 817.087 199.357 816.927 199.208C816.778 199.059 816.698 198.877 816.687 198.664L816.655 197.544C816.292 198.184 815.796 198.685 815.167 199.048C814.548 199.411 813.876 199.592 813.151 199.592C812.276 199.592 811.615 199.288 811.167 198.68C810.719 198.072 810.495 197.176 810.495 195.992ZM824.235 192.056C823.51 192.077 822.87 192.28 822.315 192.664C821.771 193.048 821.387 193.576 821.163 194.248V199.432H820.075V191.096H821.099V193.096C821.387 192.509 821.766 192.035 822.235 191.672C822.715 191.309 823.222 191.107 823.755 191.064C823.862 191.053 823.952 191.048 824.027 191.048C824.112 191.048 824.182 191.053 824.235 191.064V192.056ZM832.692 199.432H831.604V194.776C831.604 193.795 831.46 193.08 831.172 192.632C830.884 192.173 830.431 191.944 829.812 191.944C829.386 191.944 828.964 192.051 828.548 192.264C828.132 192.467 827.764 192.749 827.444 193.112C827.135 193.464 826.911 193.869 826.772 194.328V199.432H825.684V191.096H826.676V192.984C826.9 192.579 827.194 192.227 827.556 191.928C827.919 191.619 828.33 191.379 828.788 191.208C829.247 191.037 829.722 190.952 830.212 190.952C830.671 190.952 831.06 191.037 831.38 191.208C831.7 191.379 831.956 191.624 832.148 191.944C832.34 192.253 832.479 192.632 832.564 193.08C832.65 193.517 832.692 194.008 832.692 194.552V199.432ZM837.749 199.592C837.066 199.592 836.431 199.48 835.845 199.256C835.258 199.032 834.751 198.691 834.325 198.232L834.773 197.464C835.242 197.901 835.711 198.221 836.181 198.424C836.661 198.616 837.167 198.712 837.701 198.712C838.351 198.712 838.879 198.584 839.285 198.328C839.69 198.061 839.893 197.683 839.893 197.192C839.893 196.861 839.791 196.611 839.589 196.44C839.397 196.259 839.114 196.115 838.741 196.008C838.378 195.891 837.941 195.768 837.429 195.64C836.853 195.48 836.367 195.315 835.973 195.144C835.589 194.963 835.295 194.739 835.093 194.472C834.901 194.195 834.805 193.837 834.805 193.4C834.805 192.856 834.938 192.408 835.205 192.056C835.482 191.693 835.855 191.421 836.325 191.24C836.805 191.048 837.338 190.952 837.924 190.952C838.565 190.952 839.13 191.053 839.621 191.256C840.111 191.459 840.511 191.741 840.821 192.104L840.293 192.84C839.994 192.499 839.637 192.248 839.221 192.088C838.815 191.917 838.362 191.832 837.861 191.832C837.519 191.832 837.194 191.88 836.885 191.976C836.575 192.061 836.319 192.211 836.117 192.424C835.925 192.627 835.829 192.909 835.829 193.272C835.829 193.571 835.903 193.805 836.053 193.976C836.202 194.136 836.426 194.275 836.725 194.392C837.023 194.499 837.391 194.616 837.829 194.744C838.458 194.915 839.007 195.091 839.477 195.272C839.946 195.443 840.309 195.667 840.565 195.944C840.821 196.221 840.949 196.611 840.949 197.112C840.949 197.891 840.655 198.499 840.069 198.936C839.482 199.373 838.709 199.592 837.749 199.592Z" fill="#8A8FB9"/>
<path d="M790.5 230.64C789.7 230.64 788.975 230.48 788.324 230.16C787.673 229.84 787.113 229.408 786.644 228.864C786.175 228.309 785.812 227.691 785.556 227.008C785.3 226.315 785.172 225.605 785.172 224.88C785.172 224.123 785.305 223.403 785.572 222.72C785.839 222.027 786.212 221.413 786.692 220.88C787.183 220.336 787.753 219.909 788.404 219.6C789.055 219.28 789.759 219.12 790.516 219.12C791.316 219.12 792.041 219.285 792.692 219.616C793.343 219.947 793.897 220.389 794.356 220.944C794.825 221.499 795.188 222.117 795.444 222.8C795.7 223.483 795.828 224.181 795.828 224.896C795.828 225.653 795.695 226.379 795.428 227.072C795.161 227.755 794.788 228.368 794.308 228.912C793.828 229.445 793.263 229.867 792.612 230.176C791.961 230.485 791.257 230.64 790.5 230.64ZM786.292 224.88C786.292 225.499 786.393 226.096 786.596 226.672C786.799 227.237 787.087 227.744 787.46 228.192C787.833 228.629 788.276 228.981 788.788 229.248C789.311 229.504 789.881 229.632 790.5 229.632C791.151 229.632 791.732 229.499 792.244 229.232C792.767 228.955 793.209 228.592 793.572 228.144C793.945 227.685 794.228 227.173 794.42 226.608C794.612 226.043 794.708 225.467 794.708 224.88C794.708 224.261 794.607 223.669 794.404 223.104C794.201 222.539 793.908 222.032 793.524 221.584C793.151 221.136 792.708 220.784 792.196 220.528C791.684 220.272 791.119 220.144 790.5 220.144C789.86 220.144 789.279 220.277 788.756 220.544C788.244 220.811 787.801 221.173 787.428 221.632C787.065 222.08 786.783 222.587 786.58 223.152C786.388 223.717 786.292 224.293 786.292 224.88ZM801.813 223.184C801.088 223.205 800.448 223.408 799.893 223.792C799.349 224.176 798.965 224.704 798.741 225.376V230.56H797.653V222.224H798.677V224.224C798.965 223.637 799.344 223.163 799.813 222.8C800.293 222.437 800.8 222.235 801.333 222.192C801.44 222.181 801.53 222.176 801.605 222.176C801.69 222.176 801.76 222.181 801.813 222.192V223.184ZM802.468 226.416C802.468 225.627 802.628 224.907 802.948 224.256C803.279 223.595 803.732 223.067 804.308 222.672C804.884 222.277 805.54 222.08 806.276 222.08C806.969 222.08 807.588 222.267 808.132 222.64C808.687 223.003 809.119 223.445 809.428 223.968V218.88H810.516V229.248C810.516 229.397 810.548 229.509 810.612 229.584C810.676 229.648 810.772 229.685 810.9 229.696V230.56C810.687 230.592 810.521 230.603 810.404 230.592C810.18 230.581 809.983 230.491 809.812 230.32C809.641 230.149 809.556 229.963 809.556 229.76V228.944C809.225 229.488 808.777 229.92 808.212 230.24C807.647 230.56 807.06 230.72 806.452 230.72C805.876 230.72 805.343 230.603 804.852 230.368C804.372 230.133 803.951 229.813 803.588 229.408C803.236 229.003 802.959 228.544 802.756 228.032C802.564 227.509 802.468 226.971 802.468 226.416ZM809.428 227.696V225.12C809.289 224.736 809.065 224.389 808.756 224.08C808.447 223.76 808.095 223.509 807.7 223.328C807.316 223.136 806.932 223.04 806.548 223.04C806.1 223.04 805.695 223.136 805.332 223.328C804.969 223.509 804.655 223.76 804.388 224.08C804.132 224.4 803.935 224.763 803.796 225.168C803.657 225.573 803.588 225.989 803.588 226.416C803.588 226.864 803.663 227.291 803.812 227.696C803.972 228.101 804.196 228.464 804.484 228.784C804.772 229.093 805.103 229.333 805.476 229.504C805.849 229.675 806.255 229.76 806.692 229.76C806.969 229.76 807.257 229.707 807.556 229.6C807.855 229.493 808.137 229.349 808.404 229.168C808.681 228.976 808.911 228.752 809.092 228.496C809.273 228.24 809.385 227.973 809.428 227.696ZM816.581 230.72C815.984 230.72 815.429 230.608 814.917 230.384C814.405 230.149 813.963 229.835 813.589 229.44C813.216 229.035 812.923 228.571 812.709 228.048C812.507 227.525 812.405 226.965 812.405 226.368C812.405 225.589 812.581 224.875 812.933 224.224C813.296 223.573 813.792 223.056 814.421 222.672C815.051 222.277 815.765 222.08 816.565 222.08C817.387 222.08 818.101 222.277 818.709 222.672C819.328 223.067 819.813 223.589 820.165 224.24C820.517 224.88 820.693 225.584 820.693 226.352C820.693 226.437 820.693 226.523 820.693 226.608C820.693 226.683 820.688 226.741 820.677 226.784H813.541C813.595 227.381 813.76 227.915 814.037 228.384C814.325 228.843 814.693 229.211 815.141 229.488C815.6 229.755 816.096 229.888 816.629 229.888C817.173 229.888 817.685 229.749 818.165 229.472C818.656 229.195 818.997 228.832 819.189 228.384L820.133 228.64C819.963 229.035 819.701 229.392 819.349 229.712C818.997 230.032 818.581 230.283 818.101 230.464C817.632 230.635 817.125 230.72 816.581 230.72ZM813.509 226H819.669C819.627 225.392 819.461 224.859 819.173 224.4C818.896 223.941 818.528 223.584 818.069 223.328C817.621 223.061 817.125 222.928 816.581 222.928C816.037 222.928 815.541 223.061 815.093 223.328C814.645 223.584 814.277 223.947 813.989 224.416C813.712 224.875 813.552 225.403 813.509 226ZM826.532 223.184C825.807 223.205 825.167 223.408 824.612 223.792C824.068 224.176 823.684 224.704 823.46 225.376V230.56H822.372V222.224H823.396V224.224C823.684 223.637 824.063 223.163 824.532 222.8C825.012 222.437 825.519 222.235 826.052 222.192C826.159 222.181 826.249 222.176 826.324 222.176C826.409 222.176 826.479 222.181 826.532 222.192V223.184ZM830.717 230.72C830.035 230.72 829.4 230.608 828.813 230.384C828.227 230.16 827.72 229.819 827.293 229.36L827.741 228.592C828.211 229.029 828.68 229.349 829.149 229.552C829.629 229.744 830.136 229.84 830.669 229.84C831.32 229.84 831.848 229.712 832.253 229.456C832.659 229.189 832.861 228.811 832.861 228.32C832.861 227.989 832.76 227.739 832.557 227.568C832.365 227.387 832.083 227.243 831.709 227.136C831.347 227.019 830.909 226.896 830.397 226.768C829.821 226.608 829.336 226.443 828.941 226.272C828.557 226.091 828.264 225.867 828.061 225.6C827.869 225.323 827.773 224.965 827.773 224.528C827.773 223.984 827.907 223.536 828.173 223.184C828.451 222.821 828.824 222.549 829.293 222.368C829.773 222.176 830.307 222.08 830.893 222.08C831.533 222.08 832.099 222.181 832.589 222.384C833.08 222.587 833.48 222.869 833.789 223.232L833.261 223.968C832.963 223.627 832.605 223.376 832.189 223.216C831.784 223.045 831.331 222.96 830.829 222.96C830.488 222.96 830.163 223.008 829.853 223.104C829.544 223.189 829.288 223.339 829.085 223.552C828.893 223.755 828.797 224.037 828.797 224.4C828.797 224.699 828.872 224.933 829.021 225.104C829.171 225.264 829.395 225.403 829.693 225.52C829.992 225.627 830.36 225.744 830.797 225.872C831.427 226.043 831.976 226.219 832.445 226.4C832.915 226.571 833.277 226.795 833.533 227.072C833.789 227.349 833.917 227.739 833.917 228.24C833.917 229.019 833.624 229.627 833.037 230.064C832.451 230.501 831.677 230.72 830.717 230.72ZM848.978 219.2V230.56H847.874V225.248H841.138V230.56H840.018V219.2H841.138V224.256H847.874V219.2H848.978ZM851.606 230.56V222.224H852.694V230.56H851.606ZM851.606 220.48V218.88H852.694V220.48H851.606ZM857.827 230.72C857.144 230.72 856.509 230.608 855.923 230.384C855.336 230.16 854.829 229.819 854.403 229.36L854.851 228.592C855.32 229.029 855.789 229.349 856.259 229.552C856.739 229.744 857.245 229.84 857.779 229.84C858.429 229.84 858.957 229.712 859.363 229.456C859.768 229.189 859.971 228.811 859.971 228.32C859.971 227.989 859.869 227.739 859.667 227.568C859.475 227.387 859.192 227.243 858.819 227.136C858.456 227.019 858.019 226.896 857.507 226.768C856.931 226.608 856.445 226.443 856.051 226.272C855.667 226.091 855.373 225.867 855.171 225.6C854.979 225.323 854.883 224.965 854.883 224.528C854.883 223.984 855.016 223.536 855.283 223.184C855.56 222.821 855.933 222.549 856.403 222.368C856.883 222.176 857.416 222.08 858.003 222.08C858.643 222.08 859.208 222.181 859.699 222.384C860.189 222.587 860.589 222.869 860.899 223.232L860.371 223.968C860.072 223.627 859.715 223.376 859.299 223.216C858.893 223.045 858.44 222.96 857.939 222.96C857.597 222.96 857.272 223.008 856.963 223.104C856.653 223.189 856.397 223.339 856.195 223.552C856.003 223.755 855.907 224.037 855.907 224.4C855.907 224.699 855.981 224.933 856.131 225.104C856.28 225.264 856.504 225.403 856.803 225.52C857.101 225.627 857.469 225.744 857.907 225.872C858.536 226.043 859.085 226.219 859.555 226.4C860.024 226.571 860.387 226.795 860.643 227.072C860.899 227.349 861.027 227.739 861.027 228.24C861.027 229.019 860.733 229.627 860.147 230.064C859.56 230.501 858.787 230.72 857.827 230.72ZM866.825 230.16C866.74 230.192 866.606 230.251 866.425 230.336C866.244 230.421 866.025 230.496 865.769 230.56C865.513 230.624 865.236 230.656 864.937 230.656C864.628 230.656 864.334 230.597 864.057 230.48C863.79 230.363 863.577 230.187 863.417 229.952C863.257 229.707 863.177 229.408 863.177 229.056V223.088H862.025V222.224H863.177V219.408H864.265V222.224H866.185V223.088H864.265V228.752C864.286 229.051 864.393 229.275 864.585 229.424C864.788 229.573 865.017 229.648 865.273 229.648C865.572 229.648 865.844 229.6 866.089 229.504C866.334 229.397 866.484 229.323 866.537 229.28L866.825 230.16ZM871.596 230.72C870.998 230.72 870.444 230.608 869.932 230.384C869.43 230.149 868.993 229.835 868.62 229.44C868.257 229.035 867.974 228.576 867.772 228.064C867.569 227.541 867.468 226.992 867.468 226.416C867.468 225.819 867.569 225.264 867.772 224.752C867.974 224.229 868.262 223.771 868.636 223.376C869.009 222.971 869.446 222.656 869.948 222.432C870.46 222.197 871.014 222.08 871.612 222.08C872.209 222.08 872.758 222.197 873.26 222.432C873.761 222.656 874.198 222.971 874.572 223.376C874.945 223.771 875.233 224.229 875.436 224.752C875.638 225.264 875.74 225.819 875.74 226.416C875.74 226.992 875.638 227.541 875.436 228.064C875.233 228.576 874.945 229.035 874.572 229.44C874.209 229.835 873.772 230.149 873.26 230.384C872.758 230.608 872.204 230.72 871.596 230.72ZM868.572 226.432C868.572 227.051 868.705 227.616 868.972 228.128C869.249 228.629 869.617 229.029 870.076 229.328C870.534 229.616 871.041 229.76 871.596 229.76C872.15 229.76 872.657 229.611 873.116 229.312C873.574 229.013 873.942 228.608 874.22 228.096C874.497 227.573 874.636 227.008 874.636 226.4C874.636 225.781 874.497 225.216 874.22 224.704C873.942 224.192 873.574 223.787 873.116 223.488C872.657 223.189 872.15 223.04 871.596 223.04C871.041 223.04 870.534 223.195 870.076 223.504C869.628 223.813 869.265 224.224 868.988 224.736C868.71 225.237 868.572 225.803 868.572 226.432ZM881.719 223.184C880.994 223.205 880.354 223.408 879.799 223.792C879.255 224.176 878.871 224.704 878.647 225.376V230.56H877.559V222.224H878.583V224.224C878.871 223.637 879.25 223.163 879.719 222.8C880.199 222.437 880.706 222.235 881.239 222.192C881.346 222.181 881.437 222.176 881.511 222.176C881.597 222.176 881.666 222.181 881.719 222.192V223.184ZM883.649 233.12C883.798 233.131 883.942 233.136 884.081 233.136C884.219 233.147 884.321 233.141 884.385 233.12C884.513 233.099 884.635 233.024 884.753 232.896C884.87 232.768 885.009 232.523 885.169 232.16C885.329 231.797 885.553 231.264 885.841 230.56L882.209 222.224H883.361L886.417 229.44L889.233 222.224H890.321L886.001 232.976C885.926 233.179 885.814 233.365 885.665 233.536C885.515 233.717 885.329 233.856 885.105 233.952C884.891 234.059 884.625 234.117 884.305 234.128C884.209 234.139 884.107 234.139 884.001 234.128C883.905 234.128 883.787 234.117 883.649 234.096V233.12Z" fill="#8A8FB9"/>
<path d="M790.5 261.768C789.7 261.768 788.975 261.608 788.324 261.288C787.673 260.968 787.113 260.536 786.644 259.992C786.175 259.437 785.812 258.819 785.556 258.136C785.3 257.443 785.172 256.733 785.172 256.008C785.172 255.251 785.305 254.531 785.572 253.848C785.839 253.155 786.212 252.541 786.692 252.008C787.183 251.464 787.753 251.037 788.404 250.728C789.055 250.408 789.759 250.248 790.516 250.248C791.316 250.248 792.041 250.413 792.692 250.744C793.343 251.075 793.897 251.517 794.356 252.072C794.825 252.627 795.188 253.245 795.444 253.928C795.7 254.611 795.828 255.309 795.828 256.024C795.828 256.781 795.695 257.507 795.428 258.2C795.161 258.883 794.788 259.496 794.308 260.04C793.828 260.573 793.263 260.995 792.612 261.304C791.961 261.613 791.257 261.768 790.5 261.768ZM786.292 256.008C786.292 256.627 786.393 257.224 786.596 257.8C786.799 258.365 787.087 258.872 787.46 259.32C787.833 259.757 788.276 260.109 788.788 260.376C789.311 260.632 789.881 260.76 790.5 260.76C791.151 260.76 791.732 260.627 792.244 260.36C792.767 260.083 793.209 259.72 793.572 259.272C793.945 258.813 794.228 258.301 794.42 257.736C794.612 257.171 794.708 256.595 794.708 256.008C794.708 255.389 794.607 254.797 794.404 254.232C794.201 253.667 793.908 253.16 793.524 252.712C793.151 252.264 792.708 251.912 792.196 251.656C791.684 251.4 791.119 251.272 790.5 251.272C789.86 251.272 789.279 251.405 788.756 251.672C788.244 251.939 787.801 252.301 787.428 252.76C787.065 253.208 786.783 253.715 786.58 254.28C786.388 254.845 786.292 255.421 786.292 256.008ZM801.813 254.312C801.088 254.333 800.448 254.536 799.893 254.92C799.349 255.304 798.965 255.832 798.741 256.504V261.688H797.653V253.352H798.677V255.352C798.965 254.765 799.344 254.291 799.813 253.928C800.293 253.565 800.8 253.363 801.333 253.32C801.44 253.309 801.53 253.304 801.605 253.304C801.69 253.304 801.76 253.309 801.813 253.32V254.312ZM802.468 257.544C802.468 256.755 802.628 256.035 802.948 255.384C803.279 254.723 803.732 254.195 804.308 253.8C804.884 253.405 805.54 253.208 806.276 253.208C806.969 253.208 807.588 253.395 808.132 253.768C808.687 254.131 809.119 254.573 809.428 255.096V250.008H810.516V260.376C810.516 260.525 810.548 260.637 810.612 260.712C810.676 260.776 810.772 260.813 810.9 260.824V261.688C810.687 261.72 810.521 261.731 810.404 261.72C810.18 261.709 809.983 261.619 809.812 261.448C809.641 261.277 809.556 261.091 809.556 260.888V260.072C809.225 260.616 808.777 261.048 808.212 261.368C807.647 261.688 807.06 261.848 806.452 261.848C805.876 261.848 805.343 261.731 804.852 261.496C804.372 261.261 803.951 260.941 803.588 260.536C803.236 260.131 802.959 259.672 802.756 259.16C802.564 258.637 802.468 258.099 802.468 257.544ZM809.428 258.824V256.248C809.289 255.864 809.065 255.517 808.756 255.208C808.447 254.888 808.095 254.637 807.7 254.456C807.316 254.264 806.932 254.168 806.548 254.168C806.1 254.168 805.695 254.264 805.332 254.456C804.969 254.637 804.655 254.888 804.388 255.208C804.132 255.528 803.935 255.891 803.796 256.296C803.657 256.701 803.588 257.117 803.588 257.544C803.588 257.992 803.663 258.419 803.812 258.824C803.972 259.229 804.196 259.592 804.484 259.912C804.772 260.221 805.103 260.461 805.476 260.632C805.849 260.803 806.255 260.888 806.692 260.888C806.969 260.888 807.257 260.835 807.556 260.728C807.855 260.621 808.137 260.477 808.404 260.296C808.681 260.104 808.911 259.88 809.092 259.624C809.273 259.368 809.385 259.101 809.428 258.824ZM816.581 261.848C815.984 261.848 815.429 261.736 814.917 261.512C814.405 261.277 813.963 260.963 813.589 260.568C813.216 260.163 812.923 259.699 812.709 259.176C812.507 258.653 812.405 258.093 812.405 257.496C812.405 256.717 812.581 256.003 812.933 255.352C813.296 254.701 813.792 254.184 814.421 253.8C815.051 253.405 815.765 253.208 816.565 253.208C817.387 253.208 818.101 253.405 818.709 253.8C819.328 254.195 819.813 254.717 820.165 255.368C820.517 256.008 820.693 256.712 820.693 257.48C820.693 257.565 820.693 257.651 820.693 257.736C820.693 257.811 820.688 257.869 820.677 257.912H813.541C813.595 258.509 813.76 259.043 814.037 259.512C814.325 259.971 814.693 260.339 815.141 260.616C815.6 260.883 816.096 261.016 816.629 261.016C817.173 261.016 817.685 260.877 818.165 260.6C818.656 260.323 818.997 259.96 819.189 259.512L820.133 259.768C819.963 260.163 819.701 260.52 819.349 260.84C818.997 261.16 818.581 261.411 818.101 261.592C817.632 261.763 817.125 261.848 816.581 261.848ZM813.509 257.128H819.669C819.627 256.52 819.461 255.987 819.173 255.528C818.896 255.069 818.528 254.712 818.069 254.456C817.621 254.189 817.125 254.056 816.581 254.056C816.037 254.056 815.541 254.189 815.093 254.456C814.645 254.712 814.277 255.075 813.989 255.544C813.712 256.003 813.552 256.531 813.509 257.128ZM826.532 254.312C825.807 254.333 825.167 254.536 824.612 254.92C824.068 255.304 823.684 255.832 823.46 256.504V261.688H822.372V253.352H823.396V255.352C823.684 254.765 824.063 254.291 824.532 253.928C825.012 253.565 825.519 253.363 826.052 253.32C826.159 253.309 826.249 253.304 826.324 253.304C826.409 253.304 826.479 253.309 826.532 253.32V254.312ZM839.504 251.32H835.456V261.688H834.336V251.32H830.288V250.328H839.504V251.32ZM843.704 254.312C842.978 254.333 842.338 254.536 841.784 254.92C841.24 255.304 840.856 255.832 840.632 256.504V261.688H839.544V253.352H840.568V255.352C840.856 254.765 841.234 254.291 841.704 253.928C842.184 253.565 842.69 253.363 843.224 253.32C843.33 253.309 843.421 253.304 843.496 253.304C843.581 253.304 843.65 253.309 843.704 253.32V254.312ZM844.45 259.288C844.45 258.765 844.599 258.317 844.898 257.944C845.197 257.56 845.607 257.267 846.13 257.064C846.663 256.851 847.277 256.744 847.97 256.744C848.375 256.744 848.797 256.776 849.234 256.84C849.671 256.904 850.061 257 850.402 257.128V256.424C850.402 255.72 850.194 255.16 849.778 254.744C849.362 254.328 848.786 254.12 848.05 254.12C847.602 254.12 847.159 254.205 846.722 254.376C846.295 254.536 845.847 254.776 845.378 255.096L844.962 254.328C845.506 253.955 846.039 253.677 846.562 253.496C847.085 253.304 847.618 253.208 848.162 253.208C849.186 253.208 849.997 253.501 850.594 254.088C851.191 254.675 851.49 255.485 851.49 256.52V260.376C851.49 260.525 851.522 260.637 851.586 260.712C851.65 260.776 851.751 260.813 851.89 260.824V261.688C851.773 261.699 851.671 261.709 851.586 261.72C851.501 261.731 851.437 261.731 851.394 261.72C851.127 261.709 850.925 261.624 850.786 261.464C850.647 261.304 850.573 261.133 850.562 260.952L850.546 260.344C850.173 260.824 849.687 261.197 849.09 261.464C848.493 261.72 847.885 261.848 847.266 261.848C846.733 261.848 846.247 261.736 845.81 261.512C845.383 261.277 845.047 260.968 844.802 260.584C844.567 260.189 844.45 259.757 844.45 259.288ZM850.034 259.928C850.151 259.779 850.242 259.635 850.306 259.496C850.37 259.357 850.402 259.235 850.402 259.128V257.912C850.039 257.773 849.661 257.667 849.266 257.592C848.882 257.517 848.493 257.48 848.098 257.48C847.319 257.48 846.69 257.635 846.21 257.944C845.73 258.253 845.49 258.675 845.49 259.208C845.49 259.517 845.57 259.811 845.73 260.088C845.89 260.355 846.125 260.579 846.434 260.76C846.743 260.931 847.106 261.016 847.522 261.016C848.045 261.016 848.53 260.915 848.978 260.712C849.437 260.509 849.789 260.248 850.034 259.928ZM857.457 261.848C856.849 261.848 856.289 261.736 855.777 261.512C855.275 261.277 854.833 260.957 854.449 260.552C854.075 260.147 853.782 259.683 853.569 259.16C853.366 258.637 853.265 258.083 853.265 257.496C853.265 256.707 853.441 255.987 853.793 255.336C854.145 254.685 854.635 254.168 855.265 253.784C855.894 253.4 856.619 253.208 857.441 253.208C858.219 253.208 858.907 253.389 859.505 253.752C860.102 254.104 860.545 254.584 860.833 255.192L859.777 255.528C859.542 255.101 859.211 254.771 858.785 254.536C858.369 254.291 857.905 254.168 857.393 254.168C856.838 254.168 856.331 254.312 855.873 254.6C855.414 254.888 855.046 255.283 854.769 255.784C854.502 256.285 854.369 256.856 854.369 257.496C854.369 258.125 854.507 258.696 854.785 259.208C855.062 259.72 855.43 260.131 855.889 260.44C856.347 260.739 856.854 260.888 857.409 260.888C857.771 260.888 858.118 260.824 858.449 260.696C858.79 260.568 859.083 260.397 859.329 260.184C859.585 259.96 859.755 259.72 859.841 259.464L860.913 259.784C860.763 260.179 860.513 260.536 860.161 260.856C859.819 261.165 859.414 261.411 858.945 261.592C858.486 261.763 857.99 261.848 857.457 261.848ZM868.574 261.688L865.486 257.416L863.71 259.08V261.688H862.622V250.008H863.71V257.912L868.43 253.368H869.63L866.222 256.776L869.758 261.688H868.574ZM871.106 261.688V253.352H872.194V261.688H871.106ZM871.106 251.608V250.008H872.194V251.608H871.106ZM881.599 261.688H880.511V257.032C880.511 256.051 880.367 255.336 880.079 254.888C879.791 254.429 879.337 254.2 878.719 254.2C878.292 254.2 877.871 254.307 877.455 254.52C877.039 254.723 876.671 255.005 876.351 255.368C876.041 255.72 875.817 256.125 875.679 256.584V261.688H874.591V253.352H875.583V255.24C875.807 254.835 876.1 254.483 876.463 254.184C876.825 253.875 877.236 253.635 877.695 253.464C878.153 253.293 878.628 253.208 879.119 253.208C879.577 253.208 879.967 253.293 880.287 253.464C880.607 253.635 880.863 253.88 881.055 254.2C881.247 254.509 881.385 254.888 881.471 255.336C881.556 255.773 881.599 256.264 881.599 256.808V261.688ZM887.263 261.8C886.697 261.8 886.175 261.683 885.695 261.448C885.215 261.213 884.799 260.899 884.447 260.504C884.105 260.099 883.839 259.64 883.647 259.128C883.455 258.616 883.359 258.088 883.359 257.544C883.359 256.957 883.449 256.408 883.631 255.896C883.823 255.373 884.089 254.909 884.431 254.504C884.783 254.099 885.193 253.784 885.663 253.56C886.132 253.325 886.655 253.208 887.231 253.208C887.945 253.208 888.564 253.389 889.087 253.752C889.62 254.115 890.068 254.563 890.431 255.096V253.352H891.407V261.72C891.407 262.488 891.22 263.133 890.847 263.656C890.484 264.189 889.988 264.589 889.359 264.856C888.74 265.123 888.063 265.256 887.327 265.256C886.377 265.256 885.609 265.085 885.023 264.744C884.436 264.403 883.956 263.944 883.583 263.368L884.255 262.84C884.585 263.363 885.023 263.752 885.567 264.008C886.121 264.264 886.708 264.392 887.327 264.392C887.871 264.392 888.367 264.291 888.815 264.088C889.273 263.896 889.636 263.603 889.903 263.208C890.18 262.813 890.319 262.317 890.319 261.72V260.072C889.999 260.595 889.561 261.016 889.007 261.336C888.452 261.645 887.871 261.8 887.263 261.8ZM887.567 260.888C887.897 260.888 888.212 260.829 888.511 260.712C888.82 260.595 889.103 260.44 889.359 260.248C889.615 260.045 889.828 259.821 889.999 259.576C890.169 259.331 890.276 259.08 890.319 258.824V256.248C890.159 255.843 889.929 255.485 889.631 255.176C889.332 254.856 888.991 254.611 888.607 254.44C888.233 254.259 887.844 254.168 887.439 254.168C886.969 254.168 886.548 254.269 886.175 254.472C885.812 254.664 885.503 254.925 885.247 255.256C885.001 255.576 884.809 255.939 884.671 256.344C884.532 256.749 884.463 257.155 884.463 257.56C884.463 258.008 884.543 258.435 884.703 258.84C884.863 259.235 885.081 259.592 885.359 259.912C885.647 260.221 885.977 260.461 886.351 260.632C886.735 260.803 887.14 260.888 887.567 260.888Z" fill="#8A8FB9"/>
<path d="M256.022 101.219C255.414 101.599 254.73 101.941 253.97 102.245C253.21 102.549 252.387 102.789 251.5 102.967C250.639 103.144 249.727 103.233 248.764 103.233C246.712 103.233 244.85 102.878 243.178 102.169C241.531 101.459 240.113 100.484 238.922 99.2427C237.731 97.976 236.807 96.532 236.148 94.9107C235.515 93.264 235.198 91.5287 235.198 89.7047C235.198 87.754 235.54 85.9427 236.224 84.2707C236.933 82.5734 237.909 81.0914 239.15 79.8247C240.391 78.558 241.835 77.57 243.482 76.8607C245.129 76.1514 246.902 75.7967 248.802 75.7967C250.145 75.7967 251.411 75.9867 252.602 76.3667C253.818 76.7214 254.945 77.2027 255.984 77.8107L255.414 78.9507C254.477 78.3934 253.451 77.9374 252.336 77.5827C251.221 77.228 250.043 77.0507 248.802 77.0507C247.13 77.0507 245.547 77.38 244.052 78.0387C242.557 78.672 241.253 79.5714 240.138 80.7367C239.023 81.8767 238.137 83.2194 237.478 84.7647C236.845 86.2847 236.528 87.9187 236.528 89.6667C236.528 91.3387 236.807 92.922 237.364 94.4167C237.947 95.9114 238.77 97.2287 239.834 98.3687C240.923 99.4834 242.215 100.37 243.71 101.029C245.205 101.662 246.889 101.979 248.764 101.979C250.031 101.979 251.221 101.801 252.336 101.447C253.451 101.092 254.464 100.636 255.376 100.079L256.022 101.219ZM260.75 95.5567C260.75 94.1634 261.092 92.884 261.776 91.7187C262.46 90.5534 263.385 89.6287 264.55 88.9447C265.716 88.2607 267.008 87.9187 268.426 87.9187C269.896 87.9187 271.213 88.2607 272.378 88.9447C273.544 89.6287 274.456 90.5534 275.114 91.7187C275.798 92.884 276.14 94.1634 276.14 95.5567C276.14 96.9754 275.798 98.2674 275.114 99.4327C274.456 100.598 273.531 101.523 272.34 102.207C271.175 102.865 269.87 103.195 268.426 103.195C266.982 103.195 265.678 102.865 264.512 102.207C263.372 101.548 262.46 100.649 261.776 99.5087C261.092 98.3687 260.75 97.0514 260.75 95.5567ZM262.004 95.5947C262.004 96.8107 262.283 97.9127 262.84 98.9007C263.423 99.8634 264.196 100.649 265.158 101.257C266.146 101.839 267.236 102.131 268.426 102.131C269.617 102.131 270.694 101.839 271.656 101.257C272.644 100.674 273.417 99.8887 273.974 98.9007C274.557 97.9127 274.848 96.8107 274.848 95.5947C274.848 94.3787 274.557 93.2767 273.974 92.2887C273.417 91.3007 272.644 90.5154 271.656 89.9327C270.694 89.3247 269.617 89.0207 268.426 89.0207C267.185 89.0207 266.083 89.3374 265.12 89.9707C264.158 90.5787 263.398 91.3894 262.84 92.4027C262.283 93.416 262.004 94.48 262.004 95.5947ZM282.667 88.3367L282.819 92.6307L282.629 92.2507C283.11 90.9334 283.933 89.8947 285.099 89.1347C286.289 88.3747 287.581 87.9947 288.975 87.9947C289.785 87.9947 290.52 88.1594 291.179 88.4887C291.863 88.818 292.42 89.2614 292.851 89.8187C293.281 90.376 293.522 91.0094 293.573 91.7187L293.383 91.9467C293.889 90.6547 294.713 89.6794 295.853 89.0207C296.993 88.3367 298.234 87.9947 299.577 87.9947C300.945 87.9947 302.034 88.3874 302.845 89.1727C303.681 89.958 304.111 90.9587 304.137 92.1747V102.929H302.883V92.4407C302.857 91.554 302.553 90.794 301.971 90.1607C301.388 89.502 300.527 89.1347 299.387 89.0587C298.373 89.0587 297.423 89.312 296.537 89.8187C295.675 90.3 294.966 90.9587 294.409 91.7947C293.851 92.6307 293.547 93.5554 293.497 94.5687V102.929H292.281V92.4407C292.23 91.554 291.901 90.794 291.293 90.1607C290.71 89.502 289.849 89.1347 288.709 89.0587C287.67 89.0587 286.707 89.312 285.821 89.8187C284.934 90.3254 284.225 91.0094 283.693 91.8707C283.161 92.732 282.895 93.6947 282.895 94.7587V102.929H281.641V88.3367H282.667ZM319.008 103.195C317.514 103.195 316.146 102.802 314.904 102.017C313.663 101.206 312.751 100.167 312.168 98.9007L312.396 98.1027V109.921H311.142V88.2607H312.282L312.396 93.3907L312.168 92.2887C312.776 91.022 313.714 89.9834 314.98 89.1727C316.247 88.362 317.64 87.9567 319.16 87.9567C320.554 87.9567 321.808 88.2987 322.922 88.9827C324.062 89.6414 324.962 90.5534 325.62 91.7187C326.304 92.8587 326.646 94.1634 326.646 95.6327C326.646 97.0767 326.304 98.3687 325.62 99.5087C324.936 100.649 324.012 101.548 322.846 102.207C321.706 102.865 320.427 103.195 319.008 103.195ZM318.818 102.131C320.034 102.131 321.136 101.839 322.124 101.257C323.112 100.674 323.898 99.8887 324.48 98.9007C325.063 97.9127 325.354 96.8234 325.354 95.6327C325.354 94.3914 325.063 93.2767 324.48 92.2887C323.898 91.2754 323.112 90.4774 322.124 89.8947C321.162 89.312 320.085 89.0207 318.894 89.0207C317.704 89.0207 316.627 89.312 315.664 89.8947C314.702 90.452 313.929 91.1994 313.346 92.1367C312.764 93.074 312.447 94.1254 312.396 95.2907V96.0507C312.447 97.1907 312.764 98.2294 313.346 99.1667C313.954 100.079 314.727 100.801 315.664 101.333C316.627 101.865 317.678 102.131 318.818 102.131ZM338.113 103.195C336.72 103.195 335.453 102.865 334.313 102.207C333.199 101.548 332.299 100.661 331.615 99.5467C330.957 98.4067 330.627 97.102 330.627 95.6327C330.627 94.0114 330.969 92.6307 331.653 91.4907C332.363 90.3254 333.3 89.4514 334.465 88.8687C335.631 88.2607 336.948 87.9567 338.417 87.9567C339.811 87.9567 341.103 88.362 342.293 89.1727C343.509 89.9834 344.396 91.022 344.953 92.2887L344.763 92.8207L344.991 88.3367H346.055V102.929H344.801V98.1787L345.029 98.7867C344.827 99.3694 344.497 99.9267 344.041 100.459C343.611 100.965 343.079 101.434 342.445 101.865C341.837 102.27 341.166 102.599 340.431 102.853C339.697 103.081 338.924 103.195 338.113 103.195ZM338.341 102.131C339.507 102.131 340.571 101.877 341.533 101.371C342.496 100.839 343.269 100.129 343.851 99.2427C344.434 98.3307 344.751 97.2794 344.801 96.0887V94.2647C344.599 93.2767 344.181 92.39 343.547 91.6047C342.939 90.8194 342.179 90.1987 341.267 89.7427C340.355 89.2614 339.367 89.0207 338.303 89.0207C337.138 89.0207 336.061 89.2867 335.073 89.8187C334.085 90.3507 333.3 91.1107 332.717 92.0987C332.16 93.0867 331.881 94.2394 331.881 95.5567C331.881 96.7727 332.173 97.8747 332.755 98.8627C333.338 99.8507 334.111 100.649 335.073 101.257C336.061 101.839 337.151 102.131 338.341 102.131ZM354.028 88.3367L354.218 92.9727L354.028 92.2507C354.459 90.9334 355.269 89.8947 356.46 89.1347C357.651 88.3747 358.968 87.9947 360.412 87.9947C361.78 87.9947 362.882 88.4 363.718 89.2107C364.554 90.0214 364.985 91.06 365.01 92.3267V102.929H363.718V92.6307C363.693 91.6174 363.363 90.7814 362.73 90.1227C362.122 89.464 361.248 89.1094 360.108 89.0587C359.069 89.0587 358.107 89.2994 357.22 89.7807C356.333 90.262 355.611 90.9334 355.054 91.7947C354.522 92.6307 354.256 93.6187 354.256 94.7587V102.929H353.002V88.3367H354.028ZM373.036 109.921L382.498 88.3367H383.79L374.404 109.921H373.036ZM376.19 103.119L369.35 88.3367H370.756L377.216 102.397L376.19 103.119ZM423.123 103.499L401.843 78.6087L402.185 78.2287L402.223 102.929H400.931V75.6067H401.007L422.401 100.725L421.945 100.801V76.1007H423.161V103.499H423.123ZM437.084 103.195C435.691 103.195 434.424 102.865 433.284 102.207C432.169 101.548 431.27 100.661 430.586 99.5467C429.927 98.4067 429.598 97.102 429.598 95.6327C429.598 94.0114 429.94 92.6307 430.624 91.4907C431.333 90.3254 432.271 89.4514 433.436 88.8687C434.601 88.2607 435.919 87.9567 437.388 87.9567C438.781 87.9567 440.073 88.362 441.264 89.1727C442.48 89.9834 443.367 91.022 443.924 92.2887L443.734 92.8207L443.962 88.3367H445.026V102.929H443.772V98.1787L444 98.7867C443.797 99.3694 443.468 99.9267 443.012 100.459C442.581 100.965 442.049 101.434 441.416 101.865C440.808 102.27 440.137 102.599 439.402 102.853C438.667 103.081 437.895 103.195 437.084 103.195ZM437.312 102.131C438.477 102.131 439.541 101.877 440.504 101.371C441.467 100.839 442.239 100.129 442.822 99.2427C443.405 98.3307 443.721 97.2794 443.772 96.0887V94.2647C443.569 93.2767 443.151 92.39 442.518 91.6047C441.91 90.8194 441.15 90.1987 440.238 89.7427C439.326 89.2614 438.338 89.0207 437.274 89.0207C436.109 89.0207 435.032 89.2867 434.044 89.8187C433.056 90.3507 432.271 91.1107 431.688 92.0987C431.131 93.0867 430.852 94.2394 430.852 95.5567C430.852 96.7727 431.143 97.8747 431.726 98.8627C432.309 99.8507 433.081 100.649 434.044 101.257C435.032 101.839 436.121 102.131 437.312 102.131ZM452.999 88.3367L453.151 92.6307L452.961 92.2507C453.442 90.9334 454.265 89.8947 455.431 89.1347C456.621 88.3747 457.913 87.9947 459.307 87.9947C460.117 87.9947 460.852 88.1594 461.511 88.4887C462.195 88.818 462.752 89.2614 463.183 89.8187C463.613 90.376 463.854 91.0094 463.905 91.7187L463.715 91.9467C464.221 90.6547 465.045 89.6794 466.185 89.0207C467.325 88.3367 468.566 87.9947 469.909 87.9947C471.277 87.9947 472.366 88.3874 473.177 89.1727C474.013 89.958 474.443 90.9587 474.469 92.1747V102.929H473.215V92.4407C473.189 91.554 472.885 90.794 472.303 90.1607C471.72 89.502 470.859 89.1347 469.719 89.0587C468.705 89.0587 467.755 89.312 466.869 89.8187C466.007 90.3 465.298 90.9587 464.741 91.7947C464.183 92.6307 463.879 93.5554 463.829 94.5687V102.929H462.613V92.4407C462.562 91.554 462.233 90.794 461.625 90.1607C461.042 89.502 460.181 89.1347 459.041 89.0587C458.002 89.0587 457.039 89.312 456.153 89.8187C455.266 90.3254 454.557 91.0094 454.025 91.8707C453.493 92.732 453.227 93.6947 453.227 94.7587V102.929H451.973V88.3367H452.999ZM487.669 103.195C486.199 103.195 484.882 102.865 483.717 102.207C482.577 101.523 481.665 100.611 480.981 99.4707C480.322 98.3054 479.993 97.0134 479.993 95.5947C479.993 94.176 480.335 92.884 481.019 91.7187C481.703 90.5534 482.627 89.6287 483.793 88.9447C484.958 88.2607 486.25 87.9187 487.669 87.9187C489.366 87.9187 490.785 88.4127 491.925 89.4007C493.09 90.3634 493.939 91.6047 494.471 93.1247L481.475 98.2927L481.095 97.3427L493.369 92.4787L493.065 92.9347C492.583 91.8707 491.874 90.946 490.937 90.1607C490.025 89.3754 488.91 88.9827 487.593 88.9827C486.402 88.9827 485.325 89.274 484.363 89.8567C483.4 90.4394 482.627 91.2374 482.045 92.2507C481.487 93.2387 481.209 94.3407 481.209 95.5567C481.209 96.6967 481.475 97.7734 482.007 98.7867C482.564 99.7747 483.324 100.573 484.287 101.181C485.249 101.789 486.377 102.093 487.669 102.093C488.53 102.093 489.341 101.941 490.101 101.637C490.886 101.307 491.57 100.889 492.153 100.383L492.875 101.257C492.165 101.839 491.355 102.308 490.443 102.663C489.556 103.017 488.631 103.195 487.669 103.195Z" fill="white"/>
<path d="M786.174 86.2304C786.174 85.2771 786.335 84.3457 786.658 83.4364C786.995 82.5124 787.479 81.6764 788.11 80.9284C788.741 80.1657 789.518 79.5644 790.442 79.1244C791.366 78.6697 792.415 78.4424 793.588 78.4424C794.981 78.4424 796.169 78.7651 797.152 79.4104C798.149 80.0411 798.883 80.8551 799.352 81.8524L798.142 82.6004C797.805 81.9111 797.379 81.3684 796.866 80.9724C796.353 80.5617 795.803 80.2684 795.216 80.0924C794.644 79.9164 794.072 79.8284 793.5 79.8284C792.561 79.8284 791.733 80.0191 791.014 80.4004C790.295 80.7671 789.687 81.2657 789.188 81.8964C788.704 82.5124 788.337 83.2091 788.088 83.9864C787.839 84.7491 787.714 85.5264 787.714 86.3184C787.714 87.1837 787.861 88.0124 788.154 88.8044C788.447 89.5964 788.858 90.3004 789.386 90.9164C789.914 91.5177 790.53 92.0017 791.234 92.3684C791.953 92.7204 792.73 92.8964 793.566 92.8964C794.153 92.8964 794.754 92.7937 795.37 92.5884C795.986 92.3831 796.558 92.0677 797.086 91.6424C797.629 91.2171 798.061 90.6671 798.384 89.9924L799.66 90.6524C799.337 91.4297 798.839 92.0897 798.164 92.6324C797.489 93.1751 796.734 93.5857 795.898 93.8644C795.077 94.1431 794.27 94.2824 793.478 94.2824C792.407 94.2824 791.425 94.0551 790.53 93.6004C789.635 93.1311 788.858 92.5151 788.198 91.7524C787.553 90.9751 787.054 90.1097 786.702 89.1564C786.35 88.1884 786.174 87.2131 786.174 86.2304ZM801.872 89.4204V82.6884H803.368V89.1564C803.368 90.4617 803.588 91.4371 804.028 92.0824C804.483 92.7277 805.15 93.0504 806.03 93.0504C806.617 93.0504 807.181 92.9257 807.724 92.6764C808.281 92.4124 808.773 92.0457 809.198 91.5764C809.623 91.0924 809.946 90.5351 810.166 89.9044V82.6884H811.662V92.3464C811.662 92.5517 811.706 92.7057 811.794 92.8084C811.882 92.8964 812.014 92.9477 812.19 92.9624V94.1504C812.014 94.1651 811.875 94.1724 811.772 94.1724C811.669 94.1871 811.574 94.1944 811.486 94.1944C811.193 94.1651 810.936 94.0477 810.716 93.8424C810.511 93.6371 810.401 93.3877 810.386 93.0944L810.342 91.5544C809.843 92.4344 809.161 93.1237 808.296 93.6224C807.445 94.1211 806.521 94.3704 805.524 94.3704C804.321 94.3704 803.412 93.9524 802.796 93.1164C802.18 92.2804 801.872 91.0484 801.872 89.4204ZM818.807 94.3704C817.868 94.3704 816.995 94.2164 816.189 93.9084C815.382 93.6004 814.685 93.1311 814.099 92.5004L814.715 91.4444C815.36 92.0457 816.005 92.4857 816.651 92.7644C817.311 93.0284 818.007 93.1604 818.741 93.1604C819.635 93.1604 820.361 92.9844 820.919 92.6324C821.476 92.2657 821.755 91.7451 821.755 91.0704C821.755 90.6157 821.615 90.2711 821.337 90.0364C821.073 89.7871 820.684 89.5891 820.171 89.4424C819.672 89.2811 819.071 89.1124 818.367 88.9364C817.575 88.7164 816.907 88.4891 816.365 88.2544C815.837 88.0051 815.433 87.6971 815.155 87.3304C814.891 86.9491 814.759 86.4577 814.759 85.8564C814.759 85.1084 814.942 84.4924 815.309 84.0084C815.69 83.5097 816.203 83.1357 816.849 82.8864C817.509 82.6224 818.242 82.4904 819.049 82.4904C819.929 82.4904 820.706 82.6297 821.381 82.9084C822.055 83.1871 822.605 83.5757 823.031 84.0744L822.305 85.0864C821.894 84.6171 821.403 84.2724 820.831 84.0524C820.273 83.8177 819.65 83.7004 818.961 83.7004C818.491 83.7004 818.044 83.7664 817.619 83.8984C817.193 84.0157 816.841 84.2211 816.563 84.5144C816.299 84.7931 816.167 85.1817 816.167 85.6804C816.167 86.0911 816.269 86.4137 816.475 86.6484C816.68 86.8684 816.988 87.0591 817.399 87.2204C817.809 87.3671 818.315 87.5284 818.917 87.7044C819.782 87.9391 820.537 88.1811 821.183 88.4304C821.828 88.6651 822.327 88.9731 822.679 89.3544C823.031 89.7357 823.207 90.2711 823.207 90.9604C823.207 92.0311 822.803 92.8671 821.997 93.4684C821.19 94.0697 820.127 94.3704 818.807 94.3704ZM831.179 93.6004C831.062 93.6444 830.879 93.7251 830.629 93.8424C830.38 93.9597 830.079 94.0624 829.727 94.1504C829.375 94.2384 828.994 94.2824 828.583 94.2824C828.158 94.2824 827.755 94.2017 827.373 94.0404C827.007 93.8791 826.713 93.6371 826.493 93.3144C826.273 92.9771 826.163 92.5664 826.163 92.0824V83.8764H824.579V82.6884H826.163V78.8164H827.659V82.6884H830.299V83.8764H827.659V91.6644C827.689 92.0751 827.835 92.3831 828.099 92.5884C828.378 92.7937 828.693 92.8964 829.045 92.8964C829.456 92.8964 829.83 92.8304 830.167 92.6984C830.505 92.5517 830.71 92.4491 830.783 92.3904L831.179 93.6004ZM837.739 94.3704C836.918 94.3704 836.155 94.2164 835.451 93.9084C834.762 93.5857 834.16 93.1531 833.647 92.6104C833.148 92.0531 832.76 91.4224 832.481 90.7184C832.202 89.9997 832.063 89.2444 832.063 88.4524C832.063 87.6311 832.202 86.8684 832.481 86.1644C832.76 85.4457 833.156 84.8151 833.669 84.2724C834.182 83.7151 834.784 83.2824 835.473 82.9744C836.177 82.6517 836.94 82.4904 837.761 82.4904C838.582 82.4904 839.338 82.6517 840.027 82.9744C840.716 83.2824 841.318 83.7151 841.831 84.2724C842.344 84.8151 842.74 85.4457 843.019 86.1644C843.298 86.8684 843.437 87.6311 843.437 88.4524C843.437 89.2444 843.298 89.9997 843.019 90.7184C842.74 91.4224 842.344 92.0531 841.831 92.6104C841.332 93.1531 840.731 93.5857 840.027 93.9084C839.338 94.2164 838.575 94.3704 837.739 94.3704ZM833.581 88.4744C833.581 89.3251 833.764 90.1024 834.131 90.8064C834.512 91.4957 835.018 92.0457 835.649 92.4564C836.28 92.8524 836.976 93.0504 837.739 93.0504C838.502 93.0504 839.198 92.8451 839.829 92.4344C840.46 92.0237 840.966 91.4664 841.347 90.7624C841.728 90.0437 841.919 89.2664 841.919 88.4304C841.919 87.5797 841.728 86.8024 841.347 86.0984C840.966 85.3944 840.46 84.8371 839.829 84.4264C839.198 84.0157 838.502 83.8104 837.739 83.8104C836.976 83.8104 836.28 84.0231 835.649 84.4484C835.033 84.8737 834.534 85.4384 834.153 86.1424C833.772 86.8317 833.581 87.6091 833.581 88.4744ZM862.989 94.1504H861.493V87.7484C861.493 86.4137 861.28 85.4311 860.855 84.8004C860.43 84.1697 859.799 83.8544 858.963 83.8544C858.098 83.8544 857.32 84.1624 856.631 84.7784C855.956 85.3944 855.48 86.1864 855.201 87.1544V94.1504H853.705V87.7484C853.705 86.3991 853.5 85.4164 853.089 84.8004C852.678 84.1697 852.048 83.8544 851.197 83.8544C850.346 83.8544 849.576 84.1551 848.887 84.7564C848.198 85.3577 847.714 86.1497 847.435 87.1324V94.1504H845.939V82.6884H847.303V85.2844C847.787 84.3897 848.403 83.7004 849.151 83.2164C849.914 82.7324 850.757 82.4904 851.681 82.4904C852.634 82.4904 853.404 82.7617 853.991 83.3044C854.578 83.8471 854.937 84.5584 855.069 85.4384C855.597 84.4704 856.228 83.7371 856.961 83.2384C857.709 82.7397 858.552 82.4904 859.491 82.4904C860.136 82.4904 860.679 82.6077 861.119 82.8424C861.574 83.0771 861.933 83.4144 862.197 83.8544C862.476 84.2797 862.674 84.8004 862.791 85.4164C862.923 86.0177 862.989 86.6924 862.989 87.4404V94.1504ZM871.106 94.3704C870.285 94.3704 869.522 94.2164 868.818 93.9084C868.114 93.5857 867.505 93.1531 866.992 92.6104C866.479 92.0531 866.075 91.4151 865.782 90.6964C865.503 89.9777 865.364 89.2077 865.364 88.3864C865.364 87.3157 865.606 86.3331 866.09 85.4384C866.589 84.5437 867.271 83.8324 868.136 83.3044C869.001 82.7617 869.984 82.4904 871.084 82.4904C872.213 82.4904 873.196 82.7617 874.032 83.3044C874.883 83.8471 875.55 84.5657 876.034 85.4604C876.518 86.3404 876.76 87.3084 876.76 88.3644C876.76 88.4817 876.76 88.5991 876.76 88.7164C876.76 88.8191 876.753 88.8997 876.738 88.9584H866.926C866.999 89.7797 867.227 90.5131 867.608 91.1584C868.004 91.7891 868.51 92.2951 869.126 92.6764C869.757 93.0431 870.439 93.2264 871.172 93.2264C871.92 93.2264 872.624 93.0357 873.284 92.6544C873.959 92.2731 874.428 91.7744 874.692 91.1584L875.99 91.5104C875.755 92.0531 875.396 92.5444 874.912 92.9844C874.428 93.4244 873.856 93.7691 873.196 94.0184C872.551 94.2531 871.854 94.3704 871.106 94.3704ZM866.882 87.8804H875.352C875.293 87.0444 875.066 86.3111 874.67 85.6804C874.289 85.0497 873.783 84.5584 873.152 84.2064C872.536 83.8397 871.854 83.6564 871.106 83.6564C870.358 83.6564 869.676 83.8397 869.06 84.2064C868.444 84.5584 867.938 85.0571 867.542 85.7024C867.161 86.3331 866.941 87.0591 866.882 87.8804ZM884.788 84.0084C883.791 84.0377 882.911 84.3164 882.148 84.8444C881.4 85.3724 880.872 86.0984 880.564 87.0224V94.1504H879.068V82.6884H880.476V85.4384C880.872 84.6317 881.393 83.9791 882.038 83.4804C882.698 82.9817 883.395 82.7031 884.128 82.6444C884.275 82.6297 884.399 82.6224 884.502 82.6224C884.619 82.6224 884.715 82.6297 884.788 82.6444V84.0084ZM891.147 86.2304C891.147 85.2771 891.308 84.3457 891.631 83.4364C891.968 82.5124 892.452 81.6764 893.083 80.9284C893.713 80.1657 894.491 79.5644 895.415 79.1244C896.339 78.6697 897.387 78.4424 898.561 78.4424C899.954 78.4424 901.142 78.7651 902.125 79.4104C903.122 80.0411 903.855 80.8551 904.325 81.8524L903.115 82.6004C902.777 81.9111 902.352 81.3684 901.839 80.9724C901.325 80.5617 900.775 80.2684 900.189 80.0924C899.617 79.9164 899.045 79.8284 898.473 79.8284C897.534 79.8284 896.705 80.0191 895.987 80.4004C895.268 80.7671 894.659 81.2657 894.161 81.8964C893.677 82.5124 893.31 83.2091 893.061 83.9864C892.811 84.7491 892.687 85.5264 892.687 86.3184C892.687 87.1837 892.833 88.0124 893.127 88.8044C893.42 89.5964 893.831 90.3004 894.359 90.9164C894.887 91.5177 895.503 92.0017 896.207 92.3684C896.925 92.7204 897.703 92.8964 898.539 92.8964C899.125 92.8964 899.727 92.7937 900.343 92.5884C900.959 92.3831 901.531 92.0677 902.059 91.6424C902.601 91.2171 903.034 90.6671 903.357 89.9924L904.633 90.6524C904.31 91.4297 903.811 92.0897 903.137 92.6324C902.462 93.1751 901.707 93.5857 900.871 93.8644C900.049 94.1431 899.243 94.2824 898.451 94.2824C897.38 94.2824 896.397 94.0551 895.503 93.6004C894.608 93.1311 893.831 92.5151 893.171 91.7524C892.525 90.9751 892.027 90.1097 891.675 89.1564C891.323 88.1884 891.147 87.2131 891.147 86.2304ZM906.031 90.8504C906.031 90.1317 906.236 89.5157 906.647 89.0024C907.057 88.4744 907.622 88.0711 908.341 87.7924C909.074 87.4991 909.917 87.3524 910.871 87.3524C911.428 87.3524 912.007 87.3964 912.609 87.4844C913.21 87.5724 913.745 87.7044 914.215 87.8804V86.9124C914.215 85.9444 913.929 85.1744 913.357 84.6024C912.785 84.0304 911.993 83.7444 910.981 83.7444C910.365 83.7444 909.756 83.8617 909.155 84.0964C908.568 84.3164 907.952 84.6464 907.307 85.0864L906.735 84.0304C907.483 83.5171 908.216 83.1357 908.935 82.8864C909.653 82.6224 910.387 82.4904 911.135 82.4904C912.543 82.4904 913.657 82.8937 914.479 83.7004C915.3 84.5071 915.711 85.6217 915.711 87.0444V92.3464C915.711 92.5517 915.755 92.7057 915.843 92.8084C915.931 92.8964 916.07 92.9477 916.261 92.9624V94.1504C916.099 94.1651 915.96 94.1797 915.843 94.1944C915.725 94.2091 915.637 94.2091 915.579 94.1944C915.212 94.1797 914.933 94.0624 914.743 93.8424C914.552 93.6224 914.449 93.3877 914.435 93.1384L914.413 92.3024C913.899 92.9624 913.232 93.4757 912.411 93.8424C911.589 94.1944 910.753 94.3704 909.903 94.3704C909.169 94.3704 908.502 94.2164 907.901 93.9084C907.314 93.5857 906.852 93.1604 906.515 92.6324C906.192 92.0897 906.031 91.4957 906.031 90.8504ZM913.709 91.7304C913.87 91.5251 913.995 91.3271 914.083 91.1364C914.171 90.9457 914.215 90.7771 914.215 90.6304V88.9584C913.716 88.7677 913.195 88.6211 912.653 88.5184C912.125 88.4157 911.589 88.3644 911.047 88.3644C909.976 88.3644 909.111 88.5771 908.451 89.0024C907.791 89.4277 907.461 90.0071 907.461 90.7404C907.461 91.1657 907.571 91.5691 907.791 91.9504C908.011 92.3171 908.333 92.6251 908.759 92.8744C909.184 93.1091 909.683 93.2264 910.255 93.2264C910.973 93.2264 911.641 93.0871 912.257 92.8084C912.887 92.5297 913.371 92.1704 913.709 91.7304ZM924.663 84.0084C923.666 84.0377 922.786 84.3164 922.023 84.8444C921.275 85.3724 920.747 86.0984 920.439 87.0224V94.1504H918.943V82.6884H920.351V85.4384C920.747 84.6317 921.268 83.9791 921.913 83.4804C922.573 82.9817 923.27 82.7031 924.003 82.6444C924.15 82.6297 924.274 82.6224 924.377 82.6224C924.494 82.6224 924.59 82.6297 924.663 82.6444V84.0084ZM931.241 94.3704C930.419 94.3704 929.657 94.2164 928.953 93.9084C928.249 93.5857 927.64 93.1531 927.127 92.6104C926.613 92.0531 926.21 91.4151 925.917 90.6964C925.638 89.9777 925.499 89.2077 925.499 88.3864C925.499 87.3157 925.741 86.3331 926.225 85.4384C926.723 84.5437 927.405 83.8324 928.271 83.3044C929.136 82.7617 930.119 82.4904 931.219 82.4904C932.348 82.4904 933.331 82.7617 934.167 83.3044C935.017 83.8471 935.685 84.5657 936.169 85.4604C936.653 86.3404 936.895 87.3084 936.895 88.3644C936.895 88.4817 936.895 88.5991 936.895 88.7164C936.895 88.8191 936.887 88.8997 936.873 88.9584H927.061C927.134 89.7797 927.361 90.5131 927.743 91.1584C928.139 91.7891 928.645 92.2951 929.261 92.6764C929.891 93.0431 930.573 93.2264 931.307 93.2264C932.055 93.2264 932.759 93.0357 933.419 92.6544C934.093 92.2731 934.563 91.7744 934.827 91.1584L936.125 91.5104C935.89 92.0531 935.531 92.5444 935.047 92.9844C934.563 93.4244 933.991 93.7691 933.331 94.0184C932.685 94.2531 931.989 94.3704 931.241 94.3704ZM927.017 87.8804H935.487C935.428 87.0444 935.201 86.3111 934.805 85.6804C934.423 85.0497 933.917 84.5584 933.287 84.2064C932.671 83.8397 931.989 83.6564 931.241 83.6564C930.493 83.6564 929.811 83.8397 929.195 84.2064C928.579 84.5584 928.073 85.0571 927.677 85.7024C927.295 86.3331 927.075 87.0591 927.017 87.8804Z" fill="white"/>
<path d="M256.512 197.632C256.597 197.632 256.672 197.667 256.736 197.736L257.352 198.4C256.883 198.944 256.312 199.368 255.64 199.672C254.973 199.976 254.165 200.128 253.216 200.128C252.395 200.128 251.648 199.987 250.976 199.704C250.304 199.416 249.731 199.016 249.256 198.504C248.781 197.987 248.413 197.368 248.152 196.648C247.891 195.928 247.76 195.136 247.76 194.272C247.76 193.408 247.896 192.616 248.168 191.896C248.44 191.176 248.821 190.557 249.312 190.04C249.808 189.523 250.4 189.123 251.088 188.84C251.776 188.552 252.536 188.408 253.368 188.408C254.184 188.408 254.904 188.539 255.528 188.8C256.152 189.061 256.701 189.416 257.176 189.864L256.664 190.576C256.632 190.629 256.589 190.675 256.536 190.712C256.488 190.744 256.421 190.76 256.336 190.76C256.24 190.76 256.123 190.709 255.984 190.608C255.845 190.501 255.664 190.384 255.44 190.256C255.216 190.128 254.936 190.013 254.6 189.912C254.264 189.805 253.851 189.752 253.36 189.752C252.768 189.752 252.227 189.856 251.736 190.064C251.245 190.267 250.821 190.563 250.464 190.952C250.112 191.341 249.837 191.816 249.64 192.376C249.443 192.936 249.344 193.568 249.344 194.272C249.344 194.987 249.445 195.624 249.648 196.184C249.856 196.744 250.136 197.219 250.488 197.608C250.845 197.992 251.264 198.285 251.744 198.488C252.229 198.691 252.752 198.792 253.312 198.792C253.653 198.792 253.96 198.773 254.232 198.736C254.509 198.693 254.763 198.629 254.992 198.544C255.227 198.459 255.443 198.352 255.64 198.224C255.843 198.091 256.043 197.933 256.24 197.752C256.331 197.672 256.421 197.632 256.512 197.632ZM262.075 191.768C262.667 191.768 263.201 191.867 263.675 192.064C264.15 192.261 264.555 192.541 264.891 192.904C265.227 193.267 265.483 193.707 265.659 194.224C265.841 194.736 265.931 195.309 265.931 195.944C265.931 196.584 265.841 197.16 265.659 197.672C265.483 198.184 265.227 198.621 264.891 198.984C264.555 199.347 264.15 199.627 263.675 199.824C263.201 200.016 262.667 200.112 262.075 200.112C261.478 200.112 260.939 200.016 260.459 199.824C259.985 199.627 259.579 199.347 259.243 198.984C258.907 198.621 258.649 198.184 258.467 197.672C258.291 197.16 258.203 196.584 258.203 195.944C258.203 195.309 258.291 194.736 258.467 194.224C258.649 193.707 258.907 193.267 259.243 192.904C259.579 192.541 259.985 192.261 260.459 192.064C260.939 191.867 261.478 191.768 262.075 191.768ZM262.075 199C262.875 199 263.473 198.733 263.867 198.2C264.262 197.661 264.459 196.912 264.459 195.952C264.459 194.987 264.262 194.235 263.867 193.696C263.473 193.157 262.875 192.888 262.075 192.888C261.67 192.888 261.315 192.957 261.011 193.096C260.713 193.235 260.462 193.435 260.259 193.696C260.062 193.957 259.913 194.28 259.811 194.664C259.715 195.043 259.667 195.472 259.667 195.952C259.667 196.912 259.865 197.661 260.259 198.2C260.659 198.733 261.265 199 262.075 199ZM269.081 193.072C269.257 192.875 269.444 192.696 269.641 192.536C269.839 192.376 270.047 192.24 270.265 192.128C270.489 192.011 270.724 191.923 270.969 191.864C271.22 191.8 271.489 191.768 271.777 191.768C272.22 191.768 272.609 191.843 272.945 191.992C273.287 192.136 273.569 192.344 273.793 192.616C274.023 192.883 274.196 193.205 274.313 193.584C274.431 193.963 274.489 194.381 274.489 194.84V200H273.057V194.84C273.057 194.227 272.916 193.752 272.633 193.416C272.356 193.075 271.932 192.904 271.361 192.904C270.94 192.904 270.545 193.005 270.177 193.208C269.815 193.411 269.479 193.685 269.169 194.032V200H267.737V191.896H268.593C268.796 191.896 268.921 191.995 268.969 192.192L269.081 193.072ZM279.038 200.128C278.398 200.128 277.905 199.949 277.558 199.592C277.217 199.235 277.046 198.72 277.046 198.048V193.088H276.07C275.985 193.088 275.913 193.064 275.854 193.016C275.795 192.963 275.766 192.883 275.766 192.776V192.208L277.094 192.04L277.422 189.536C277.438 189.456 277.473 189.392 277.526 189.344C277.585 189.291 277.659 189.264 277.75 189.264H278.47V192.056H280.814V193.088H278.47V197.952C278.47 198.293 278.553 198.547 278.718 198.712C278.883 198.877 279.097 198.96 279.358 198.96C279.507 198.96 279.635 198.941 279.742 198.904C279.854 198.861 279.95 198.816 280.03 198.768C280.11 198.72 280.177 198.677 280.23 198.64C280.289 198.597 280.339 198.576 280.382 198.576C280.457 198.576 280.523 198.621 280.582 198.712L280.998 199.392C280.753 199.621 280.457 199.803 280.11 199.936C279.763 200.064 279.406 200.128 279.038 200.128ZM286.676 196.352C286.02 196.373 285.46 196.427 284.996 196.512C284.538 196.592 284.162 196.699 283.868 196.832C283.58 196.965 283.37 197.123 283.236 197.304C283.108 197.485 283.044 197.688 283.044 197.912C283.044 198.125 283.079 198.309 283.148 198.464C283.218 198.619 283.311 198.747 283.428 198.848C283.551 198.944 283.692 199.016 283.852 199.064C284.018 199.107 284.194 199.128 284.38 199.128C284.631 199.128 284.86 199.104 285.068 199.056C285.276 199.003 285.471 198.928 285.652 198.832C285.839 198.736 286.015 198.621 286.18 198.488C286.351 198.355 286.516 198.203 286.676 198.032V196.352ZM282.076 193.04C282.524 192.608 283.007 192.285 283.524 192.072C284.042 191.859 284.615 191.752 285.244 191.752C285.698 191.752 286.1 191.827 286.452 191.976C286.804 192.125 287.1 192.333 287.34 192.6C287.58 192.867 287.762 193.189 287.884 193.568C288.007 193.947 288.068 194.363 288.068 194.816V200H287.436C287.298 200 287.191 199.979 287.116 199.936C287.042 199.888 286.983 199.797 286.94 199.664L286.78 198.896C286.567 199.093 286.359 199.269 286.156 199.424C285.954 199.573 285.74 199.701 285.516 199.808C285.292 199.909 285.052 199.987 284.796 200.04C284.546 200.099 284.266 200.128 283.956 200.128C283.642 200.128 283.346 200.085 283.068 200C282.791 199.909 282.548 199.776 282.34 199.6C282.138 199.424 281.975 199.203 281.852 198.936C281.735 198.664 281.676 198.344 281.676 197.976C281.676 197.656 281.764 197.349 281.94 197.056C282.116 196.757 282.402 196.493 282.796 196.264C283.191 196.035 283.706 195.848 284.34 195.704C284.975 195.555 285.754 195.469 286.676 195.448V194.816C286.676 194.187 286.54 193.712 286.268 193.392C285.996 193.067 285.599 192.904 285.076 192.904C284.724 192.904 284.428 192.949 284.188 193.04C283.954 193.125 283.748 193.224 283.572 193.336C283.402 193.443 283.252 193.541 283.124 193.632C283.002 193.717 282.879 193.76 282.756 193.76C282.66 193.76 282.578 193.736 282.508 193.688C282.439 193.635 282.38 193.571 282.332 193.496L282.076 193.04ZM295.877 193.336C295.835 193.395 295.792 193.44 295.749 193.472C295.707 193.504 295.648 193.52 295.573 193.52C295.493 193.52 295.405 193.488 295.309 193.424C295.213 193.355 295.093 193.28 294.949 193.2C294.811 193.12 294.637 193.048 294.429 192.984C294.227 192.915 293.976 192.88 293.677 192.88C293.277 192.88 292.925 192.952 292.621 193.096C292.317 193.235 292.061 193.437 291.853 193.704C291.651 193.971 291.496 194.293 291.389 194.672C291.288 195.051 291.237 195.475 291.237 195.944C291.237 196.435 291.293 196.872 291.405 197.256C291.517 197.635 291.675 197.955 291.877 198.216C292.085 198.472 292.333 198.669 292.621 198.808C292.915 198.941 293.243 199.008 293.605 199.008C293.952 199.008 294.237 198.968 294.461 198.888C294.685 198.803 294.869 198.709 295.013 198.608C295.163 198.507 295.285 198.416 295.381 198.336C295.483 198.251 295.581 198.208 295.677 198.208C295.795 198.208 295.885 198.253 295.949 198.344L296.349 198.864C296.173 199.083 295.973 199.269 295.749 199.424C295.525 199.579 295.283 199.709 295.021 199.816C294.765 199.917 294.496 199.992 294.213 200.04C293.931 200.088 293.643 200.112 293.349 200.112C292.843 200.112 292.371 200.019 291.933 199.832C291.501 199.645 291.125 199.376 290.805 199.024C290.485 198.667 290.235 198.229 290.053 197.712C289.872 197.195 289.781 196.605 289.781 195.944C289.781 195.341 289.864 194.784 290.029 194.272C290.2 193.76 290.445 193.32 290.765 192.952C291.091 192.579 291.488 192.288 291.957 192.08C292.432 191.872 292.976 191.768 293.589 191.768C294.16 191.768 294.661 191.861 295.093 192.048C295.531 192.229 295.917 192.488 296.253 192.824L295.877 193.336ZM300.366 200.128C299.726 200.128 299.233 199.949 298.886 199.592C298.545 199.235 298.374 198.72 298.374 198.048V193.088H297.398C297.313 193.088 297.241 193.064 297.182 193.016C297.123 192.963 297.094 192.883 297.094 192.776V192.208L298.422 192.04L298.75 189.536C298.766 189.456 298.801 189.392 298.854 189.344C298.913 189.291 298.987 189.264 299.078 189.264H299.798V192.056H302.142V193.088H299.798V197.952C299.798 198.293 299.881 198.547 300.046 198.712C300.211 198.877 300.425 198.96 300.686 198.96C300.835 198.96 300.963 198.941 301.07 198.904C301.182 198.861 301.278 198.816 301.358 198.768C301.438 198.72 301.505 198.677 301.558 198.64C301.617 198.597 301.667 198.576 301.71 198.576C301.785 198.576 301.851 198.621 301.91 198.712L302.326 199.392C302.081 199.621 301.785 199.803 301.438 199.936C301.091 200.064 300.734 200.128 300.366 200.128ZM309.594 200H308.042V188.536H309.594V200ZM313.41 193.072C313.586 192.875 313.772 192.696 313.97 192.536C314.167 192.376 314.375 192.24 314.594 192.128C314.818 192.011 315.052 191.923 315.298 191.864C315.548 191.8 315.818 191.768 316.106 191.768C316.548 191.768 316.938 191.843 317.274 191.992C317.615 192.136 317.898 192.344 318.122 192.616C318.351 192.883 318.524 193.205 318.642 193.584C318.759 193.963 318.818 194.381 318.818 194.84V200H317.386V194.84C317.386 194.227 317.244 193.752 316.962 193.416C316.684 193.075 316.26 192.904 315.69 192.904C315.268 192.904 314.874 193.005 314.506 193.208C314.143 193.411 313.807 193.685 313.498 194.032V200H312.066V191.896H312.922C313.124 191.896 313.25 191.995 313.298 192.192L313.41 193.072ZM321.39 200V193.112L320.494 193.008C320.382 192.981 320.289 192.941 320.214 192.888C320.145 192.829 320.11 192.747 320.11 192.64V192.056H321.39V191.272C321.39 190.808 321.454 190.397 321.582 190.04C321.716 189.677 321.902 189.373 322.142 189.128C322.388 188.877 322.681 188.688 323.022 188.56C323.364 188.432 323.748 188.368 324.174 188.368C324.537 188.368 324.87 188.421 325.174 188.528L325.142 189.24C325.132 189.368 325.06 189.437 324.926 189.448C324.798 189.459 324.625 189.464 324.406 189.464C324.161 189.464 323.937 189.496 323.734 189.56C323.537 189.624 323.366 189.728 323.222 189.872C323.078 190.016 322.966 190.205 322.886 190.44C322.812 190.675 322.774 190.965 322.774 191.312V192.056H325.11V193.088H322.822V200H321.39ZM329.622 191.768C330.214 191.768 330.747 191.867 331.222 192.064C331.697 192.261 332.102 192.541 332.438 192.904C332.774 193.267 333.03 193.707 333.206 194.224C333.387 194.736 333.478 195.309 333.478 195.944C333.478 196.584 333.387 197.16 333.206 197.672C333.03 198.184 332.774 198.621 332.438 198.984C332.102 199.347 331.697 199.627 331.222 199.824C330.747 200.016 330.214 200.112 329.622 200.112C329.025 200.112 328.486 200.016 328.006 199.824C327.531 199.627 327.126 199.347 326.79 198.984C326.454 198.621 326.195 198.184 326.014 197.672C325.838 197.16 325.75 196.584 325.75 195.944C325.75 195.309 325.838 194.736 326.014 194.224C326.195 193.707 326.454 193.267 326.79 192.904C327.126 192.541 327.531 192.261 328.006 192.064C328.486 191.867 329.025 191.768 329.622 191.768ZM329.622 199C330.422 199 331.019 198.733 331.414 198.2C331.809 197.661 332.006 196.912 332.006 195.952C332.006 194.987 331.809 194.235 331.414 193.696C331.019 193.157 330.422 192.888 329.622 192.888C329.217 192.888 328.862 192.957 328.558 193.096C328.259 193.235 328.009 193.435 327.806 193.696C327.609 193.957 327.459 194.28 327.358 194.664C327.262 195.043 327.214 195.472 327.214 195.952C327.214 196.912 327.411 197.661 327.806 198.2C328.206 198.733 328.811 199 329.622 199Z" fill="#8A8FB9"/>
<rect opacity="0.45" x="231.75" y="127.624" width="282.75" height="34.2406" rx="3" fill="white"/>
<path d="M255.806 152.527V153.519H248.174V142.159H255.662V143.151H249.294V147.247H254.846V148.191H249.294V152.527H255.806ZM264.63 153.519H263.542V148.863C263.542 147.881 263.398 147.167 263.11 146.719C262.822 146.26 262.369 146.031 261.75 146.031C261.323 146.031 260.902 146.137 260.486 146.351C260.07 146.553 259.702 146.836 259.382 147.199C259.073 147.551 258.849 147.956 258.71 148.415V153.519H257.622V145.183H258.614V147.071C258.838 146.665 259.131 146.313 259.494 146.015C259.857 145.705 260.267 145.465 260.726 145.295C261.185 145.124 261.659 145.039 262.15 145.039C262.609 145.039 262.998 145.124 263.318 145.295C263.638 145.465 263.894 145.711 264.086 146.031C264.278 146.34 264.417 146.719 264.502 147.167C264.587 147.604 264.63 148.095 264.63 148.639V153.519ZM270.872 153.119C270.787 153.151 270.653 153.209 270.472 153.295C270.291 153.38 270.072 153.455 269.816 153.519C269.56 153.583 269.283 153.615 268.984 153.615C268.675 153.615 268.381 153.556 268.104 153.439C267.837 153.321 267.624 153.145 267.464 152.911C267.304 152.665 267.224 152.367 267.224 152.015V146.047H266.072V145.183H267.224V142.367H268.312V145.183H270.232V146.047H268.312V151.711C268.333 152.009 268.44 152.233 268.632 152.383C268.835 152.532 269.064 152.607 269.32 152.607C269.619 152.607 269.891 152.559 270.136 152.463C270.381 152.356 270.531 152.281 270.584 152.239L270.872 153.119ZM275.691 153.679C275.093 153.679 274.539 153.567 274.027 153.343C273.515 153.108 273.072 152.793 272.699 152.399C272.325 151.993 272.032 151.529 271.819 151.007C271.616 150.484 271.515 149.924 271.515 149.327C271.515 148.548 271.691 147.833 272.043 147.183C272.405 146.532 272.901 146.015 273.531 145.631C274.16 145.236 274.875 145.039 275.675 145.039C276.496 145.039 277.211 145.236 277.819 145.631C278.437 146.025 278.923 146.548 279.275 147.199C279.627 147.839 279.803 148.543 279.803 149.311C279.803 149.396 279.803 149.481 279.803 149.567C279.803 149.641 279.797 149.7 279.787 149.743H272.651C272.704 150.34 272.869 150.873 273.147 151.343C273.435 151.801 273.803 152.169 274.251 152.447C274.709 152.713 275.205 152.847 275.739 152.847C276.283 152.847 276.795 152.708 277.275 152.431C277.765 152.153 278.107 151.791 278.299 151.343L279.243 151.599C279.072 151.993 278.811 152.351 278.459 152.671C278.107 152.991 277.691 153.241 277.211 153.423C276.741 153.593 276.235 153.679 275.691 153.679ZM272.619 148.959H278.779C278.736 148.351 278.571 147.817 278.283 147.359C278.005 146.9 277.637 146.543 277.179 146.287C276.731 146.02 276.235 145.887 275.691 145.887C275.147 145.887 274.651 146.02 274.203 146.287C273.755 146.543 273.387 146.905 273.099 147.375C272.821 147.833 272.661 148.361 272.619 148.959ZM285.641 146.143C284.916 146.164 284.276 146.367 283.721 146.751C283.177 147.135 282.793 147.663 282.569 148.335V153.519H281.481V145.183H282.505V147.183C282.793 146.596 283.172 146.121 283.641 145.759C284.121 145.396 284.628 145.193 285.161 145.151C285.268 145.14 285.359 145.135 285.433 145.135C285.519 145.135 285.588 145.14 285.641 145.151V146.143ZM298.65 152.527V153.519H291.018V142.159H298.506V143.151H292.138V147.247H297.69V148.191H292.138V152.527H298.65ZM312.866 153.519H311.778V148.863C311.778 147.892 311.623 147.177 311.314 146.719C311.004 146.26 310.546 146.031 309.938 146.031C309.308 146.031 308.743 146.255 308.242 146.703C307.751 147.151 307.404 147.727 307.202 148.431V153.519H306.114V148.863C306.114 147.881 305.964 147.167 305.666 146.719C305.367 146.26 304.908 146.031 304.29 146.031C303.671 146.031 303.111 146.249 302.61 146.687C302.108 147.124 301.756 147.7 301.554 148.415V153.519H300.466V145.183H301.458V147.071C301.81 146.42 302.258 145.919 302.802 145.567C303.356 145.215 303.97 145.039 304.642 145.039C305.335 145.039 305.895 145.236 306.322 145.631C306.748 146.025 307.01 146.543 307.106 147.183C307.49 146.479 307.948 145.945 308.482 145.583C309.026 145.22 309.639 145.039 310.322 145.039C310.791 145.039 311.186 145.124 311.506 145.295C311.836 145.465 312.098 145.711 312.29 146.031C312.492 146.34 312.636 146.719 312.722 147.167C312.818 147.604 312.866 148.095 312.866 148.639V153.519ZM314.497 151.119C314.497 150.596 314.646 150.148 314.945 149.775C315.243 149.391 315.654 149.097 316.177 148.895C316.71 148.681 317.323 148.575 318.017 148.575C318.422 148.575 318.843 148.607 319.281 148.671C319.718 148.735 320.107 148.831 320.449 148.959V148.255C320.449 147.551 320.241 146.991 319.825 146.575C319.409 146.159 318.833 145.951 318.097 145.951C317.649 145.951 317.206 146.036 316.769 146.207C316.342 146.367 315.894 146.607 315.425 146.927L315.009 146.159C315.553 145.785 316.086 145.508 316.609 145.327C317.131 145.135 317.665 145.039 318.209 145.039C319.233 145.039 320.043 145.332 320.641 145.919C321.238 146.505 321.537 147.316 321.537 148.351V152.207C321.537 152.356 321.569 152.468 321.633 152.543C321.697 152.607 321.798 152.644 321.937 152.655V153.519C321.819 153.529 321.718 153.54 321.633 153.551C321.547 153.561 321.483 153.561 321.441 153.551C321.174 153.54 320.971 153.455 320.833 153.295C320.694 153.135 320.619 152.964 320.609 152.783L320.593 152.175C320.219 152.655 319.734 153.028 319.137 153.295C318.539 153.551 317.931 153.679 317.313 153.679C316.779 153.679 316.294 153.567 315.857 153.343C315.43 153.108 315.094 152.799 314.849 152.415C314.614 152.02 314.497 151.588 314.497 151.119ZM320.081 151.759C320.198 151.609 320.289 151.465 320.353 151.327C320.417 151.188 320.449 151.065 320.449 150.959V149.743C320.086 149.604 319.707 149.497 319.313 149.423C318.929 149.348 318.539 149.311 318.145 149.311C317.366 149.311 316.737 149.465 316.257 149.775C315.777 150.084 315.537 150.505 315.537 151.039C315.537 151.348 315.617 151.641 315.777 151.919C315.937 152.185 316.171 152.409 316.481 152.591C316.79 152.761 317.153 152.847 317.569 152.847C318.091 152.847 318.577 152.745 319.025 152.543C319.483 152.34 319.835 152.079 320.081 151.759ZM323.888 153.519V145.183H324.976V153.519H323.888ZM323.888 143.439V141.839H324.976V143.439H323.888ZM327.42 141.839H328.508V151.631C328.508 152.047 328.583 152.319 328.732 152.447C328.881 152.575 329.063 152.639 329.276 152.639C329.468 152.639 329.66 152.617 329.852 152.575C330.044 152.532 330.209 152.489 330.348 152.447L330.54 153.327C330.337 153.412 330.087 153.481 329.788 153.535C329.5 153.588 329.249 153.615 329.036 153.615C328.545 153.615 328.151 153.471 327.852 153.183C327.564 152.895 327.42 152.5 327.42 151.999V141.839ZM338.569 142.159H339.513L344.233 153.519H343.049L341.577 149.967H336.473L335.017 153.519H333.817L338.569 142.159ZM341.321 149.087L339.033 143.471L336.713 149.087H341.321ZM344.843 149.375C344.843 148.585 345.003 147.865 345.323 147.215C345.654 146.553 346.107 146.025 346.683 145.631C347.259 145.236 347.915 145.039 348.651 145.039C349.344 145.039 349.963 145.225 350.507 145.599C351.062 145.961 351.494 146.404 351.803 146.927V141.839H352.891V152.207C352.891 152.356 352.923 152.468 352.987 152.543C353.051 152.607 353.147 152.644 353.275 152.655V153.519C353.062 153.551 352.896 153.561 352.779 153.551C352.555 153.54 352.358 153.449 352.187 153.279C352.016 153.108 351.931 152.921 351.931 152.719V151.903C351.6 152.447 351.152 152.879 350.587 153.199C350.022 153.519 349.435 153.679 348.827 153.679C348.251 153.679 347.718 153.561 347.227 153.327C346.747 153.092 346.326 152.772 345.963 152.367C345.611 151.961 345.334 151.503 345.131 150.991C344.939 150.468 344.843 149.929 344.843 149.375ZM351.803 150.655V148.079C351.664 147.695 351.44 147.348 351.131 147.039C350.822 146.719 350.47 146.468 350.075 146.287C349.691 146.095 349.307 145.999 348.923 145.999C348.475 145.999 348.07 146.095 347.707 146.287C347.344 146.468 347.03 146.719 346.763 147.039C346.507 147.359 346.31 147.721 346.171 148.127C346.032 148.532 345.963 148.948 345.963 149.375C345.963 149.823 346.038 150.249 346.187 150.655C346.347 151.06 346.571 151.423 346.859 151.743C347.147 152.052 347.478 152.292 347.851 152.463C348.224 152.633 348.63 152.719 349.067 152.719C349.344 152.719 349.632 152.665 349.931 152.559C350.23 152.452 350.512 152.308 350.779 152.127C351.056 151.935 351.286 151.711 351.467 151.455C351.648 151.199 351.76 150.932 351.803 150.655ZM354.796 149.375C354.796 148.585 354.956 147.865 355.276 147.215C355.607 146.553 356.06 146.025 356.636 145.631C357.212 145.236 357.868 145.039 358.604 145.039C359.298 145.039 359.916 145.225 360.46 145.599C361.015 145.961 361.447 146.404 361.756 146.927V141.839H362.844V152.207C362.844 152.356 362.876 152.468 362.94 152.543C363.004 152.607 363.1 152.644 363.228 152.655V153.519C363.015 153.551 362.85 153.561 362.732 153.551C362.508 153.54 362.311 153.449 362.14 153.279C361.97 153.108 361.884 152.921 361.884 152.719V151.903C361.554 152.447 361.106 152.879 360.54 153.199C359.975 153.519 359.388 153.679 358.78 153.679C358.204 153.679 357.671 153.561 357.18 153.327C356.7 153.092 356.279 152.772 355.916 152.367C355.564 151.961 355.287 151.503 355.084 150.991C354.892 150.468 354.796 149.929 354.796 149.375ZM361.756 150.655V148.079C361.618 147.695 361.394 147.348 361.084 147.039C360.775 146.719 360.423 146.468 360.028 146.287C359.644 146.095 359.26 145.999 358.876 145.999C358.428 145.999 358.023 146.095 357.66 146.287C357.298 146.468 356.983 146.719 356.716 147.039C356.46 147.359 356.263 147.721 356.124 148.127C355.986 148.532 355.916 148.948 355.916 149.375C355.916 149.823 355.991 150.249 356.14 150.655C356.3 151.06 356.524 151.423 356.812 151.743C357.1 152.052 357.431 152.292 357.804 152.463C358.178 152.633 358.583 152.719 359.02 152.719C359.298 152.719 359.586 152.665 359.884 152.559C360.183 152.452 360.466 152.308 360.732 152.127C361.01 151.935 361.239 151.711 361.42 151.455C361.602 151.199 361.714 150.932 361.756 150.655ZM369.469 146.143C368.744 146.164 368.104 146.367 367.549 146.751C367.005 147.135 366.621 147.663 366.397 148.335V153.519H365.309V145.183H366.333V147.183C366.621 146.596 367 146.121 367.469 145.759C367.949 145.396 368.456 145.193 368.989 145.151C369.096 145.14 369.187 145.135 369.261 145.135C369.347 145.135 369.416 145.14 369.469 145.151V146.143ZM374.253 153.679C373.656 153.679 373.101 153.567 372.589 153.343C372.077 153.108 371.634 152.793 371.261 152.399C370.888 151.993 370.594 151.529 370.381 151.007C370.178 150.484 370.077 149.924 370.077 149.327C370.077 148.548 370.253 147.833 370.605 147.183C370.968 146.532 371.464 146.015 372.093 145.631C372.722 145.236 373.437 145.039 374.237 145.039C375.058 145.039 375.773 145.236 376.381 145.631C377 146.025 377.485 146.548 377.837 147.199C378.189 147.839 378.365 148.543 378.365 149.311C378.365 149.396 378.365 149.481 378.365 149.567C378.365 149.641 378.36 149.7 378.349 149.743H371.213C371.266 150.34 371.432 150.873 371.709 151.343C371.997 151.801 372.365 152.169 372.813 152.447C373.272 152.713 373.768 152.847 374.301 152.847C374.845 152.847 375.357 152.708 375.837 152.431C376.328 152.153 376.669 151.791 376.861 151.343L377.805 151.599C377.634 151.993 377.373 152.351 377.021 152.671C376.669 152.991 376.253 153.241 375.773 153.423C375.304 153.593 374.797 153.679 374.253 153.679ZM371.181 148.959H377.341C377.298 148.351 377.133 147.817 376.845 147.359C376.568 146.9 376.2 146.543 375.741 146.287C375.293 146.02 374.797 145.887 374.253 145.887C373.709 145.887 373.213 146.02 372.765 146.287C372.317 146.543 371.949 146.905 371.661 147.375C371.384 147.833 371.224 148.361 371.181 148.959ZM382.78 153.679C382.097 153.679 381.462 153.567 380.876 153.343C380.289 153.119 379.782 152.777 379.356 152.319L379.804 151.551C380.273 151.988 380.742 152.308 381.212 152.511C381.692 152.703 382.198 152.799 382.732 152.799C383.382 152.799 383.91 152.671 384.316 152.415C384.721 152.148 384.924 151.769 384.924 151.279C384.924 150.948 384.822 150.697 384.62 150.527C384.428 150.345 384.145 150.201 383.772 150.095C383.409 149.977 382.972 149.855 382.46 149.727C381.884 149.567 381.398 149.401 381.004 149.231C380.62 149.049 380.326 148.825 380.124 148.559C379.932 148.281 379.836 147.924 379.836 147.487C379.836 146.943 379.969 146.495 380.236 146.143C380.513 145.78 380.886 145.508 381.356 145.327C381.836 145.135 382.369 145.039 382.956 145.039C383.596 145.039 384.161 145.14 384.652 145.343C385.142 145.545 385.542 145.828 385.852 146.191L385.324 146.927C385.025 146.585 384.668 146.335 384.252 146.175C383.846 146.004 383.393 145.919 382.892 145.919C382.55 145.919 382.225 145.967 381.916 146.063C381.606 146.148 381.35 146.297 381.148 146.511C380.956 146.713 380.86 146.996 380.86 147.359C380.86 147.657 380.934 147.892 381.084 148.063C381.233 148.223 381.457 148.361 381.756 148.479C382.054 148.585 382.422 148.703 382.86 148.831C383.489 149.001 384.038 149.177 384.508 149.359C384.977 149.529 385.34 149.753 385.596 150.031C385.852 150.308 385.98 150.697 385.98 151.199C385.98 151.977 385.686 152.585 385.1 153.023C384.513 153.46 383.74 153.679 382.78 153.679ZM390.514 153.679C389.831 153.679 389.197 153.567 388.61 153.343C388.023 153.119 387.517 152.777 387.09 152.319L387.538 151.551C388.007 151.988 388.477 152.308 388.946 152.511C389.426 152.703 389.933 152.799 390.466 152.799C391.117 152.799 391.645 152.671 392.05 152.415C392.455 152.148 392.658 151.769 392.658 151.279C392.658 150.948 392.557 150.697 392.354 150.527C392.162 150.345 391.879 150.201 391.506 150.095C391.143 149.977 390.706 149.855 390.194 149.727C389.618 149.567 389.133 149.401 388.738 149.231C388.354 149.049 388.061 148.825 387.858 148.559C387.666 148.281 387.57 147.924 387.57 147.487C387.57 146.943 387.703 146.495 387.97 146.143C388.247 145.78 388.621 145.508 389.09 145.327C389.57 145.135 390.103 145.039 390.69 145.039C391.33 145.039 391.895 145.14 392.386 145.343C392.877 145.545 393.277 145.828 393.586 146.191L393.058 146.927C392.759 146.585 392.402 146.335 391.986 146.175C391.581 146.004 391.127 145.919 390.626 145.919C390.285 145.919 389.959 145.967 389.65 146.063C389.341 146.148 389.085 146.297 388.882 146.511C388.69 146.713 388.594 146.996 388.594 147.359C388.594 147.657 388.669 147.892 388.818 148.063C388.967 148.223 389.191 148.361 389.49 148.479C389.789 148.585 390.157 148.703 390.594 148.831C391.223 149.001 391.773 149.177 392.242 149.359C392.711 149.529 393.074 149.753 393.33 150.031C393.586 150.308 393.714 150.697 393.714 151.199C393.714 151.977 393.421 152.585 392.834 153.023C392.247 153.46 391.474 153.679 390.514 153.679Z" fill="#8A8FB9"/>
</svg>
