<svg width="95" height="41" viewBox="0 0 95 41" fill="none" xmlns="http://www.w3.org/2000/svg">
<path d="M34.5449 25.6201V27H28.1465V25.6201H34.5449ZM28.4805 14.2031V27H26.7842V14.2031H28.4805ZM35.8105 22.3506V22.1484C35.8105 21.4629 35.9102 20.8271 36.1094 20.2412C36.3086 19.6494 36.5957 19.1367 36.9707 18.7031C37.3457 18.2637 37.7998 17.9238 38.333 17.6836C38.8662 17.4375 39.4639 17.3145 40.126 17.3145C40.7939 17.3145 41.3945 17.4375 41.9277 17.6836C42.4668 17.9238 42.9238 18.2637 43.2988 18.7031C43.6797 19.1367 43.9697 19.6494 44.1689 20.2412C44.3682 20.8271 44.4678 21.4629 44.4678 22.1484V22.3506C44.4678 23.0361 44.3682 23.6719 44.1689 24.2578C43.9697 24.8438 43.6797 25.3564 43.2988 25.7959C42.9238 26.2295 42.4697 26.5693 41.9365 26.8154C41.4092 27.0557 40.8115 27.1758 40.1436 27.1758C39.4756 27.1758 38.875 27.0557 38.3418 26.8154C37.8086 26.5693 37.3516 26.2295 36.9707 25.7959C36.5957 25.3564 36.3086 24.8438 36.1094 24.2578C35.9102 23.6719 35.8105 23.0361 35.8105 22.3506ZM37.4365 22.1484V22.3506C37.4365 22.8252 37.4922 23.2734 37.6035 23.6953C37.7148 24.1113 37.8818 24.4805 38.1045 24.8027C38.333 25.125 38.6172 25.3799 38.957 25.5674C39.2969 25.749 39.6924 25.8398 40.1436 25.8398C40.5889 25.8398 40.9785 25.749 41.3125 25.5674C41.6523 25.3799 41.9336 25.125 42.1562 24.8027C42.3789 24.4805 42.5459 24.1113 42.6572 23.6953C42.7744 23.2734 42.833 22.8252 42.833 22.3506V22.1484C42.833 21.6797 42.7744 21.2373 42.6572 20.8213C42.5459 20.3994 42.376 20.0273 42.1475 19.7051C41.9248 19.377 41.6436 19.1191 41.3037 18.9316C40.9697 18.7441 40.5771 18.6504 40.126 18.6504C39.6807 18.6504 39.2881 18.7441 38.9482 18.9316C38.6143 19.1191 38.333 19.377 38.1045 19.7051C37.8818 20.0273 37.7148 20.3994 37.6035 20.8213C37.4922 21.2373 37.4365 21.6797 37.4365 22.1484ZM52.668 17.4902H54.1445V26.7979C54.1445 27.6357 53.9746 28.3506 53.6348 28.9424C53.2949 29.5342 52.8203 29.9824 52.2109 30.2871C51.6074 30.5977 50.9102 30.7529 50.1191 30.7529C49.791 30.7529 49.4043 30.7002 48.959 30.5947C48.5195 30.4951 48.0859 30.3223 47.6582 30.0762C47.2363 29.8359 46.8818 29.5107 46.5947 29.1006L47.4473 28.1338C47.8457 28.6143 48.2617 28.9482 48.6953 29.1357C49.1348 29.3232 49.5684 29.417 49.9961 29.417C50.5117 29.417 50.957 29.3203 51.332 29.127C51.707 28.9336 51.9971 28.6465 52.2021 28.2656C52.4131 27.8906 52.5186 27.4277 52.5186 26.877V19.582L52.668 17.4902ZM46.1201 22.3506V22.166C46.1201 21.4395 46.2051 20.7803 46.375 20.1885C46.5508 19.5908 46.7998 19.0781 47.1221 18.6504C47.4502 18.2227 47.8457 17.8945 48.3086 17.666C48.7715 17.4316 49.293 17.3145 49.873 17.3145C50.4707 17.3145 50.9922 17.4199 51.4375 17.6309C51.8887 17.8359 52.2695 18.1377 52.5801 18.5361C52.8965 18.9287 53.1455 19.4033 53.3271 19.96C53.5088 20.5166 53.6348 21.1465 53.7051 21.8496V22.6582C53.6406 23.3555 53.5146 23.9824 53.3271 24.5391C53.1455 25.0957 52.8965 25.5703 52.5801 25.9629C52.2695 26.3555 51.8887 26.6572 51.4375 26.8682C50.9863 27.0732 50.459 27.1758 49.8555 27.1758C49.2871 27.1758 48.7715 27.0557 48.3086 26.8154C47.8516 26.5752 47.459 26.2383 47.1309 25.8047C46.8027 25.3711 46.5508 24.8613 46.375 24.2754C46.2051 23.6836 46.1201 23.042 46.1201 22.3506ZM47.7461 22.166V22.3506C47.7461 22.8252 47.793 23.2705 47.8867 23.6865C47.9863 24.1025 48.1357 24.4688 48.335 24.7852C48.54 25.1016 48.8008 25.3506 49.1172 25.5322C49.4336 25.708 49.8115 25.7959 50.251 25.7959C50.79 25.7959 51.2354 25.6816 51.5869 25.4531C51.9385 25.2246 52.2168 24.9229 52.4219 24.5479C52.6328 24.1729 52.7969 23.7656 52.9141 23.3262V21.208C52.8496 20.8857 52.75 20.5752 52.6152 20.2764C52.4863 19.9717 52.3164 19.7021 52.1055 19.4678C51.9004 19.2275 51.6455 19.0371 51.3408 18.8965C51.0361 18.7559 50.6787 18.6855 50.2686 18.6855C49.8232 18.6855 49.4395 18.7793 49.1172 18.9668C48.8008 19.1484 48.54 19.4004 48.335 19.7227C48.1357 20.0391 47.9863 20.4082 47.8867 20.8301C47.793 21.2461 47.7461 21.6914 47.7461 22.166ZM58.3809 17.4902V27H56.7461V17.4902H58.3809ZM56.623 14.9678C56.623 14.7041 56.7021 14.4814 56.8604 14.2998C57.0244 14.1182 57.2646 14.0273 57.5811 14.0273C57.8916 14.0273 58.1289 14.1182 58.293 14.2998C58.4629 14.4814 58.5479 14.7041 58.5479 14.9678C58.5479 15.2197 58.4629 15.4365 58.293 15.6182C58.1289 15.7939 57.8916 15.8818 57.5811 15.8818C57.2646 15.8818 57.0244 15.7939 56.8604 15.6182C56.7021 15.4365 56.623 15.2197 56.623 14.9678ZM62.6172 19.5205V27H60.9912V17.4902H62.5293L62.6172 19.5205ZM62.2305 21.8848L61.5537 21.8584C61.5596 21.208 61.6562 20.6074 61.8438 20.0566C62.0312 19.5 62.2949 19.0166 62.6348 18.6064C62.9746 18.1963 63.3789 17.8799 63.8477 17.6572C64.3223 17.4287 64.8467 17.3145 65.4209 17.3145C65.8896 17.3145 66.3115 17.3789 66.6865 17.5078C67.0615 17.6309 67.3809 17.8301 67.6445 18.1055C67.9141 18.3809 68.1191 18.7383 68.2598 19.1777C68.4004 19.6113 68.4707 20.1416 68.4707 20.7686V27H66.8359V20.751C66.8359 20.2529 66.7627 19.8545 66.6162 19.5557C66.4697 19.251 66.2559 19.0312 65.9746 18.8965C65.6934 18.7559 65.3477 18.6855 64.9375 18.6855C64.5332 18.6855 64.1641 18.7705 63.8301 18.9404C63.502 19.1104 63.2178 19.3447 62.9775 19.6436C62.7432 19.9424 62.5586 20.2852 62.4238 20.6719C62.2949 21.0527 62.2305 21.457 62.2305 21.8848Z" fill="white"/>
<path d="M10 2H85V-2H10V2ZM93 10V31H97V10H93ZM85 39H10V43H85V39ZM2 31V10H-2V31H2ZM10 39C5.58172 39 2 35.4183 2 31H-2C-2 37.6274 3.37258 43 10 43V39ZM93 31C93 35.4183 89.4183 39 85 39V43C91.6274 43 97 37.6274 97 31H93ZM85 2C89.4183 2 93 5.58172 93 10H97C97 3.37258 91.6274 -2 85 -2V2ZM10 -2C3.37258 -2 -2 3.37258 -2 10H2C2 5.58172 5.58172 2 10 2V-2Z" fill="white"/>
</svg>
