<svg width="631" height="67" viewBox="0 0 631 67" fill="none" xmlns="http://www.w3.org/2000/svg">
<path d="M311.545 38.6201V40H305.146V38.6201H311.545ZM305.48 27.2031V40H303.784V27.2031H305.48ZM312.811 35.3506V35.1484C312.811 34.4629 312.91 33.8271 313.109 33.2412C313.309 32.6494 313.596 32.1367 313.971 31.7031C314.346 31.2637 314.8 30.9238 315.333 30.6836C315.866 30.4375 316.464 30.3145 317.126 30.3145C317.794 30.3145 318.395 30.4375 318.928 30.6836C319.467 30.9238 319.924 31.2637 320.299 31.7031C320.68 32.1367 320.97 32.6494 321.169 33.2412C321.368 33.8271 321.468 34.4629 321.468 35.1484V35.3506C321.468 36.0361 321.368 36.6719 321.169 37.2578C320.97 37.8438 320.68 38.3564 320.299 38.7959C319.924 39.2295 319.47 39.5693 318.937 39.8154C318.409 40.0557 317.812 40.1758 317.144 40.1758C316.476 40.1758 315.875 40.0557 315.342 39.8154C314.809 39.5693 314.352 39.2295 313.971 38.7959C313.596 38.3564 313.309 37.8438 313.109 37.2578C312.91 36.6719 312.811 36.0361 312.811 35.3506ZM314.437 35.1484V35.3506C314.437 35.8252 314.492 36.2734 314.604 36.6953C314.715 37.1113 314.882 37.4805 315.104 37.8027C315.333 38.125 315.617 38.3799 315.957 38.5674C316.297 38.749 316.692 38.8398 317.144 38.8398C317.589 38.8398 317.979 38.749 318.312 38.5674C318.652 38.3799 318.934 38.125 319.156 37.8027C319.379 37.4805 319.546 37.1113 319.657 36.6953C319.774 36.2734 319.833 35.8252 319.833 35.3506V35.1484C319.833 34.6797 319.774 34.2373 319.657 33.8213C319.546 33.3994 319.376 33.0273 319.147 32.7051C318.925 32.377 318.644 32.1191 318.304 31.9316C317.97 31.7441 317.577 31.6504 317.126 31.6504C316.681 31.6504 316.288 31.7441 315.948 31.9316C315.614 32.1191 315.333 32.377 315.104 32.7051C314.882 33.0273 314.715 33.3994 314.604 33.8213C314.492 34.2373 314.437 34.6797 314.437 35.1484ZM329.668 30.4902H331.145V39.7979C331.145 40.6357 330.975 41.3506 330.635 41.9424C330.295 42.5342 329.82 42.9824 329.211 43.2871C328.607 43.5977 327.91 43.7529 327.119 43.7529C326.791 43.7529 326.404 43.7002 325.959 43.5947C325.52 43.4951 325.086 43.3223 324.658 43.0762C324.236 42.8359 323.882 42.5107 323.595 42.1006L324.447 41.1338C324.846 41.6143 325.262 41.9482 325.695 42.1357C326.135 42.3232 326.568 42.417 326.996 42.417C327.512 42.417 327.957 42.3203 328.332 42.127C328.707 41.9336 328.997 41.6465 329.202 41.2656C329.413 40.8906 329.519 40.4277 329.519 39.877V32.582L329.668 30.4902ZM323.12 35.3506V35.166C323.12 34.4395 323.205 33.7803 323.375 33.1885C323.551 32.5908 323.8 32.0781 324.122 31.6504C324.45 31.2227 324.846 30.8945 325.309 30.666C325.771 30.4316 326.293 30.3145 326.873 30.3145C327.471 30.3145 327.992 30.4199 328.438 30.6309C328.889 30.8359 329.27 31.1377 329.58 31.5361C329.896 31.9287 330.146 32.4033 330.327 32.96C330.509 33.5166 330.635 34.1465 330.705 34.8496V35.6582C330.641 36.3555 330.515 36.9824 330.327 37.5391C330.146 38.0957 329.896 38.5703 329.58 38.9629C329.27 39.3555 328.889 39.6572 328.438 39.8682C327.986 40.0732 327.459 40.1758 326.855 40.1758C326.287 40.1758 325.771 40.0557 325.309 39.8154C324.852 39.5752 324.459 39.2383 324.131 38.8047C323.803 38.3711 323.551 37.8613 323.375 37.2754C323.205 36.6836 323.12 36.042 323.12 35.3506ZM324.746 35.166V35.3506C324.746 35.8252 324.793 36.2705 324.887 36.6865C324.986 37.1025 325.136 37.4688 325.335 37.7852C325.54 38.1016 325.801 38.3506 326.117 38.5322C326.434 38.708 326.812 38.7959 327.251 38.7959C327.79 38.7959 328.235 38.6816 328.587 38.4531C328.938 38.2246 329.217 37.9229 329.422 37.5479C329.633 37.1729 329.797 36.7656 329.914 36.3262V34.208C329.85 33.8857 329.75 33.5752 329.615 33.2764C329.486 32.9717 329.316 32.7021 329.105 32.4678C328.9 32.2275 328.646 32.0371 328.341 31.8965C328.036 31.7559 327.679 31.6855 327.269 31.6855C326.823 31.6855 326.439 31.7793 326.117 31.9668C325.801 32.1484 325.54 32.4004 325.335 32.7227C325.136 33.0391 324.986 33.4082 324.887 33.8301C324.793 34.2461 324.746 34.6914 324.746 35.166ZM335.381 30.4902V40H333.746V30.4902H335.381ZM333.623 27.9678C333.623 27.7041 333.702 27.4814 333.86 27.2998C334.024 27.1182 334.265 27.0273 334.581 27.0273C334.892 27.0273 335.129 27.1182 335.293 27.2998C335.463 27.4814 335.548 27.7041 335.548 27.9678C335.548 28.2197 335.463 28.4365 335.293 28.6182C335.129 28.7939 334.892 28.8818 334.581 28.8818C334.265 28.8818 334.024 28.7939 333.86 28.6182C333.702 28.4365 333.623 28.2197 333.623 27.9678ZM339.617 32.5205V40H337.991V30.4902H339.529L339.617 32.5205ZM339.23 34.8848L338.554 34.8584C338.56 34.208 338.656 33.6074 338.844 33.0566C339.031 32.5 339.295 32.0166 339.635 31.6064C339.975 31.1963 340.379 30.8799 340.848 30.6572C341.322 30.4287 341.847 30.3145 342.421 30.3145C342.89 30.3145 343.312 30.3789 343.687 30.5078C344.062 30.6309 344.381 30.8301 344.645 31.1055C344.914 31.3809 345.119 31.7383 345.26 32.1777C345.4 32.6113 345.471 33.1416 345.471 33.7686V40H343.836V33.751C343.836 33.2529 343.763 32.8545 343.616 32.5557C343.47 32.251 343.256 32.0312 342.975 31.8965C342.693 31.7559 342.348 31.6855 341.938 31.6855C341.533 31.6855 341.164 31.7705 340.83 31.9404C340.502 32.1104 340.218 32.3447 339.978 32.6436C339.743 32.9424 339.559 33.2852 339.424 33.6719C339.295 34.0527 339.23 34.457 339.23 34.8848Z" fill="white"/>
<path d="M287 15H362V11H287V15ZM370 23V44H374V23H370ZM362 52H287V56H362V52ZM279 44V23H275V44H279ZM287 52C282.582 52 279 48.4183 279 44H275C275 50.6274 280.373 56 287 56V52ZM370 44C370 48.4183 366.418 52 362 52V56C368.627 56 374 50.6274 374 44H370ZM362 15C366.418 15 370 18.5817 370 23H374C374 16.3726 368.627 11 362 11V15ZM287 11C280.373 11 275 16.3726 275 23H279C279 18.5817 282.582 15 287 15V11Z" fill="white"/>
<path d="M429.537 28.3369L425.301 40H423.569L428.447 27.2031H429.563L429.537 28.3369ZM433.088 40L428.843 28.3369L428.816 27.2031H429.933L434.828 40H433.088ZM432.868 35.2627V36.6514H425.679V35.2627H432.868ZM436.287 26.5H437.922V38.1543L437.781 40H436.287V26.5ZM444.347 35.166V35.3506C444.347 36.042 444.265 36.6836 444.101 37.2754C443.937 37.8613 443.696 38.3711 443.38 38.8047C443.063 39.2383 442.677 39.5752 442.22 39.8154C441.763 40.0557 441.238 40.1758 440.646 40.1758C440.043 40.1758 439.513 40.0732 439.056 39.8682C438.604 39.6572 438.224 39.3555 437.913 38.9629C437.603 38.5703 437.354 38.0957 437.166 37.5391C436.984 36.9824 436.858 36.3555 436.788 35.6582V34.8496C436.858 34.1465 436.984 33.5166 437.166 32.96C437.354 32.4033 437.603 31.9287 437.913 31.5361C438.224 31.1377 438.604 30.8359 439.056 30.6309C439.507 30.4199 440.031 30.3145 440.629 30.3145C441.227 30.3145 441.757 30.4316 442.22 30.666C442.683 30.8945 443.069 31.2227 443.38 31.6504C443.696 32.0781 443.937 32.5908 444.101 33.1885C444.265 33.7803 444.347 34.4395 444.347 35.166ZM442.712 35.3506V35.166C442.712 34.6914 442.668 34.2461 442.58 33.8301C442.492 33.4082 442.352 33.0391 442.158 32.7227C441.965 32.4004 441.71 32.1484 441.394 31.9668C441.077 31.7793 440.688 31.6855 440.225 31.6855C439.814 31.6855 439.457 31.7559 439.152 31.8965C438.854 32.0371 438.599 32.2275 438.388 32.4678C438.177 32.7021 438.004 32.9717 437.869 33.2764C437.74 33.5752 437.644 33.8857 437.579 34.208V36.3262C437.673 36.7363 437.825 37.1318 438.036 37.5127C438.253 37.8877 438.54 38.1953 438.897 38.4355C439.261 38.6758 439.709 38.7959 440.242 38.7959C440.682 38.7959 441.057 38.708 441.367 38.5322C441.684 38.3506 441.938 38.1016 442.132 37.7852C442.331 37.4688 442.478 37.1025 442.571 36.6865C442.665 36.2705 442.712 35.8252 442.712 35.3506ZM445.973 35.3506V35.1484C445.973 34.4629 446.072 33.8271 446.271 33.2412C446.471 32.6494 446.758 32.1367 447.133 31.7031C447.508 31.2637 447.962 30.9238 448.495 30.6836C449.028 30.4375 449.626 30.3145 450.288 30.3145C450.956 30.3145 451.557 30.4375 452.09 30.6836C452.629 30.9238 453.086 31.2637 453.461 31.7031C453.842 32.1367 454.132 32.6494 454.331 33.2412C454.53 33.8271 454.63 34.4629 454.63 35.1484V35.3506C454.63 36.0361 454.53 36.6719 454.331 37.2578C454.132 37.8438 453.842 38.3564 453.461 38.7959C453.086 39.2295 452.632 39.5693 452.099 39.8154C451.571 40.0557 450.974 40.1758 450.306 40.1758C449.638 40.1758 449.037 40.0557 448.504 39.8154C447.971 39.5693 447.514 39.2295 447.133 38.7959C446.758 38.3564 446.471 37.8438 446.271 37.2578C446.072 36.6719 445.973 36.0361 445.973 35.3506ZM447.599 35.1484V35.3506C447.599 35.8252 447.654 36.2734 447.766 36.6953C447.877 37.1113 448.044 37.4805 448.267 37.8027C448.495 38.125 448.779 38.3799 449.119 38.5674C449.459 38.749 449.854 38.8398 450.306 38.8398C450.751 38.8398 451.141 38.749 451.475 38.5674C451.814 38.3799 452.096 38.125 452.318 37.8027C452.541 37.4805 452.708 37.1113 452.819 36.6953C452.937 36.2734 452.995 35.8252 452.995 35.3506V35.1484C452.995 34.6797 452.937 34.2373 452.819 33.8213C452.708 33.3994 452.538 33.0273 452.31 32.7051C452.087 32.377 451.806 32.1191 451.466 31.9316C451.132 31.7441 450.739 31.6504 450.288 31.6504C449.843 31.6504 449.45 31.7441 449.11 31.9316C448.776 32.1191 448.495 32.377 448.267 32.7051C448.044 33.0273 447.877 33.3994 447.766 33.8213C447.654 34.2373 447.599 34.6797 447.599 35.1484ZM462.487 37.8027V30.4902H464.122V40H462.566L462.487 37.8027ZM462.795 35.7988L463.472 35.7812C463.472 36.4141 463.404 37 463.27 37.5391C463.141 38.0723 462.93 38.5352 462.637 38.9277C462.344 39.3203 461.96 39.6279 461.485 39.8506C461.011 40.0674 460.434 40.1758 459.754 40.1758C459.291 40.1758 458.866 40.1084 458.479 39.9736C458.099 39.8389 457.771 39.6309 457.495 39.3496C457.22 39.0684 457.006 38.7021 456.854 38.251C456.707 37.7998 456.634 37.2578 456.634 36.625V30.4902H458.26V36.6426C458.26 37.0703 458.307 37.4248 458.4 37.7061C458.5 37.9814 458.632 38.2012 458.796 38.3652C458.966 38.5234 459.153 38.6348 459.358 38.6992C459.569 38.7637 459.786 38.7959 460.009 38.7959C460.7 38.7959 461.248 38.6641 461.652 38.4004C462.057 38.1309 462.347 37.7705 462.522 37.3193C462.704 36.8623 462.795 36.3555 462.795 35.7988ZM470.582 30.4902V31.7383H465.44V30.4902H470.582ZM467.181 28.1787H468.807V37.6445C468.807 37.9668 468.856 38.21 468.956 38.374C469.056 38.5381 469.185 38.6465 469.343 38.6992C469.501 38.752 469.671 38.7783 469.853 38.7783C469.987 38.7783 470.128 38.7666 470.274 38.7432C470.427 38.7139 470.541 38.6904 470.617 38.6729L470.626 40C470.497 40.041 470.327 40.0791 470.116 40.1143C469.911 40.1553 469.662 40.1758 469.369 40.1758C468.971 40.1758 468.604 40.0967 468.271 39.9385C467.937 39.7803 467.67 39.5166 467.471 39.1475C467.277 38.7725 467.181 38.2686 467.181 37.6357V28.1787ZM484.521 27.2031H486.209V35.8604C486.209 36.8213 485.995 37.6211 485.567 38.2598C485.14 38.8984 484.571 39.3789 483.862 39.7012C483.159 40.0176 482.395 40.1758 481.568 40.1758C480.701 40.1758 479.916 40.0176 479.213 39.7012C478.516 39.3789 477.962 38.8984 477.552 38.2598C477.147 37.6211 476.945 36.8213 476.945 35.8604V27.2031H478.624V35.8604C478.624 36.5283 478.747 37.0791 478.993 37.5127C479.239 37.9463 479.582 38.2686 480.021 38.4795C480.467 38.6904 480.982 38.7959 481.568 38.7959C482.16 38.7959 482.676 38.6904 483.115 38.4795C483.561 38.2686 483.906 37.9463 484.152 37.5127C484.398 37.0791 484.521 36.5283 484.521 35.8604V27.2031ZM494.163 37.4775C494.163 37.2432 494.11 37.0264 494.005 36.8271C493.905 36.6221 493.697 36.4375 493.381 36.2734C493.07 36.1035 492.602 35.957 491.975 35.834C491.447 35.7227 490.97 35.5908 490.542 35.4385C490.12 35.2861 489.76 35.1016 489.461 34.8848C489.168 34.668 488.942 34.4131 488.784 34.1201C488.626 33.8271 488.547 33.4844 488.547 33.0918C488.547 32.7168 488.629 32.3623 488.793 32.0283C488.963 31.6943 489.2 31.3984 489.505 31.1406C489.815 30.8828 490.188 30.6807 490.621 30.5342C491.055 30.3877 491.538 30.3145 492.071 30.3145C492.833 30.3145 493.483 30.4492 494.022 30.7188C494.562 30.9883 494.975 31.3486 495.262 31.7998C495.549 32.2451 495.692 32.7402 495.692 33.2852H494.066C494.066 33.0215 493.987 32.7666 493.829 32.5205C493.677 32.2686 493.451 32.0605 493.152 31.8965C492.859 31.7324 492.499 31.6504 492.071 31.6504C491.62 31.6504 491.254 31.7207 490.973 31.8613C490.697 31.9961 490.495 32.1689 490.366 32.3799C490.243 32.5908 490.182 32.8135 490.182 33.0479C490.182 33.2236 490.211 33.3818 490.27 33.5225C490.334 33.6572 490.445 33.7832 490.604 33.9004C490.762 34.0117 490.984 34.1172 491.271 34.2168C491.559 34.3164 491.925 34.416 492.37 34.5156C493.149 34.6914 493.791 34.9023 494.295 35.1484C494.799 35.3945 495.174 35.6963 495.42 36.0537C495.666 36.4111 495.789 36.8447 495.789 37.3545C495.789 37.7705 495.701 38.1514 495.525 38.4971C495.355 38.8428 495.106 39.1416 494.778 39.3936C494.456 39.6396 494.069 39.833 493.618 39.9736C493.173 40.1084 492.672 40.1758 492.115 40.1758C491.277 40.1758 490.568 40.0264 489.988 39.7275C489.408 39.4287 488.969 39.042 488.67 38.5674C488.371 38.0928 488.222 37.5918 488.222 37.0645H489.856C489.88 37.5098 490.009 37.8643 490.243 38.1279C490.478 38.3857 490.765 38.5703 491.104 38.6816C491.444 38.7871 491.781 38.8398 492.115 38.8398C492.561 38.8398 492.933 38.7812 493.231 38.6641C493.536 38.5469 493.768 38.3857 493.926 38.1807C494.084 37.9756 494.163 37.7412 494.163 37.4775Z" fill="white"/>
<path d="M408 15H512V11H408V15ZM520 23V44H524V23H520ZM512 52H408V56H512V52ZM400 44V23H396V44H400ZM408 52C403.582 52 400 48.4183 400 44H396C396 50.6274 401.373 56 408 56V52ZM520 44C520 48.4183 516.418 52 512 52V56C518.627 56 524 50.6274 524 44H520ZM512 15C516.418 15 520 18.5817 520 23H524C524 16.3726 518.627 11 512 11V15ZM408 11C401.373 11 396 16.3726 396 23H400C400 18.5817 403.582 15 408 15V11Z" fill="white"/>
<rect width="126" height="41" transform="translate(125 13)" fill="#232025"/>
<path d="M158.548 36.7656C158.548 36.4668 158.501 36.2031 158.407 35.9746C158.319 35.7402 158.161 35.5293 157.933 35.3418C157.71 35.1543 157.399 34.9756 157.001 34.8057C156.608 34.6357 156.11 34.4629 155.507 34.2871C154.874 34.0996 154.303 33.8916 153.793 33.6631C153.283 33.4287 152.847 33.1621 152.483 32.8633C152.12 32.5645 151.842 32.2217 151.648 31.835C151.455 31.4482 151.358 31.0059 151.358 30.5078C151.358 30.0098 151.461 29.5498 151.666 29.1279C151.871 28.7061 152.164 28.3398 152.545 28.0293C152.932 27.7129 153.392 27.4668 153.925 27.291C154.458 27.1152 155.053 27.0273 155.709 27.0273C156.67 27.0273 157.484 27.2119 158.152 27.5811C158.826 27.9443 159.339 28.4219 159.69 29.0137C160.042 29.5996 160.218 30.2266 160.218 30.8945H158.53C158.53 30.4141 158.428 29.9893 158.223 29.6201C158.018 29.2451 157.707 28.9521 157.291 28.7412C156.875 28.5244 156.348 28.416 155.709 28.416C155.105 28.416 154.607 28.5068 154.215 28.6885C153.822 28.8701 153.529 29.1162 153.336 29.4268C153.148 29.7373 153.055 30.0918 153.055 30.4902C153.055 30.7598 153.11 31.0059 153.222 31.2285C153.339 31.4453 153.518 31.6475 153.758 31.835C154.004 32.0225 154.314 32.1953 154.689 32.3535C155.07 32.5117 155.524 32.6641 156.052 32.8105C156.778 33.0156 157.405 33.2441 157.933 33.4961C158.46 33.748 158.894 34.0322 159.233 34.3486C159.579 34.6592 159.834 35.0137 159.998 35.4121C160.168 35.8047 160.253 36.25 160.253 36.748C160.253 37.2695 160.147 37.7412 159.937 38.1631C159.726 38.585 159.424 38.9453 159.031 39.2441C158.639 39.543 158.167 39.7744 157.616 39.9385C157.071 40.0967 156.462 40.1758 155.788 40.1758C155.196 40.1758 154.613 40.0938 154.039 39.9297C153.471 39.7656 152.952 39.5195 152.483 39.1914C152.021 38.8633 151.648 38.459 151.367 37.9785C151.092 37.4922 150.954 36.9297 150.954 36.291H152.642C152.642 36.7305 152.727 37.1084 152.896 37.4248C153.066 37.7354 153.298 37.9932 153.591 38.1982C153.89 38.4033 154.227 38.5557 154.602 38.6553C154.982 38.749 155.378 38.7959 155.788 38.7959C156.38 38.7959 156.881 38.7139 157.291 38.5498C157.701 38.3857 158.012 38.1514 158.223 37.8467C158.439 37.542 158.548 37.1816 158.548 36.7656ZM163.795 26.5V40H162.169V26.5H163.795ZM163.408 34.8848L162.731 34.8584C162.737 34.208 162.834 33.6074 163.021 33.0566C163.209 32.5 163.473 32.0166 163.812 31.6064C164.152 31.1963 164.557 30.8799 165.025 30.6572C165.5 30.4287 166.024 30.3145 166.599 30.3145C167.067 30.3145 167.489 30.3789 167.864 30.5078C168.239 30.6309 168.559 30.8301 168.822 31.1055C169.092 31.3809 169.297 31.7383 169.438 32.1777C169.578 32.6113 169.648 33.1416 169.648 33.7686V40H168.014V33.751C168.014 33.2529 167.94 32.8545 167.794 32.5557C167.647 32.251 167.434 32.0312 167.152 31.8965C166.871 31.7559 166.525 31.6855 166.115 31.6855C165.711 31.6855 165.342 31.7705 165.008 31.9404C164.68 32.1104 164.396 32.3447 164.155 32.6436C163.921 32.9424 163.736 33.2852 163.602 33.6719C163.473 34.0527 163.408 34.457 163.408 34.8848ZM171.652 35.3506V35.1484C171.652 34.4629 171.752 33.8271 171.951 33.2412C172.15 32.6494 172.438 32.1367 172.812 31.7031C173.188 31.2637 173.642 30.9238 174.175 30.6836C174.708 30.4375 175.306 30.3145 175.968 30.3145C176.636 30.3145 177.236 30.4375 177.77 30.6836C178.309 30.9238 178.766 31.2637 179.141 31.7031C179.521 32.1367 179.812 32.6494 180.011 33.2412C180.21 33.8271 180.31 34.4629 180.31 35.1484V35.3506C180.31 36.0361 180.21 36.6719 180.011 37.2578C179.812 37.8438 179.521 38.3564 179.141 38.7959C178.766 39.2295 178.312 39.5693 177.778 39.8154C177.251 40.0557 176.653 40.1758 175.985 40.1758C175.317 40.1758 174.717 40.0557 174.184 39.8154C173.65 39.5693 173.193 39.2295 172.812 38.7959C172.438 38.3564 172.15 37.8438 171.951 37.2578C171.752 36.6719 171.652 36.0361 171.652 35.3506ZM173.278 35.1484V35.3506C173.278 35.8252 173.334 36.2734 173.445 36.6953C173.557 37.1113 173.724 37.4805 173.946 37.8027C174.175 38.125 174.459 38.3799 174.799 38.5674C175.139 38.749 175.534 38.8398 175.985 38.8398C176.431 38.8398 176.82 38.749 177.154 38.5674C177.494 38.3799 177.775 38.125 177.998 37.8027C178.221 37.4805 178.388 37.1113 178.499 36.6953C178.616 36.2734 178.675 35.8252 178.675 35.3506V35.1484C178.675 34.6797 178.616 34.2373 178.499 33.8213C178.388 33.3994 178.218 33.0273 177.989 32.7051C177.767 32.377 177.485 32.1191 177.146 31.9316C176.812 31.7441 176.419 31.6504 175.968 31.6504C175.522 31.6504 175.13 31.7441 174.79 31.9316C174.456 32.1191 174.175 32.377 173.946 32.7051C173.724 33.0273 173.557 33.3994 173.445 33.8213C173.334 34.2373 173.278 34.6797 173.278 35.1484ZM183.975 32.3184V43.6562H182.34V30.4902H183.834L183.975 32.3184ZM190.382 35.166V35.3506C190.382 36.042 190.3 36.6836 190.136 37.2754C189.972 37.8613 189.731 38.3711 189.415 38.8047C189.104 39.2383 188.721 39.5752 188.264 39.8154C187.807 40.0557 187.282 40.1758 186.69 40.1758C186.087 40.1758 185.554 40.0762 185.091 39.877C184.628 39.6777 184.235 39.3877 183.913 39.0068C183.591 38.626 183.333 38.1689 183.14 37.6357C182.952 37.1025 182.823 36.502 182.753 35.834V34.8496C182.823 34.1465 182.955 33.5166 183.148 32.96C183.342 32.4033 183.597 31.9287 183.913 31.5361C184.235 31.1377 184.625 30.8359 185.082 30.6309C185.539 30.4199 186.066 30.3145 186.664 30.3145C187.262 30.3145 187.792 30.4316 188.255 30.666C188.718 30.8945 189.107 31.2227 189.424 31.6504C189.74 32.0781 189.978 32.5908 190.136 33.1885C190.3 33.7803 190.382 34.4395 190.382 35.166ZM188.747 35.3506V35.166C188.747 34.6914 188.697 34.2461 188.598 33.8301C188.498 33.4082 188.343 33.0391 188.132 32.7227C187.927 32.4004 187.663 32.1484 187.341 31.9668C187.019 31.7793 186.635 31.6855 186.189 31.6855C185.779 31.6855 185.422 31.7559 185.117 31.8965C184.818 32.0371 184.563 32.2275 184.353 32.4678C184.142 32.7021 183.969 32.9717 183.834 33.2764C183.705 33.5752 183.608 33.8857 183.544 34.208V36.4844C183.661 36.8945 183.825 37.2812 184.036 37.6445C184.247 38.002 184.528 38.292 184.88 38.5146C185.231 38.7314 185.674 38.8398 186.207 38.8398C186.646 38.8398 187.024 38.749 187.341 38.5674C187.663 38.3799 187.927 38.125 188.132 37.8027C188.343 37.4805 188.498 37.1113 188.598 36.6953C188.697 36.2734 188.747 35.8252 188.747 35.3506ZM194.082 32.3184V43.6562H192.447V30.4902H193.941L194.082 32.3184ZM200.489 35.166V35.3506C200.489 36.042 200.407 36.6836 200.243 37.2754C200.079 37.8613 199.839 38.3711 199.522 38.8047C199.212 39.2383 198.828 39.5752 198.371 39.8154C197.914 40.0557 197.39 40.1758 196.798 40.1758C196.194 40.1758 195.661 40.0762 195.198 39.877C194.735 39.6777 194.343 39.3877 194.021 39.0068C193.698 38.626 193.44 38.1689 193.247 37.6357C193.06 37.1025 192.931 36.502 192.86 35.834V34.8496C192.931 34.1465 193.062 33.5166 193.256 32.96C193.449 32.4033 193.704 31.9287 194.021 31.5361C194.343 31.1377 194.732 30.8359 195.189 30.6309C195.646 30.4199 196.174 30.3145 196.771 30.3145C197.369 30.3145 197.899 30.4316 198.362 30.666C198.825 30.8945 199.215 31.2227 199.531 31.6504C199.848 32.0781 200.085 32.5908 200.243 33.1885C200.407 33.7803 200.489 34.4395 200.489 35.166ZM198.854 35.3506V35.166C198.854 34.6914 198.805 34.2461 198.705 33.8301C198.605 33.4082 198.45 33.0391 198.239 32.7227C198.034 32.4004 197.771 32.1484 197.448 31.9668C197.126 31.7793 196.742 31.6855 196.297 31.6855C195.887 31.6855 195.529 31.7559 195.225 31.8965C194.926 32.0371 194.671 32.2275 194.46 32.4678C194.249 32.7021 194.076 32.9717 193.941 33.2764C193.812 33.5752 193.716 33.8857 193.651 34.208V36.4844C193.769 36.8945 193.933 37.2812 194.144 37.6445C194.354 38.002 194.636 38.292 194.987 38.5146C195.339 38.7314 195.781 38.8398 196.314 38.8398C196.754 38.8398 197.132 38.749 197.448 38.5674C197.771 38.3799 198.034 38.125 198.239 37.8027C198.45 37.4805 198.605 37.1113 198.705 36.6953C198.805 36.2734 198.854 35.8252 198.854 35.3506ZM204.33 30.4902V40H202.695V30.4902H204.33ZM202.572 27.9678C202.572 27.7041 202.651 27.4814 202.81 27.2998C202.974 27.1182 203.214 27.0273 203.53 27.0273C203.841 27.0273 204.078 27.1182 204.242 27.2998C204.412 27.4814 204.497 27.7041 204.497 27.9678C204.497 28.2197 204.412 28.4365 204.242 28.6182C204.078 28.7939 203.841 28.8818 203.53 28.8818C203.214 28.8818 202.974 28.7939 202.81 28.6182C202.651 28.4365 202.572 28.2197 202.572 27.9678ZM208.566 32.5205V40H206.94V30.4902H208.479L208.566 32.5205ZM208.18 34.8848L207.503 34.8584C207.509 34.208 207.605 33.6074 207.793 33.0566C207.98 32.5 208.244 32.0166 208.584 31.6064C208.924 31.1963 209.328 30.8799 209.797 30.6572C210.271 30.4287 210.796 30.3145 211.37 30.3145C211.839 30.3145 212.261 30.3789 212.636 30.5078C213.011 30.6309 213.33 30.8301 213.594 31.1055C213.863 31.3809 214.068 31.7383 214.209 32.1777C214.35 32.6113 214.42 33.1416 214.42 33.7686V40H212.785V33.751C212.785 33.2529 212.712 32.8545 212.565 32.5557C212.419 32.251 212.205 32.0312 211.924 31.8965C211.643 31.7559 211.297 31.6855 210.887 31.6855C210.482 31.6855 210.113 31.7705 209.779 31.9404C209.451 32.1104 209.167 32.3447 208.927 32.6436C208.692 32.9424 208.508 33.2852 208.373 33.6719C208.244 34.0527 208.18 34.457 208.18 34.8848ZM223.051 30.4902H224.527V39.7979C224.527 40.6357 224.357 41.3506 224.018 41.9424C223.678 42.5342 223.203 42.9824 222.594 43.2871C221.99 43.5977 221.293 43.7529 220.502 43.7529C220.174 43.7529 219.787 43.7002 219.342 43.5947C218.902 43.4951 218.469 43.3223 218.041 43.0762C217.619 42.8359 217.265 42.5107 216.978 42.1006L217.83 41.1338C218.229 41.6143 218.645 41.9482 219.078 42.1357C219.518 42.3232 219.951 42.417 220.379 42.417C220.895 42.417 221.34 42.3203 221.715 42.127C222.09 41.9336 222.38 41.6465 222.585 41.2656C222.796 40.8906 222.901 40.4277 222.901 39.877V32.582L223.051 30.4902ZM216.503 35.3506V35.166C216.503 34.4395 216.588 33.7803 216.758 33.1885C216.934 32.5908 217.183 32.0781 217.505 31.6504C217.833 31.2227 218.229 30.8945 218.691 30.666C219.154 30.4316 219.676 30.3145 220.256 30.3145C220.854 30.3145 221.375 30.4199 221.82 30.6309C222.271 30.8359 222.652 31.1377 222.963 31.5361C223.279 31.9287 223.528 32.4033 223.71 32.96C223.892 33.5166 224.018 34.1465 224.088 34.8496V35.6582C224.023 36.3555 223.897 36.9824 223.71 37.5391C223.528 38.0957 223.279 38.5703 222.963 38.9629C222.652 39.3555 222.271 39.6572 221.82 39.8682C221.369 40.0732 220.842 40.1758 220.238 40.1758C219.67 40.1758 219.154 40.0557 218.691 39.8154C218.234 39.5752 217.842 39.2383 217.514 38.8047C217.186 38.3711 216.934 37.8613 216.758 37.2754C216.588 36.6836 216.503 36.042 216.503 35.3506ZM218.129 35.166V35.3506C218.129 35.8252 218.176 36.2705 218.27 36.6865C218.369 37.1025 218.519 37.4688 218.718 37.7852C218.923 38.1016 219.184 38.3506 219.5 38.5322C219.816 38.708 220.194 38.7959 220.634 38.7959C221.173 38.7959 221.618 38.6816 221.97 38.4531C222.321 38.2246 222.6 37.9229 222.805 37.5479C223.016 37.1729 223.18 36.7656 223.297 36.3262V34.208C223.232 33.8857 223.133 33.5752 222.998 33.2764C222.869 32.9717 222.699 32.7021 222.488 32.4678C222.283 32.2275 222.028 32.0371 221.724 31.8965C221.419 31.7559 221.062 31.6855 220.651 31.6855C220.206 31.6855 219.822 31.7793 219.5 31.9668C219.184 32.1484 218.923 32.4004 218.718 32.7227C218.519 33.0391 218.369 33.4082 218.27 33.8301C218.176 34.2461 218.129 34.6914 218.129 35.166Z" fill="white"/>
<path d="M135 15H241V11H135V15ZM249 23V44H253V23H249ZM241 52H135V56H241V52ZM127 44V23H123V44H127ZM135 52C130.582 52 127 48.4183 127 44H123C123 50.6274 128.373 56 135 56V52ZM249 44C249 48.4183 245.418 52 241 52V56C247.627 56 253 50.6274 253 44H249ZM241 15C245.418 15 249 18.5817 249 23H253C253 16.3726 247.627 11 241 11V15ZM135 11C128.373 11 123 16.3726 123 23H127C127 18.5817 130.582 15 135 15V11Z" fill="white"/>
<path d="M614.22 14.6563H566.451L562.37 8.75079C561.911 8.08793 561.045 7.67712 560.104 7.67712H554.917C553.485 7.67712 552.323 8.61453 552.323 9.77087C552.323 10.9272 553.485 11.8646 554.917 11.8646H558.581L562.609 17.6927L571.899 34.2842L571.908 34.3011L572.726 35.7625L563.4 43.793C562.729 44.3705 562.519 45.2038 562.857 45.9468C563.195 46.6898 564.023 47.2154 564.998 47.3053L573.499 48.0895C584.132 49.0705 594.869 49.0705 605.502 48.0895L614.003 47.3053C615.426 47.174 616.448 46.1362 616.286 44.9873C616.123 43.8384 614.837 43.0135 613.414 43.1448L604.913 43.9291C594.671 44.874 584.329 44.874 574.088 43.9291L570.714 43.6179L577.559 37.7237C577.626 37.6667 577.687 37.6075 577.744 37.5464L580.347 37.8198C583.996 38.203 587.683 38.2782 591.351 38.044C599.905 37.4979 607.833 34.2122 613.368 28.9191L615.367 27.0073C615.434 26.9431 615.496 26.8757 615.554 26.8055L619.28 22.222C621.92 18.9731 619.033 14.6563 614.22 14.6563Z" fill="#2C6187"/>
<path d="M570.479 51.6459C567.615 51.6459 565.292 53.5207 565.292 55.8334C565.292 58.1461 567.615 60.0209 570.479 60.0209C573.344 60.0209 575.667 58.1461 575.667 55.8334C575.667 53.5207 573.344 51.6459 570.479 51.6459Z" fill="#2C6187"/>
<path d="M603.334 55.8334C603.334 53.5207 605.656 51.6459 608.521 51.6459C611.386 51.6459 613.709 53.5207 613.709 55.8334C613.709 58.1461 611.386 60.0209 608.521 60.0209C605.656 60.0209 603.334 58.1461 603.334 55.8334Z" fill="#2C6187"/>
</svg>
