<svg width="631" height="67" viewBox="0 0 631 67" fill="none" xmlns="http://www.w3.org/2000/svg">
<path d="M311.545 38.6201V40H305.146V38.6201H311.545ZM305.48 27.2031V40H303.784V27.2031H305.48ZM312.811 35.3506V35.1484C312.811 34.4629 312.91 33.8271 313.109 33.2412C313.309 32.6494 313.596 32.1367 313.971 31.7031C314.346 31.2637 314.8 30.9238 315.333 30.6836C315.866 30.4375 316.464 30.3145 317.126 30.3145C317.794 30.3145 318.395 30.4375 318.928 30.6836C319.467 30.9238 319.924 31.2637 320.299 31.7031C320.68 32.1367 320.97 32.6494 321.169 33.2412C321.368 33.8271 321.468 34.4629 321.468 35.1484V35.3506C321.468 36.0361 321.368 36.6719 321.169 37.2578C320.97 37.8438 320.68 38.3564 320.299 38.7959C319.924 39.2295 319.47 39.5693 318.937 39.8154C318.409 40.0557 317.812 40.1758 317.144 40.1758C316.476 40.1758 315.875 40.0557 315.342 39.8154C314.809 39.5693 314.352 39.2295 313.971 38.7959C313.596 38.3564 313.309 37.8438 313.109 37.2578C312.91 36.6719 312.811 36.0361 312.811 35.3506ZM314.437 35.1484V35.3506C314.437 35.8252 314.492 36.2734 314.604 36.6953C314.715 37.1113 314.882 37.4805 315.104 37.8027C315.333 38.125 315.617 38.3799 315.957 38.5674C316.297 38.749 316.692 38.8398 317.144 38.8398C317.589 38.8398 317.979 38.749 318.312 38.5674C318.652 38.3799 318.934 38.125 319.156 37.8027C319.379 37.4805 319.546 37.1113 319.657 36.6953C319.774 36.2734 319.833 35.8252 319.833 35.3506V35.1484C319.833 34.6797 319.774 34.2373 319.657 33.8213C319.546 33.3994 319.376 33.0273 319.147 32.7051C318.925 32.377 318.644 32.1191 318.304 31.9316C317.97 31.7441 317.577 31.6504 317.126 31.6504C316.681 31.6504 316.288 31.7441 315.948 31.9316C315.614 32.1191 315.333 32.377 315.104 32.7051C314.882 33.0273 314.715 33.3994 314.604 33.8213C314.492 34.2373 314.437 34.6797 314.437 35.1484ZM329.668 30.4902H331.145V39.7979C331.145 40.6357 330.975 41.3506 330.635 41.9424C330.295 42.5342 329.82 42.9824 329.211 43.2871C328.607 43.5977 327.91 43.7529 327.119 43.7529C326.791 43.7529 326.404 43.7002 325.959 43.5947C325.52 43.4951 325.086 43.3223 324.658 43.0762C324.236 42.8359 323.882 42.5107 323.595 42.1006L324.447 41.1338C324.846 41.6143 325.262 41.9482 325.695 42.1357C326.135 42.3232 326.568 42.417 326.996 42.417C327.512 42.417 327.957 42.3203 328.332 42.127C328.707 41.9336 328.997 41.6465 329.202 41.2656C329.413 40.8906 329.519 40.4277 329.519 39.877V32.582L329.668 30.4902ZM323.12 35.3506V35.166C323.12 34.4395 323.205 33.7803 323.375 33.1885C323.551 32.5908 323.8 32.0781 324.122 31.6504C324.45 31.2227 324.846 30.8945 325.309 30.666C325.771 30.4316 326.293 30.3145 326.873 30.3145C327.471 30.3145 327.992 30.4199 328.438 30.6309C328.889 30.8359 329.27 31.1377 329.58 31.5361C329.896 31.9287 330.146 32.4033 330.327 32.96C330.509 33.5166 330.635 34.1465 330.705 34.8496V35.6582C330.641 36.3555 330.515 36.9824 330.327 37.5391C330.146 38.0957 329.896 38.5703 329.58 38.9629C329.27 39.3555 328.889 39.6572 328.438 39.8682C327.986 40.0732 327.459 40.1758 326.855 40.1758C326.287 40.1758 325.771 40.0557 325.309 39.8154C324.852 39.5752 324.459 39.2383 324.131 38.8047C323.803 38.3711 323.551 37.8613 323.375 37.2754C323.205 36.6836 323.12 36.042 323.12 35.3506ZM324.746 35.166V35.3506C324.746 35.8252 324.793 36.2705 324.887 36.6865C324.986 37.1025 325.136 37.4688 325.335 37.7852C325.54 38.1016 325.801 38.3506 326.117 38.5322C326.434 38.708 326.812 38.7959 327.251 38.7959C327.79 38.7959 328.235 38.6816 328.587 38.4531C328.938 38.2246 329.217 37.9229 329.422 37.5479C329.633 37.1729 329.797 36.7656 329.914 36.3262V34.208C329.85 33.8857 329.75 33.5752 329.615 33.2764C329.486 32.9717 329.316 32.7021 329.105 32.4678C328.9 32.2275 328.646 32.0371 328.341 31.8965C328.036 31.7559 327.679 31.6855 327.269 31.6855C326.823 31.6855 326.439 31.7793 326.117 31.9668C325.801 32.1484 325.54 32.4004 325.335 32.7227C325.136 33.0391 324.986 33.4082 324.887 33.8301C324.793 34.2461 324.746 34.6914 324.746 35.166ZM335.381 30.4902V40H333.746V30.4902H335.381ZM333.623 27.9678C333.623 27.7041 333.702 27.4814 333.86 27.2998C334.024 27.1182 334.265 27.0273 334.581 27.0273C334.892 27.0273 335.129 27.1182 335.293 27.2998C335.463 27.4814 335.548 27.7041 335.548 27.9678C335.548 28.2197 335.463 28.4365 335.293 28.6182C335.129 28.7939 334.892 28.8818 334.581 28.8818C334.265 28.8818 334.024 28.7939 333.86 28.6182C333.702 28.4365 333.623 28.2197 333.623 27.9678ZM339.617 32.5205V40H337.991V30.4902H339.529L339.617 32.5205ZM339.23 34.8848L338.554 34.8584C338.56 34.208 338.656 33.6074 338.844 33.0566C339.031 32.5 339.295 32.0166 339.635 31.6064C339.975 31.1963 340.379 30.8799 340.848 30.6572C341.322 30.4287 341.847 30.3145 342.421 30.3145C342.89 30.3145 343.312 30.3789 343.687 30.5078C344.062 30.6309 344.381 30.8301 344.645 31.1055C344.914 31.3809 345.119 31.7383 345.26 32.1777C345.4 32.6113 345.471 33.1416 345.471 33.7686V40H343.836V33.751C343.836 33.2529 343.763 32.8545 343.616 32.5557C343.47 32.251 343.256 32.0312 342.975 31.8965C342.693 31.7559 342.348 31.6855 341.938 31.6855C341.533 31.6855 341.164 31.7705 340.83 31.9404C340.502 32.1104 340.218 32.3447 339.978 32.6436C339.743 32.9424 339.559 33.2852 339.424 33.6719C339.295 34.0527 339.23 34.457 339.23 34.8848Z" fill="white"/>
<path d="M287 15H362V11H287V15ZM370 23V44H374V23H370ZM362 52H287V56H362V52ZM279 44V23H275V44H279ZM287 52C282.582 52 279 48.4183 279 44H275C275 50.6274 280.373 56 287 56V52ZM370 44C370 48.4183 366.418 52 362 52V56C368.627 56 374 50.6274 374 44H370ZM362 15C366.418 15 370 18.5817 370 23H374C374 16.3726 368.627 11 362 11V15ZM287 11C280.373 11 275 16.3726 275 23H279C279 18.5817 282.582 15 287 15V11Z" fill="white"/>
<path d="M429.537 28.3369L425.301 40H423.569L428.447 27.2031H429.563L429.537 28.3369ZM433.088 40L428.843 28.3369L428.816 27.2031H429.933L434.828 40H433.088ZM432.868 35.2627V36.6514H425.679V35.2627H432.868ZM436.287 26.5H437.922V38.1543L437.781 40H436.287V26.5ZM444.347 35.166V35.3506C444.347 36.042 444.265 36.6836 444.101 37.2754C443.937 37.8613 443.696 38.3711 443.38 38.8047C443.063 39.2383 442.677 39.5752 442.22 39.8154C441.763 40.0557 441.238 40.1758 440.646 40.1758C440.043 40.1758 439.513 40.0732 439.056 39.8682C438.604 39.6572 438.224 39.3555 437.913 38.9629C437.603 38.5703 437.354 38.0957 437.166 37.5391C436.984 36.9824 436.858 36.3555 436.788 35.6582V34.8496C436.858 34.1465 436.984 33.5166 437.166 32.96C437.354 32.4033 437.603 31.9287 437.913 31.5361C438.224 31.1377 438.604 30.8359 439.056 30.6309C439.507 30.4199 440.031 30.3145 440.629 30.3145C441.227 30.3145 441.757 30.4316 442.22 30.666C442.683 30.8945 443.069 31.2227 443.38 31.6504C443.696 32.0781 443.937 32.5908 444.101 33.1885C444.265 33.7803 444.347 34.4395 444.347 35.166ZM442.712 35.3506V35.166C442.712 34.6914 442.668 34.2461 442.58 33.8301C442.492 33.4082 442.352 33.0391 442.158 32.7227C441.965 32.4004 441.71 32.1484 441.394 31.9668C441.077 31.7793 440.688 31.6855 440.225 31.6855C439.814 31.6855 439.457 31.7559 439.152 31.8965C438.854 32.0371 438.599 32.2275 438.388 32.4678C438.177 32.7021 438.004 32.9717 437.869 33.2764C437.74 33.5752 437.644 33.8857 437.579 34.208V36.3262C437.673 36.7363 437.825 37.1318 438.036 37.5127C438.253 37.8877 438.54 38.1953 438.897 38.4355C439.261 38.6758 439.709 38.7959 440.242 38.7959C440.682 38.7959 441.057 38.708 441.367 38.5322C441.684 38.3506 441.938 38.1016 442.132 37.7852C442.331 37.4688 442.478 37.1025 442.571 36.6865C442.665 36.2705 442.712 35.8252 442.712 35.3506ZM445.973 35.3506V35.1484C445.973 34.4629 446.072 33.8271 446.271 33.2412C446.471 32.6494 446.758 32.1367 447.133 31.7031C447.508 31.2637 447.962 30.9238 448.495 30.6836C449.028 30.4375 449.626 30.3145 450.288 30.3145C450.956 30.3145 451.557 30.4375 452.09 30.6836C452.629 30.9238 453.086 31.2637 453.461 31.7031C453.842 32.1367 454.132 32.6494 454.331 33.2412C454.53 33.8271 454.63 34.4629 454.63 35.1484V35.3506C454.63 36.0361 454.53 36.6719 454.331 37.2578C454.132 37.8438 453.842 38.3564 453.461 38.7959C453.086 39.2295 452.632 39.5693 452.099 39.8154C451.571 40.0557 450.974 40.1758 450.306 40.1758C449.638 40.1758 449.037 40.0557 448.504 39.8154C447.971 39.5693 447.514 39.2295 447.133 38.7959C446.758 38.3564 446.471 37.8438 446.271 37.2578C446.072 36.6719 445.973 36.0361 445.973 35.3506ZM447.599 35.1484V35.3506C447.599 35.8252 447.654 36.2734 447.766 36.6953C447.877 37.1113 448.044 37.4805 448.267 37.8027C448.495 38.125 448.779 38.3799 449.119 38.5674C449.459 38.749 449.854 38.8398 450.306 38.8398C450.751 38.8398 451.141 38.749 451.475 38.5674C451.814 38.3799 452.096 38.125 452.318 37.8027C452.541 37.4805 452.708 37.1113 452.819 36.6953C452.937 36.2734 452.995 35.8252 452.995 35.3506V35.1484C452.995 34.6797 452.937 34.2373 452.819 33.8213C452.708 33.3994 452.538 33.0273 452.31 32.7051C452.087 32.377 451.806 32.1191 451.466 31.9316C451.132 31.7441 450.739 31.6504 450.288 31.6504C449.843 31.6504 449.45 31.7441 449.11 31.9316C448.776 32.1191 448.495 32.377 448.267 32.7051C448.044 33.0273 447.877 33.3994 447.766 33.8213C447.654 34.2373 447.599 34.6797 447.599 35.1484ZM462.487 37.8027V30.4902H464.122V40H462.566L462.487 37.8027ZM462.795 35.7988L463.472 35.7812C463.472 36.4141 463.404 37 463.27 37.5391C463.141 38.0723 462.93 38.5352 462.637 38.9277C462.344 39.3203 461.96 39.6279 461.485 39.8506C461.011 40.0674 460.434 40.1758 459.754 40.1758C459.291 40.1758 458.866 40.1084 458.479 39.9736C458.099 39.8389 457.771 39.6309 457.495 39.3496C457.22 39.0684 457.006 38.7021 456.854 38.251C456.707 37.7998 456.634 37.2578 456.634 36.625V30.4902H458.26V36.6426C458.26 37.0703 458.307 37.4248 458.4 37.7061C458.5 37.9814 458.632 38.2012 458.796 38.3652C458.966 38.5234 459.153 38.6348 459.358 38.6992C459.569 38.7637 459.786 38.7959 460.009 38.7959C460.7 38.7959 461.248 38.6641 461.652 38.4004C462.057 38.1309 462.347 37.7705 462.522 37.3193C462.704 36.8623 462.795 36.3555 462.795 35.7988ZM470.582 30.4902V31.7383H465.44V30.4902H470.582ZM467.181 28.1787H468.807V37.6445C468.807 37.9668 468.856 38.21 468.956 38.374C469.056 38.5381 469.185 38.6465 469.343 38.6992C469.501 38.752 469.671 38.7783 469.853 38.7783C469.987 38.7783 470.128 38.7666 470.274 38.7432C470.427 38.7139 470.541 38.6904 470.617 38.6729L470.626 40C470.497 40.041 470.327 40.0791 470.116 40.1143C469.911 40.1553 469.662 40.1758 469.369 40.1758C468.971 40.1758 468.604 40.0967 468.271 39.9385C467.937 39.7803 467.67 39.5166 467.471 39.1475C467.277 38.7725 467.181 38.2686 467.181 37.6357V28.1787ZM484.521 27.2031H486.209V35.8604C486.209 36.8213 485.995 37.6211 485.567 38.2598C485.14 38.8984 484.571 39.3789 483.862 39.7012C483.159 40.0176 482.395 40.1758 481.568 40.1758C480.701 40.1758 479.916 40.0176 479.213 39.7012C478.516 39.3789 477.962 38.8984 477.552 38.2598C477.147 37.6211 476.945 36.8213 476.945 35.8604V27.2031H478.624V35.8604C478.624 36.5283 478.747 37.0791 478.993 37.5127C479.239 37.9463 479.582 38.2686 480.021 38.4795C480.467 38.6904 480.982 38.7959 481.568 38.7959C482.16 38.7959 482.676 38.6904 483.115 38.4795C483.561 38.2686 483.906 37.9463 484.152 37.5127C484.398 37.0791 484.521 36.5283 484.521 35.8604V27.2031ZM494.163 37.4775C494.163 37.2432 494.11 37.0264 494.005 36.8271C493.905 36.6221 493.697 36.4375 493.381 36.2734C493.07 36.1035 492.602 35.957 491.975 35.834C491.447 35.7227 490.97 35.5908 490.542 35.4385C490.12 35.2861 489.76 35.1016 489.461 34.8848C489.168 34.668 488.942 34.4131 488.784 34.1201C488.626 33.8271 488.547 33.4844 488.547 33.0918C488.547 32.7168 488.629 32.3623 488.793 32.0283C488.963 31.6943 489.2 31.3984 489.505 31.1406C489.815 30.8828 490.188 30.6807 490.621 30.5342C491.055 30.3877 491.538 30.3145 492.071 30.3145C492.833 30.3145 493.483 30.4492 494.022 30.7188C494.562 30.9883 494.975 31.3486 495.262 31.7998C495.549 32.2451 495.692 32.7402 495.692 33.2852H494.066C494.066 33.0215 493.987 32.7666 493.829 32.5205C493.677 32.2686 493.451 32.0605 493.152 31.8965C492.859 31.7324 492.499 31.6504 492.071 31.6504C491.62 31.6504 491.254 31.7207 490.973 31.8613C490.697 31.9961 490.495 32.1689 490.366 32.3799C490.243 32.5908 490.182 32.8135 490.182 33.0479C490.182 33.2236 490.211 33.3818 490.27 33.5225C490.334 33.6572 490.445 33.7832 490.604 33.9004C490.762 34.0117 490.984 34.1172 491.271 34.2168C491.559 34.3164 491.925 34.416 492.37 34.5156C493.149 34.6914 493.791 34.9023 494.295 35.1484C494.799 35.3945 495.174 35.6963 495.42 36.0537C495.666 36.4111 495.789 36.8447 495.789 37.3545C495.789 37.7705 495.701 38.1514 495.525 38.4971C495.355 38.8428 495.106 39.1416 494.778 39.3936C494.456 39.6396 494.069 39.833 493.618 39.9736C493.173 40.1084 492.672 40.1758 492.115 40.1758C491.277 40.1758 490.568 40.0264 489.988 39.7275C489.408 39.4287 488.969 39.042 488.67 38.5674C488.371 38.0928 488.222 37.5918 488.222 37.0645H489.856C489.88 37.5098 490.009 37.8643 490.243 38.1279C490.478 38.3857 490.765 38.5703 491.104 38.6816C491.444 38.7871 491.781 38.8398 492.115 38.8398C492.561 38.8398 492.933 38.7812 493.231 38.6641C493.536 38.5469 493.768 38.3857 493.926 38.1807C494.084 37.9756 494.163 37.7412 494.163 37.4775Z" fill="white"/>
<path d="M408 15H512V11H408V15ZM520 23V44H524V23H520ZM512 52H408V56H512V52ZM400 44V23H396V44H400ZM408 52C403.582 52 400 48.4183 400 44H396C396 50.6274 401.373 56 408 56V52ZM520 44C520 48.4183 516.418 52 512 52V56C518.627 56 524 50.6274 524 44H520ZM512 15C516.418 15 520 18.5817 520 23H524C524 16.3726 518.627 11 512 11V15ZM408 11C401.373 11 396 16.3726 396 23H400C400 18.5817 403.582 15 408 15V11Z" fill="white"/>
<path d="M614.22 14.6563H566.451L562.37 8.75079C561.911 8.08793 561.045 7.67712 560.104 7.67712H554.917C553.485 7.67712 552.323 8.61453 552.323 9.77087C552.323 10.9272 553.485 11.8646 554.917 11.8646H558.581L562.609 17.6927L571.899 34.2842L571.908 34.3011L572.726 35.7625L563.4 43.793C562.729 44.3705 562.519 45.2038 562.857 45.9468C563.195 46.6898 564.023 47.2154 564.998 47.3053L573.499 48.0895C584.132 49.0705 594.869 49.0705 605.502 48.0895L614.003 47.3053C615.426 47.174 616.448 46.1362 616.286 44.9873C616.123 43.8384 614.837 43.0135 613.414 43.1448L604.913 43.9291C594.671 44.874 584.329 44.874 574.088 43.9291L570.714 43.6179L577.559 37.7237C577.626 37.6667 577.687 37.6075 577.744 37.5464L580.347 37.8198C583.996 38.203 587.683 38.2782 591.351 38.044C599.905 37.4979 607.833 34.2122 613.368 28.9191L615.367 27.0073C615.434 26.9431 615.496 26.8757 615.554 26.8055L619.28 22.222C621.92 18.9731 619.033 14.6563 614.22 14.6563Z" fill="#2C6187"/>
<path d="M570.479 51.6459C567.615 51.6459 565.292 53.5207 565.292 55.8334C565.292 58.1461 567.615 60.0209 570.479 60.0209C573.344 60.0209 575.667 58.1461 575.667 55.8334C575.667 53.5207 573.344 51.6459 570.479 51.6459Z" fill="#2C6187"/>
<path d="M603.334 55.8334C603.334 53.5207 605.656 51.6459 608.521 51.6459C611.386 51.6459 613.709 53.5207 613.709 55.8334C613.709 58.1461 611.386 60.0209 608.521 60.0209C605.656 60.0209 603.334 58.1461 603.334 55.8334Z" fill="#2C6187"/>
</svg>
