<svg width="259" height="53" viewBox="0 0 259 53" fill="none" xmlns="http://www.w3.org/2000/svg">
<path d="M0.890625 51.5391V0H7.88672L34.957 40.4648V0H41.4961V51.5391H34.5L7.42969 11.0391V51.5391H0.890625Z" fill="white"/>
<path d="M76.6523 51.5391V46.0547C73.7461 50.2734 69.7969 52.3828 64.8047 52.3828C62.6016 52.3828 60.5391 51.9609 58.6172 51.1172C56.7188 50.2734 55.3008 49.2188 54.3633 47.9531C53.4492 46.6641 52.8047 45.0938 52.4297 43.2422C52.1719 42 52.043 40.0312 52.043 37.3359V14.2031H58.3711V34.9102C58.3711 38.2148 58.5 40.4414 58.7578 41.5898C59.1562 43.2539 60 44.5664 61.2891 45.5273C62.5781 46.4648 64.1719 46.9336 66.0703 46.9336C67.9688 46.9336 69.75 46.4531 71.4141 45.4922C73.0781 44.5078 74.25 43.1836 74.9297 41.5195C75.6328 39.832 75.9844 37.3945 75.9844 34.207V14.2031H82.3125V51.5391H76.6523Z" fill="white"/>
<path d="M106.078 45.8789L106.992 51.4688C105.211 51.8438 103.617 52.0312 102.211 52.0312C99.9141 52.0312 98.1328 51.668 96.8672 50.9414C95.6016 50.2148 94.7109 49.2656 94.1953 48.0938C93.6797 46.8984 93.4219 44.4023 93.4219 40.6055V19.125H88.7812V14.2031H93.4219V4.95703L99.7148 1.16016V14.2031H106.078V19.125H99.7148V40.957C99.7148 42.7617 99.8203 43.9219 100.031 44.4375C100.266 44.9531 100.629 45.3633 101.121 45.668C101.637 45.9727 102.363 46.125 103.301 46.125C104.004 46.125 104.93 46.043 106.078 45.8789Z" fill="white"/>
<path d="M112.23 51.5391V14.2031H117.926V19.8633C119.379 17.2148 120.715 15.4688 121.934 14.625C123.176 13.7812 124.535 13.3594 126.012 13.3594C128.145 13.3594 130.312 14.0391 132.516 15.3984L130.336 21.2695C128.789 20.3555 127.242 19.8984 125.695 19.8984C124.312 19.8984 123.07 20.3203 121.969 21.1641C120.867 21.9844 120.082 23.1328 119.613 24.6094C118.91 26.8594 118.559 29.3203 118.559 31.9922V51.5391H112.23Z" fill="white"/>
<path d="M136.312 7.27734V0H142.641V7.27734H136.312ZM136.312 51.5391V14.2031H142.641V51.5391H136.312Z" fill="white"/>
<path d="M166.125 45.8789L167.039 51.4688C165.258 51.8438 163.664 52.0312 162.258 52.0312C159.961 52.0312 158.18 51.668 156.914 50.9414C155.648 50.2148 154.758 49.2656 154.242 48.0938C153.727 46.8984 153.469 44.4023 153.469 40.6055V19.125H148.828V14.2031H153.469V4.95703L159.762 1.16016V14.2031H166.125V19.125H159.762V40.957C159.762 42.7617 159.867 43.9219 160.078 44.4375C160.312 44.9531 160.676 45.3633 161.168 45.668C161.684 45.9727 162.41 46.125 163.348 46.125C164.051 46.125 164.977 46.043 166.125 45.8789Z" fill="white"/>
<path d="M172.383 7.27734V0H178.711V7.27734H172.383ZM172.383 51.5391V14.2031H178.711V51.5391H172.383Z" fill="white"/>
<path d="M186.023 32.8711C186.023 25.957 187.945 20.8359 191.789 17.5078C195 14.7422 198.914 13.3594 203.531 13.3594C208.664 13.3594 212.859 15.0469 216.117 18.4219C219.375 21.7734 221.004 26.4141 221.004 32.3438C221.004 37.1484 220.277 40.9336 218.824 43.6992C217.395 46.4414 215.297 48.5742 212.531 50.0977C209.789 51.6211 206.789 52.3828 203.531 52.3828C198.305 52.3828 194.074 50.707 190.84 47.3555C187.629 44.0039 186.023 39.1758 186.023 32.8711ZM192.527 32.8711C192.527 37.6523 193.57 41.2383 195.656 43.6289C197.742 45.9961 200.367 47.1797 203.531 47.1797C206.672 47.1797 209.285 45.9844 211.371 43.5938C213.457 41.2031 214.5 37.5586 214.5 32.6602C214.5 28.043 213.445 24.5508 211.336 22.1836C209.25 19.793 206.648 18.5977 203.531 18.5977C200.367 18.5977 197.742 19.7812 195.656 22.1484C193.57 24.5156 192.527 28.0898 192.527 32.8711Z" fill="white"/>
<path d="M228.457 51.5391V14.2031H234.152V19.5117C236.895 15.4102 240.855 13.3594 246.035 13.3594C248.285 13.3594 250.348 13.7695 252.223 14.5898C254.121 15.3867 255.539 16.4414 256.477 17.7539C257.414 19.0664 258.07 20.625 258.445 22.4297C258.68 23.6016 258.797 25.6523 258.797 28.582V51.5391H252.469V28.8281C252.469 26.25 252.223 24.3281 251.73 23.0625C251.238 21.7734 250.359 20.7539 249.094 20.0039C247.852 19.2305 246.387 18.8438 244.699 18.8438C242.004 18.8438 239.672 19.6992 237.703 21.4102C235.758 23.1211 234.785 26.3672 234.785 31.1484V51.5391H228.457Z" fill="white"/>
</svg>
