<svg width="550" height="48" viewBox="0 0 550 48" fill="none" xmlns="http://www.w3.org/2000/svg">
<rect width="550" height="48" rx="24" fill="#EDEDF0"/>
<path d="M533 18.41L531.59 17L526 22.59L520.41 17L519 18.41L524.59 24L519 29.59L520.41 31L526 25.41L531.59 31L533 29.59L527.41 24L533 18.41Z" fill="#2979FF"/>
<path d="M21.5 15C23.2239 15 24.8772 15.6848 26.0962 16.9038C27.3152 18.1228 28 19.7761 28 21.5C28 23.11 27.41 24.59 26.44 25.73L26.71 26H27.5L32.5 31L31 32.5L26 27.5V26.71L25.73 26.44C24.59 27.41 23.11 28 21.5 28C19.7761 28 18.1228 27.3152 16.9038 26.0962C15.6848 24.8772 15 23.2239 15 21.5C15 19.7761 15.6848 18.1228 16.9038 16.9038C18.1228 15.6848 19.7761 15 21.5 15ZM21.5 17C19 17 17 19 17 21.5C17 24 19 26 21.5 26C24 26 26 24 26 21.5C26 19 24 17 21.5 17Z" fill="#787885"/>
</svg>
