<svg width="83" height="67" viewBox="0 0 83 67" fill="none" xmlns="http://www.w3.org/2000/svg">
<path d="M66.2196 14.6563H18.451L14.3696 8.75079C13.9115 8.08793 13.0448 7.67712 12.1045 7.67712H6.91699C5.4845 7.67712 4.32324 8.61453 4.32324 9.77087C4.32324 10.9272 5.4845 11.8646 6.91699 11.8646H10.5814L14.6093 17.6927L23.8987 34.2842L23.9082 34.3011L24.7264 35.7625L15.3998 43.793C14.7292 44.3705 14.5193 45.2038 14.8573 45.9468C15.1953 46.6898 16.0234 47.2154 16.9975 47.3053L25.4986 48.0895C36.1318 49.0705 46.8689 49.0705 57.5022 48.0895L66.0032 47.3053C67.4265 47.174 68.4483 46.1362 68.2857 44.9873C68.123 43.8384 66.8374 43.0135 65.4142 43.1448L56.9132 43.9291C46.6713 44.874 36.3295 44.874 26.0876 43.9291L22.7139 43.6179L29.5593 37.7237C29.6255 37.6667 29.687 37.6075 29.7438 37.5464L32.3473 37.8198C35.9956 38.203 39.6834 38.2782 43.351 38.044C51.905 37.4979 59.833 34.2122 65.3679 28.9191L67.3671 27.0073C67.4342 26.9431 67.4965 26.8757 67.5536 26.8055L71.2795 22.222C73.9205 18.9731 71.0334 14.6563 66.2196 14.6563Z" fill="#2C6187"/>
<path d="M22.4795 51.6459C19.6145 51.6459 17.292 53.5207 17.292 55.8334C17.292 58.1461 19.6145 60.0209 22.4795 60.0209C25.3445 60.0209 27.667 58.1461 27.667 55.8334C27.667 53.5207 25.3445 51.6459 22.4795 51.6459Z" fill="#2C6187"/>
<path d="M55.3337 55.8334C55.3337 53.5207 57.6562 51.6459 60.5212 51.6459C63.3861 51.6459 65.7087 53.5207 65.7087 55.8334C65.7087 58.1461 63.3861 60.0209 60.5212 60.0209C57.6562 60.0209 55.3337 58.1461 55.3337 55.8334Z" fill="#2C6187"/>
</svg>
