<svg width="126" height="41" viewBox="0 0 126 41" fill="none" xmlns="http://www.w3.org/2000/svg">
<rect width="126" height="41" fill="#232025"/>
<path d="M33.5479 23.7656C33.5479 23.4668 33.501 23.2031 33.4072 22.9746C33.3193 22.7402 33.1611 22.5293 32.9326 22.3418C32.71 22.1543 32.3994 21.9756 32.001 21.8057C31.6084 21.6357 31.1104 21.4629 30.5068 21.2871C29.874 21.0996 29.3027 20.8916 28.793 20.6631C28.2832 20.4287 27.8467 20.1621 27.4834 19.8633C27.1201 19.5645 26.8418 19.2217 26.6484 18.835C26.4551 18.4482 26.3584 18.0059 26.3584 17.5078C26.3584 17.0098 26.4609 16.5498 26.666 16.1279C26.8711 15.7061 27.1641 15.3398 27.5449 15.0293C27.9316 14.7129 28.3916 14.4668 28.9248 14.291C29.458 14.1152 30.0527 14.0273 30.709 14.0273C31.6699 14.0273 32.4844 14.2119 33.1523 14.5811C33.8262 14.9443 34.3389 15.4219 34.6904 16.0137C35.042 16.5996 35.2178 17.2266 35.2178 17.8945H33.5303C33.5303 17.4141 33.4277 16.9893 33.2227 16.6201C33.0176 16.2451 32.707 15.9521 32.291 15.7412C31.875 15.5244 31.3477 15.416 30.709 15.416C30.1055 15.416 29.6074 15.5068 29.2148 15.6885C28.8223 15.8701 28.5293 16.1162 28.3359 16.4268C28.1484 16.7373 28.0547 17.0918 28.0547 17.4902C28.0547 17.7598 28.1104 18.0059 28.2217 18.2285C28.3389 18.4453 28.5176 18.6475 28.7578 18.835C29.0039 19.0225 29.3145 19.1953 29.6895 19.3535C30.0703 19.5117 30.5244 19.6641 31.0518 19.8105C31.7783 20.0156 32.4053 20.2441 32.9326 20.4961C33.46 20.748 33.8936 21.0322 34.2334 21.3486C34.5791 21.6592 34.834 22.0137 34.998 22.4121C35.168 22.8047 35.2529 23.25 35.2529 23.748C35.2529 24.2695 35.1475 24.7412 34.9365 25.1631C34.7256 25.585 34.4238 25.9453 34.0312 26.2441C33.6387 26.543 33.167 26.7744 32.6162 26.9385C32.0713 27.0967 31.4619 27.1758 30.7881 27.1758C30.1963 27.1758 29.6133 27.0938 29.0391 26.9297C28.4707 26.7656 27.9521 26.5195 27.4834 26.1914C27.0205 25.8633 26.6484 25.459 26.3672 24.9785C26.0918 24.4922 25.9541 23.9297 25.9541 23.291H27.6416C27.6416 23.7305 27.7266 24.1084 27.8965 24.4248C28.0664 24.7354 28.2979 24.9932 28.5908 25.1982C28.8896 25.4033 29.2266 25.5557 29.6016 25.6553C29.9824 25.749 30.3779 25.7959 30.7881 25.7959C31.3799 25.7959 31.8809 25.7139 32.291 25.5498C32.7012 25.3857 33.0117 25.1514 33.2227 24.8467C33.4395 24.542 33.5479 24.1816 33.5479 23.7656ZM38.7949 13.5V27H37.1689V13.5H38.7949ZM38.4082 21.8848L37.7314 21.8584C37.7373 21.208 37.834 20.6074 38.0215 20.0566C38.209 19.5 38.4727 19.0166 38.8125 18.6064C39.1523 18.1963 39.5566 17.8799 40.0254 17.6572C40.5 17.4287 41.0244 17.3145 41.5986 17.3145C42.0674 17.3145 42.4893 17.3789 42.8643 17.5078C43.2393 17.6309 43.5586 17.8301 43.8223 18.1055C44.0918 18.3809 44.2969 18.7383 44.4375 19.1777C44.5781 19.6113 44.6484 20.1416 44.6484 20.7686V27H43.0137V20.751C43.0137 20.2529 42.9404 19.8545 42.7939 19.5557C42.6475 19.251 42.4336 19.0312 42.1523 18.8965C41.8711 18.7559 41.5254 18.6855 41.1152 18.6855C40.7109 18.6855 40.3418 18.7705 40.0078 18.9404C39.6797 19.1104 39.3955 19.3447 39.1553 19.6436C38.9209 19.9424 38.7363 20.2852 38.6016 20.6719C38.4727 21.0527 38.4082 21.457 38.4082 21.8848ZM46.6523 22.3506V22.1484C46.6523 21.4629 46.752 20.8271 46.9512 20.2412C47.1504 19.6494 47.4375 19.1367 47.8125 18.7031C48.1875 18.2637 48.6416 17.9238 49.1748 17.6836C49.708 17.4375 50.3057 17.3145 50.9678 17.3145C51.6357 17.3145 52.2363 17.4375 52.7695 17.6836C53.3086 17.9238 53.7656 18.2637 54.1406 18.7031C54.5215 19.1367 54.8115 19.6494 55.0107 20.2412C55.21 20.8271 55.3096 21.4629 55.3096 22.1484V22.3506C55.3096 23.0361 55.21 23.6719 55.0107 24.2578C54.8115 24.8438 54.5215 25.3564 54.1406 25.7959C53.7656 26.2295 53.3115 26.5693 52.7783 26.8154C52.251 27.0557 51.6533 27.1758 50.9854 27.1758C50.3174 27.1758 49.7168 27.0557 49.1836 26.8154C48.6504 26.5693 48.1934 26.2295 47.8125 25.7959C47.4375 25.3564 47.1504 24.8438 46.9512 24.2578C46.752 23.6719 46.6523 23.0361 46.6523 22.3506ZM48.2783 22.1484V22.3506C48.2783 22.8252 48.334 23.2734 48.4453 23.6953C48.5566 24.1113 48.7236 24.4805 48.9463 24.8027C49.1748 25.125 49.459 25.3799 49.7988 25.5674C50.1387 25.749 50.5342 25.8398 50.9854 25.8398C51.4307 25.8398 51.8203 25.749 52.1543 25.5674C52.4941 25.3799 52.7754 25.125 52.998 24.8027C53.2207 24.4805 53.3877 24.1113 53.499 23.6953C53.6162 23.2734 53.6748 22.8252 53.6748 22.3506V22.1484C53.6748 21.6797 53.6162 21.2373 53.499 20.8213C53.3877 20.3994 53.2178 20.0273 52.9893 19.7051C52.7666 19.377 52.4854 19.1191 52.1455 18.9316C51.8115 18.7441 51.4189 18.6504 50.9678 18.6504C50.5225 18.6504 50.1299 18.7441 49.79 18.9316C49.4561 19.1191 49.1748 19.377 48.9463 19.7051C48.7236 20.0273 48.5566 20.3994 48.4453 20.8213C48.334 21.2373 48.2783 21.6797 48.2783 22.1484ZM58.9746 19.3184V30.6562H57.3398V17.4902H58.834L58.9746 19.3184ZM65.3818 22.166V22.3506C65.3818 23.042 65.2998 23.6836 65.1357 24.2754C64.9717 24.8613 64.7314 25.3711 64.415 25.8047C64.1045 26.2383 63.7207 26.5752 63.2637 26.8154C62.8066 27.0557 62.2822 27.1758 61.6904 27.1758C61.0869 27.1758 60.5537 27.0762 60.0908 26.877C59.6279 26.6777 59.2354 26.3877 58.9131 26.0068C58.5908 25.626 58.333 25.1689 58.1396 24.6357C57.9521 24.1025 57.8232 23.502 57.7529 22.834V21.8496C57.8232 21.1465 57.9551 20.5166 58.1484 19.96C58.3418 19.4033 58.5967 18.9287 58.9131 18.5361C59.2354 18.1377 59.625 17.8359 60.082 17.6309C60.5391 17.4199 61.0664 17.3145 61.6641 17.3145C62.2617 17.3145 62.792 17.4316 63.2549 17.666C63.7178 17.8945 64.1074 18.2227 64.4238 18.6504C64.7402 19.0781 64.9775 19.5908 65.1357 20.1885C65.2998 20.7803 65.3818 21.4395 65.3818 22.166ZM63.7471 22.3506V22.166C63.7471 21.6914 63.6973 21.2461 63.5977 20.8301C63.498 20.4082 63.3428 20.0391 63.1318 19.7227C62.9268 19.4004 62.6631 19.1484 62.3408 18.9668C62.0186 18.7793 61.6348 18.6855 61.1895 18.6855C60.7793 18.6855 60.4219 18.7559 60.1172 18.8965C59.8184 19.0371 59.5635 19.2275 59.3525 19.4678C59.1416 19.7021 58.9688 19.9717 58.834 20.2764C58.7051 20.5752 58.6084 20.8857 58.5439 21.208V23.4844C58.6611 23.8945 58.8252 24.2812 59.0361 24.6445C59.2471 25.002 59.5283 25.292 59.8799 25.5146C60.2314 25.7314 60.6738 25.8398 61.207 25.8398C61.6465 25.8398 62.0244 25.749 62.3408 25.5674C62.6631 25.3799 62.9268 25.125 63.1318 24.8027C63.3428 24.4805 63.498 24.1113 63.5977 23.6953C63.6973 23.2734 63.7471 22.8252 63.7471 22.3506ZM69.082 19.3184V30.6562H67.4473V17.4902H68.9414L69.082 19.3184ZM75.4893 22.166V22.3506C75.4893 23.042 75.4072 23.6836 75.2432 24.2754C75.0791 24.8613 74.8389 25.3711 74.5225 25.8047C74.2119 26.2383 73.8281 26.5752 73.3711 26.8154C72.9141 27.0557 72.3896 27.1758 71.7979 27.1758C71.1943 27.1758 70.6611 27.0762 70.1982 26.877C69.7354 26.6777 69.3428 26.3877 69.0205 26.0068C68.6982 25.626 68.4404 25.1689 68.2471 24.6357C68.0596 24.1025 67.9307 23.502 67.8604 22.834V21.8496C67.9307 21.1465 68.0625 20.5166 68.2559 19.96C68.4492 19.4033 68.7041 18.9287 69.0205 18.5361C69.3428 18.1377 69.7324 17.8359 70.1895 17.6309C70.6465 17.4199 71.1738 17.3145 71.7715 17.3145C72.3691 17.3145 72.8994 17.4316 73.3623 17.666C73.8252 17.8945 74.2148 18.2227 74.5312 18.6504C74.8477 19.0781 75.085 19.5908 75.2432 20.1885C75.4072 20.7803 75.4893 21.4395 75.4893 22.166ZM73.8545 22.3506V22.166C73.8545 21.6914 73.8047 21.2461 73.7051 20.8301C73.6055 20.4082 73.4502 20.0391 73.2393 19.7227C73.0342 19.4004 72.7705 19.1484 72.4482 18.9668C72.126 18.7793 71.7422 18.6855 71.2969 18.6855C70.8867 18.6855 70.5293 18.7559 70.2246 18.8965C69.9258 19.0371 69.6709 19.2275 69.46 19.4678C69.249 19.7021 69.0762 19.9717 68.9414 20.2764C68.8125 20.5752 68.7158 20.8857 68.6514 21.208V23.4844C68.7686 23.8945 68.9326 24.2812 69.1436 24.6445C69.3545 25.002 69.6357 25.292 69.9873 25.5146C70.3389 25.7314 70.7812 25.8398 71.3145 25.8398C71.7539 25.8398 72.1318 25.749 72.4482 25.5674C72.7705 25.3799 73.0342 25.125 73.2393 24.8027C73.4502 24.4805 73.6055 24.1113 73.7051 23.6953C73.8047 23.2734 73.8545 22.8252 73.8545 22.3506ZM79.3301 17.4902V27H77.6953V17.4902H79.3301ZM77.5723 14.9678C77.5723 14.7041 77.6514 14.4814 77.8096 14.2998C77.9736 14.1182 78.2139 14.0273 78.5303 14.0273C78.8408 14.0273 79.0781 14.1182 79.2422 14.2998C79.4121 14.4814 79.4971 14.7041 79.4971 14.9678C79.4971 15.2197 79.4121 15.4365 79.2422 15.6182C79.0781 15.7939 78.8408 15.8818 78.5303 15.8818C78.2139 15.8818 77.9736 15.7939 77.8096 15.6182C77.6514 15.4365 77.5723 15.2197 77.5723 14.9678ZM83.5664 19.5205V27H81.9404V17.4902H83.4785L83.5664 19.5205ZM83.1797 21.8848L82.5029 21.8584C82.5088 21.208 82.6055 20.6074 82.793 20.0566C82.9805 19.5 83.2441 19.0166 83.584 18.6064C83.9238 18.1963 84.3281 17.8799 84.7969 17.6572C85.2715 17.4287 85.7959 17.3145 86.3701 17.3145C86.8389 17.3145 87.2607 17.3789 87.6357 17.5078C88.0107 17.6309 88.3301 17.8301 88.5938 18.1055C88.8633 18.3809 89.0684 18.7383 89.209 19.1777C89.3496 19.6113 89.4199 20.1416 89.4199 20.7686V27H87.7852V20.751C87.7852 20.2529 87.7119 19.8545 87.5654 19.5557C87.4189 19.251 87.2051 19.0312 86.9238 18.8965C86.6426 18.7559 86.2969 18.6855 85.8867 18.6855C85.4824 18.6855 85.1133 18.7705 84.7793 18.9404C84.4512 19.1104 84.167 19.3447 83.9268 19.6436C83.6924 19.9424 83.5078 20.2852 83.373 20.6719C83.2441 21.0527 83.1797 21.457 83.1797 21.8848ZM98.0508 17.4902H99.5273V26.7979C99.5273 27.6357 99.3574 28.3506 99.0176 28.9424C98.6777 29.5342 98.2031 29.9824 97.5938 30.2871C96.9902 30.5977 96.293 30.7529 95.502 30.7529C95.1738 30.7529 94.7871 30.7002 94.3418 30.5947C93.9023 30.4951 93.4688 30.3223 93.041 30.0762C92.6191 29.8359 92.2646 29.5107 91.9775 29.1006L92.8301 28.1338C93.2285 28.6143 93.6445 28.9482 94.0781 29.1357C94.5176 29.3232 94.9512 29.417 95.3789 29.417C95.8945 29.417 96.3398 29.3203 96.7148 29.127C97.0898 28.9336 97.3799 28.6465 97.585 28.2656C97.7959 27.8906 97.9014 27.4277 97.9014 26.877V19.582L98.0508 17.4902ZM91.5029 22.3506V22.166C91.5029 21.4395 91.5879 20.7803 91.7578 20.1885C91.9336 19.5908 92.1826 19.0781 92.5049 18.6504C92.833 18.2227 93.2285 17.8945 93.6914 17.666C94.1543 17.4316 94.6758 17.3145 95.2559 17.3145C95.8535 17.3145 96.375 17.4199 96.8203 17.6309C97.2715 17.8359 97.6523 18.1377 97.9629 18.5361C98.2793 18.9287 98.5283 19.4033 98.71 19.96C98.8916 20.5166 99.0176 21.1465 99.0879 21.8496V22.6582C99.0234 23.3555 98.8975 23.9824 98.71 24.5391C98.5283 25.0957 98.2793 25.5703 97.9629 25.9629C97.6523 26.3555 97.2715 26.6572 96.8203 26.8682C96.3691 27.0732 95.8418 27.1758 95.2383 27.1758C94.6699 27.1758 94.1543 27.0557 93.6914 26.8154C93.2344 26.5752 92.8418 26.2383 92.5137 25.8047C92.1855 25.3711 91.9336 24.8613 91.7578 24.2754C91.5879 23.6836 91.5029 23.042 91.5029 22.3506ZM93.1289 22.166V22.3506C93.1289 22.8252 93.1758 23.2705 93.2695 23.6865C93.3691 24.1025 93.5186 24.4688 93.7178 24.7852C93.9229 25.1016 94.1836 25.3506 94.5 25.5322C94.8164 25.708 95.1943 25.7959 95.6338 25.7959C96.1729 25.7959 96.6182 25.6816 96.9697 25.4531C97.3213 25.2246 97.5996 24.9229 97.8047 24.5479C98.0156 24.1729 98.1797 23.7656 98.2969 23.3262V21.208C98.2324 20.8857 98.1328 20.5752 97.998 20.2764C97.8691 19.9717 97.6992 19.7021 97.4883 19.4678C97.2832 19.2275 97.0283 19.0371 96.7236 18.8965C96.4189 18.7559 96.0615 18.6855 95.6514 18.6855C95.2061 18.6855 94.8223 18.7793 94.5 18.9668C94.1836 19.1484 93.9229 19.4004 93.7178 19.7227C93.5186 20.0391 93.3691 20.4082 93.2695 20.8301C93.1758 21.2461 93.1289 21.6914 93.1289 22.166Z" fill="white"/>
<path d="M10 2H116V-2H10V2ZM124 10V31H128V10H124ZM116 39H10V43H116V39ZM2 31V10H-2V31H2ZM10 39C5.58172 39 2 35.4183 2 31H-2C-2 37.6274 3.37258 43 10 43V39ZM124 31C124 35.4183 120.418 39 116 39V43C122.627 43 128 37.6274 128 31H124ZM116 2C120.418 2 124 5.58172 124 10H128C128 3.37258 122.627 -2 116 -2V2ZM10 -2C3.37258 -2 -2 3.37258 -2 10H2C2 5.58172 5.58172 2 10 2V-2Z" fill="white"/>
</svg>
