<svg width="226" height="614" viewBox="0 0 226 614" fill="none" xmlns="http://www.w3.org/2000/svg">
<rect x="3" y="372" width="223" height="242" fill="#2C6187"/>
<rect width="223" height="242" fill="#2C6187"/>
<path fill-rule="evenodd" clip-rule="evenodd" d="M44.0502 176.619C44.5384 177.082 44.5384 177.834 44.0502 178.298L32.3836 189.381C31.8954 189.845 31.1039 189.845 30.6158 189.381L23.9491 183.048C23.461 182.584 23.461 181.832 23.9491 181.369C24.4373 180.905 25.2287 180.905 25.7169 181.369L31.4997 186.862L42.2825 176.619C42.7706 176.155 43.5621 176.155 44.0502 176.619Z" fill="black"/>
<path fill-rule="evenodd" clip-rule="evenodd" d="M44.0502 486.619C44.5384 487.082 44.5384 487.834 44.0502 488.298L32.3836 499.381C31.8954 499.845 31.1039 499.845 30.6158 499.381L23.9491 493.048C23.461 492.584 23.461 491.832 23.9491 491.369C24.4373 490.905 25.2287 490.905 25.7169 491.369L31.4997 496.862L42.2825 486.619C42.7706 486.155 43.5621 486.155 44.0502 486.619Z" fill="black"/>
<path fill-rule="evenodd" clip-rule="evenodd" d="M44.0502 548.619C44.5384 549.082 44.5384 549.834 44.0502 550.298L32.3836 561.381C31.8954 561.845 31.1039 561.845 30.6158 561.381L23.9491 555.048C23.461 554.584 23.461 553.832 23.9491 553.369C24.4373 552.905 25.2287 552.905 25.7169 553.369L31.4997 558.862L42.2825 548.619C42.7706 548.155 43.5621 548.155 44.0502 548.619Z" fill="black"/>
</svg>
